<?xml version="1.0" standalone="no"?><!DOCTYPE svg PUBLIC "-//W3C//DTD SVG 1.1//EN" "http://www.w3.org/Graphics/SVG/1.1/DTD/svg11.dtd"><svg t="1705545202033" class="icon" viewBox="0 0 1024 1024" version="1.1" xmlns="http://www.w3.org/2000/svg" p-id="52349" xmlns:xlink="http://www.w3.org/1999/xlink" width="200" height="200"><path d="M820.173 539.527h-90.688V199.238c-0.035-13.969-11.386-25.269-25.359-25.238H203.239c-13.972-0.031-25.324 11.269-25.359 25.238v625.363c0.035 13.973 11.387 25.27 25.359 25.239h529.539c62.094 0.062 112.524-50.137 112.75-112.231V564.758c-0.039-13.965-11.386-25.262-25.355-25.231zM228.591 224.48h450.18v574.879h-450.18V224.48z m566.223 513.129c-0.118 34.168-27.868 61.793-62.036 61.754h-3.277V590.008h65.332v147.601h-0.019z m0 0" fill="#ffffff" p-id="52350"></path><path d="M568.517 379.211l-40.215-30.789-66.867 86.457-75.477-82.621-37.543 33.965 72.106 78.925H354.88v50.489h77.543v43.941H354.88v50.48h77.543v66.582h50.734v-66.582h77.539v-50.484h-77.539v-43.941h77.539v-50.485h-58.648l66.469-85.937z m0 0" fill="#ffffff" p-id="52351"></path></svg>