<?xml version="1.0" standalone="no"?><!DOCTYPE svg PUBLIC "-//W3C//DTD SVG 1.1//EN" "http://www.w3.org/Graphics/SVG/1.1/DTD/svg11.dtd"><svg t="1705544201177" class="icon" viewBox="0 0 1137 1024" version="1.1" xmlns="http://www.w3.org/2000/svg" p-id="30558" xmlns:xlink="http://www.w3.org/1999/xlink" width="222.0703125" height="200"><path d="M0.002086 986.074074h1137.777778v37.925926H0.002086zM1080.890975 0H56.890975a56.888889 56.888889 0 0 0-56.888889 56.888889v238.933333a32.047407 32.047407 0 0 0 25.220741 31.668148A130.275556 130.275556 0 0 1 130.088012 455.111111a130.275556 130.275556 0 0 1-104.865185 127.620741A32.047407 32.047407 0 0 0 0.002086 614.4v100.693333a65.042963 65.042963 0 0 0 65.042963 65.042963H170.668753V815.407407a56.888889 56.888889 0 0 0 56.888888 56.888889h701.62963a56.888889 56.888889 0 0 0 56.888889-56.888889v-35.271111h86.660741A65.042963 65.042963 0 0 0 1137.779864 715.093333V614.4a32.047407 32.047407 0 0 0-25.220741-31.668148 130.085926 130.085926 0 0 1 0-255.241482A32.047407 32.047407 0 0 0 1137.779864 295.822222V56.888889a56.888889 56.888889 0 0 0-56.888889-56.888889z m-132.740741 815.407407a18.962963 18.962963 0 0 1-18.962963 18.962963H227.557641a18.962963 18.962963 0 0 1-18.962962-18.962963v-35.271111h739.555555z m151.703704-523.946666a168.011852 168.011852 0 0 0 0 327.30074v96.331852a27.117037 27.117037 0 0 1-27.117037 27.117037H65.045049A27.117037 27.117037 0 0 1 37.928012 715.093333v-96.331852A168.391111 168.391111 0 0 0 168.013938 455.111111 168.391111 168.391111 0 0 0 37.928012 291.460741V170.666667h1061.925926zM37.928012 130.085926V56.888889a18.962963 18.962963 0 0 1 18.962963-18.962963h1024a18.962963 18.962963 0 0 1 18.962963 18.962963v73.197037z"  p-id="30559"></path><path d="M891.261345 85.333333m-18.962963 0a18.962963 18.962963 0 1 0 37.925926 0 18.962963 18.962963 0 1 0-37.925926 0Z"  p-id="30560"></path><path d="M967.113197 85.333333m-18.962963 0a18.962963 18.962963 0 1 0 37.925926 0 18.962963 18.962963 0 1 0-37.925926 0Z"  p-id="30561"></path><path d="M1042.965049 85.333333m-18.962963 0a18.962963 18.962963 0 1 0 37.925926 0 18.962963 18.962963 0 1 0-37.925926 0Z"  p-id="30562"></path><path d="M246.520604 343.419259h37.925926v204.231111h-37.925926zM414.722086 547.84a102.21037 102.21037 0 1 0-102.020741-102.21037 102.21037 102.21037 0 0 0 102.020741 102.21037z m0-166.494815a64.284444 64.284444 0 1 1-64.094815 64.284445 64.284444 64.284444 0 0 1 64.094815-64.284445zM544.997641 343.419259h37.925926v204.231111h-37.925926zM848.405049 343.419259h37.925926v204.231111h-37.925926zM713.199123 547.84a102.21037 102.21037 0 1 0-102.020741-102.21037 102.21037 102.21037 0 0 0 102.020741 102.21037z m0-166.494815a64.284444 64.284444 0 1 1-64.094815 64.284445 64.284444 64.284444 0 0 1 64.094815-64.284445z"  p-id="30563"></path></svg>