<?xml version="1.0" standalone="no"?><!DOCTYPE svg PUBLIC "-//W3C//DTD SVG 1.1//EN" "http://www.w3.org/Graphics/SVG/1.1/DTD/svg11.dtd"><svg t="1705543519563" class="icon" viewBox="0 0 1024 1024" version="1.1" xmlns="http://www.w3.org/2000/svg" p-id="25378" xmlns:xlink="http://www.w3.org/1999/xlink" width="200" height="200"><path d="M752 922c-84 0-150-66-150-150 0-30 12-66 30-90v60c0 18 12 30 30 30s30-12 30-30V622c0-18-12-30-30-30H542c-18 0-30 12-30 30s12 30 30 30h36c-24 36-36 78-36 120 0 114 96 210 210 210 18 0 30-12 30-30s-12-30-30-30z m210-30h-36c24-36 36-78 36-120 0-90-54-168-138-198-24-6-48-12-72-12-18 0-30 12-30 30s12 30 30 30 36 0 48 6c60 24 102 78 102 144 0 30-12 66-30 90v-60c0-18-12-30-30-30s-30 12-30 30v120c0 18 12 30 30 30h120c18 0 30-12 30-30s-12-30-30-30z m-480 0H152c-36 0-60-24-60-60V172c0-36 24-60 60-60h540c36 0 60 24 60 60v270c0 18 12 30 30 30s30-12 30-30V172c0-66-54-120-120-120H152C86 52 32 106 32 172v660c0 66 54 120 120 120h330c18 0 30-12 30-30s-12-30-30-30z m150-570c0-18-12-30-30-30H242c-18 0-30 12-30 30s12 30 30 30h360c18 0 30-12 30-30zM242 472c-18 0-30 12-30 30s12 30 30 30h180c18 0 30-12 30-30s-12-30-30-30H242z" fill="#ffffff" p-id="25379"></path></svg>
