<?xml version="1.0" standalone="no"?><!DOCTYPE svg PUBLIC "-//W3C//DTD SVG 1.1//EN" "http://www.w3.org/Graphics/SVG/1.1/DTD/svg11.dtd"><svg t="1706073728828" class="icon" viewBox="0 0 1024 1024" version="1.1" xmlns="http://www.w3.org/2000/svg" p-id="6090" xmlns:xlink="http://www.w3.org/1999/xlink" width="200" height="200"><path d="M818.776444 783.984246c-57.946662 0-102.258815-44.312153-102.258815-102.258815s44.312153-102.258815 102.258815-102.258815 102.258815 44.312153 102.258815 102.258815-44.312153 102.258815-102.258815 102.258815z m0-170.431358c-37.494899 0-68.172543 30.677644-68.172543 68.172543s30.677644 68.172543 68.172543 68.172543 68.172543-30.677644 68.172543-68.172543-30.677644-68.172543-68.172543-68.172543z" p-id="6091"></path><path d="M903.992123 1022.588147h-6.817254L818.776444 988.501875l-78.398425 34.086272c-6.817254 3.408627-13.634509 0-17.043135-3.408628s-6.817254-10.225881-6.817255-17.043135l51.129408-238.603901c3.408627-10.225881 10.225881-13.634509 20.451763-13.634509 10.225881 3.408627 13.634509 10.225881 13.634508 20.451763l-44.312153 207.926257 54.538035-23.86039h13.634508l54.538035 23.86039-44.312153-207.926257c-3.408627-10.225881 3.408627-17.043136 13.634508-20.451763 10.225881-3.408627 17.043136 3.408627 20.451763 13.634509l51.129408 238.603901c0 6.817254 0 13.634509-6.817255 17.043135-3.408627 3.408627-6.817254 3.408627-10.225881 3.408628zM665.388222 920.329332h-545.380345c-10.225881 0-17.043136-6.817254-17.043136-17.043136v-647.639159c0-3.408627 3.408627-10.225881 3.408628-13.634509l238.6039-238.603901c3.408627 0 10.225881-3.408627 13.634509-3.408627h477.207802c10.225881 0 17.043136 6.817254 17.043136 17.043136v511.294073c0 10.225881-6.817254 17.043136-17.043136 17.043136s-17.043136-6.817254-17.043136-17.043136V34.086272H365.429032L137.051013 262.464291V886.24306h528.337209c10.225881 0 17.043136 6.817254 17.043136 17.043136s-6.817254 17.043136-17.043136 17.043136z" p-id="6092"></path><path d="M358.611778 272.690172h-238.603901c-10.225881 0-17.043136-6.817254-17.043136-17.043135s6.817254-17.043136 17.043136-17.043136H341.568642V17.043136c0-10.225881 6.817254-17.043136 17.043136-17.043136s17.043136 6.817254 17.043136 17.043136v238.603901c0 10.225881-6.817254 17.043136-17.043136 17.043135zM392.69805 477.207802h-204.51763c-10.225881 0-17.043136-6.817254-17.043136-17.043136s6.817254-17.043136 17.043136-17.043136h204.51763c10.225881 0 17.043136 6.817254 17.043135 17.043136s-6.817254 17.043136-17.043135 17.043136zM665.388222 647.63916h-477.207802c-10.225881 0-17.043136-6.817254-17.043136-17.043136s6.817254-17.043136 17.043136-17.043136h477.207802c10.225881 0 17.043136 6.817254 17.043136 17.043136s-6.817254 17.043136-17.043136 17.043136zM358.611778 818.070517h-170.431358c-10.225881 0-17.043136-6.817254-17.043136-17.043135s6.817254-17.043136 17.043136-17.043136h170.431358c10.225881 0 17.043136 6.817254 17.043136 17.043136s-6.817254 17.043136-17.043136 17.043135z" p-id="6093"></path><path d="M631.30195 374.948987c-51.129407 0-81.807052-20.451763-85.215678-51.129407 0-6.817254 6.817254-17.043136 17.043135-17.043136 6.817254 0 17.043136 6.817254 17.043136 17.043136s20.451763 20.451763 51.129407 20.451763c27.269017 0 51.129407-13.634509 51.129408-27.269018 0-6.817254-10.225881-20.451763-51.129408-23.86039h-3.408627c-20.451763-6.817254-81.807052-17.043136-81.807051-64.763916 0-34.086272 37.494899-61.355289 85.215678-61.355288 51.129407 3.408627 81.807052 23.86039 85.215679 54.538034 0 6.817254-6.817254 17.043136-17.043135 17.043136-6.817254 0-17.043136-6.817254-17.043136-13.634509 0-10.225881-20.451763-20.451763-51.129408-20.451763-27.269017 0-51.129407 13.634509-51.129407 27.269018 0 6.817254 10.225881 20.451763 51.129407 23.86039h3.408628c20.451763 3.408627 81.807052 13.634509 81.807051 61.355288 0 30.677644-37.494899 57.946662-85.215679 57.946662z" p-id="6094"></path><path d="M631.30195 409.035259c-10.225881 0-17.043136-6.817254-17.043135-17.043136v-238.603901c0-10.225881 6.817254-17.043136 17.043135-17.043136s17.043136 6.817254 17.043136 17.043136v238.603901c0 10.225881-6.817254 17.043136-17.043136 17.043136z" p-id="6095"></path></svg>