<?xml version="1.0" standalone="no"?><!DOCTYPE svg PUBLIC "-//W3C//DTD SVG 1.1//EN" "http://www.w3.org/Graphics/SVG/1.1/DTD/svg11.dtd"><svg t="1705542032686" class="icon" viewBox="0 0 1024 1024" version="1.1" xmlns="http://www.w3.org/2000/svg" p-id="6212" xmlns:xlink="http://www.w3.org/1999/xlink" width="200" height="200"><path d="M875.121778 345.088h-233.244445c-22.755556 0-39.822222-17.066667-39.822222-39.822222v-233.244445c0-17.066667 11.377778-28.444444 22.755556-34.133333 17.066667-5.688889 34.133333 0 45.511111 11.377778l233.244444 227.555555c11.377778 11.377778 17.066667 28.444444 11.377778 45.511111-11.377778 11.377778-22.755556 22.755556-39.822222 22.755556z m-193.422222-79.644444h96.711111l-96.711111-96.711112v96.711112z" fill="#A7A7A7" p-id="6213"></path><path d="M761.344 1016.376889h-512c-85.333333 0-153.6-68.266667-153.6-153.6v-682.666667c0-85.333333 68.266667-153.6 153.6-153.6h381.155556c22.755556 0 39.822222 17.066667 39.822222 39.822222s-17.066667 39.822222-39.822222 39.822223h-381.155556c-39.822222 0-73.955556 34.133333-73.955556 73.955555v682.666667c0 39.822222 34.133333 73.955556 73.955556 73.955555h512c39.822222 0 73.955556-34.133333 73.955556-73.955555v-546.133333c0-22.755556 17.066667-39.822222 39.822222-39.822223s39.822222 17.066667 39.822222 39.822223v546.133333c0 85.333333-68.266667 153.6-153.6 153.6z" fill="#A7A7A7" p-id="6214"></path><path d="M505.344 834.332444c-136.533333 0-244.622222-108.088889-244.622222-244.622222s108.088889-244.622222 244.622222-244.622222 244.622222 108.088889 244.622222 244.622222-108.088889 244.622222-244.622222 244.622222z m0-409.6c-91.022222 0-164.977778 73.955556-164.977778 164.977778 0 91.022222 73.955556 164.977778 164.977778 164.977778s164.977778-73.955556 164.977778-164.977778c0-91.022222-73.955556-164.977778-164.977778-164.977778z" fill="#A7A7A7" p-id="6215"></path><path d="M596.366222 635.221333h-96.711111c-17.066667 0-28.444444-11.377778-28.444444-28.444444v-136.533333c0-17.066667 11.377778-28.444444 28.444444-28.444445s28.444444 11.377778 28.444445 28.444445v108.088888h62.577777c17.066667 0 28.444444 11.377778 28.444445 28.444445s-11.377778 28.444444-22.755556 28.444444z" fill="#A7A7A7" p-id="6216"></path></svg>