<?xml version="1.0" standalone="no"?><!DOCTYPE svg PUBLIC "-//W3C//DTD SVG 1.1//EN" "http://www.w3.org/Graphics/SVG/1.1/DTD/svg11.dtd"><svg t="1705545248254" class="icon" viewBox="0 0 1024 1024" version="1.1" xmlns="http://www.w3.org/2000/svg" p-id="53435" xmlns:xlink="http://www.w3.org/1999/xlink" width="200" height="200"><path d="M830.008889 59.164444h-95.004445c-13.084444 0-23.893333 10.808889-23.893333 23.893334s10.808889 23.893333 23.893333 23.893333h95.004445c19.342222 0 35.271111 15.928889 35.271111 35.271111v745.244445c0 19.342222-15.928889 35.271111-35.271111 35.271111H193.991111c-19.342222 0-35.271111-15.928889-35.271111-35.271111V141.653333c0-19.342222 15.928889-35.271111 35.271111-35.271111h95.004445c13.084444 0 23.893333-10.808889 23.893333-23.893333s-10.808889-23.324444-23.893333-23.324445H193.991111c-45.511111 0-82.488889 36.977778-82.488889 82.488889v745.244445c0 45.511111 36.977778 82.488889 82.488889 82.488889h636.017778c45.511111 0 82.488889-36.977778 82.488889-82.488889V141.653333c0-45.511111-36.977778-82.488889-82.488889-82.488889z" p-id="53436"></path><path d="M394.24 106.382222h236.088889c13.084444 0 23.893333-10.808889 23.893333-23.893333s-10.808889-23.893333-23.893333-23.893333H394.24c-13.084444 0-23.893333 10.808889-23.893333 23.893333s10.808889 23.893333 23.893333 23.893333zM637.724444 728.746667c4.551111 0.568889 13.653333 0.568889 26.168889 0 11.946667-0.568889 21.048889-1.137778 26.168889-1.137778 0.568889 0.568889 1.706667 0 2.275556-2.275556v-15.928889c-0.568889-0.568889-2.275556-1.137778-4.551111-1.137777h-41.528889c-1.706667-0.568889-3.413333-1.137778-5.688889-1.137778s-4.551111 0.568889-6.826667 1.137778c-2.275556 3.982222-2.844444 9.671111-2.275555 17.066666-0.568889 3.413333 1.137778 4.551111 6.257777 3.413334zM631.466667 807.822222c0 1.706667-0.568889 2.844444-1.137778 4.551111s-0.568889 2.844444 0 3.413334c0.568889 4.551111 3.413333 7.395556 7.964444 7.964444 2.275556 0 5.12-0.568889 7.964445-2.275555h31.857778c0.568889 1.706667 2.844444 1.706667 5.688888 1.137777 2.844444-0.568889 5.688889-1.706667 7.964445-3.413333v-19.342222-23.893334c-0.568889-9.102222-0.568889-14.791111 1.137778-17.066666-0.568889-0.568889-0.568889-1.706667 1.137777-3.413334 0.568889-0.568889 1.137778-1.706667 1.137778-3.413333-1.706667-3.982222-5.12-6.257778-11.377778-7.964444-2.275556 0.568889-4.551111 1.706667-6.826666 2.275555h-30.72c-3.982222-0.568889-6.257778-1.706667-7.964445-2.275555-5.12 1.706667-8.533333 4.551111-9.102222 9.102222-0.568889 2.844444 0.568889 5.12 3.413333 6.826667v12.515555c0 15.36 0 27.306667-1.137777 35.271111z m22.186666-42.097778h19.342223v36.408889h-19.342223v-36.408889z" p-id="53437"></path><path d="M762.311111 667.306667h-35.271111v-5.688889c-0.568889-2.844444-0.568889-7.395556 0-12.515556s1.137778-9.671111 1.137778-13.653333c-0.568889-3.982222-3.413333-6.257778-7.964445-6.826667-2.275556 0.568889-5.688889 1.137778-10.24 1.137778-2.275556-0.568889-3.982222-1.137778-4.551111-1.137778-4.551111-1.706667-7.395556 0-7.964444 4.551111 0 6.257778 0.568889 10.808889 2.275555 13.653334a30.72 30.72 0 0 0 0 10.24c0.568889 4.551111 1.137778 7.964444 1.137778 10.24h-81.351111c-3.982222-0.568889-6.826667-1.137778-9.102222-1.137778-9.671111 1.706667-15.36 4.551111-15.928889 9.102222 0 2.844444 0.568889 5.688889 1.137778 7.964445 1.706667 2.844444 2.844444 5.12 3.413333 6.826666v35.271111c0 15.928889-0.568889 28.444444-1.137778 36.408889-0.568889 9.671111-1.706667 18.773333-2.275555 26.168889-2.844444 26.168889-12.515556 44.373333-28.444445 55.182222l5.688889 4.551111c5.12 2.844444 11.946667 5.12 19.342222 5.688889 18.204444-0.568889 28.444444-28.444444 30.72-82.488889 0-2.275556 0.568889-3.982222 1.137778-5.688888l1.137778-73.386667a33.564444 33.564444 0 0 1 7.964444-1.137778h68.835556c0 18.204444 1.137778 35.271111 3.413333 51.768889 1.706667 15.36 3.982222 29.582222 7.964445 42.666667 0 1.706667 0.568889 3.982222 1.137777 6.826666 0 1.706667 0.568889 2.844444 1.137778 4.551111-15.36 24.462222-31.288889 39.253333-48.355555 44.942223 6.826667 8.533333 14.791111 12.515556 23.893333 12.515555 11.377778-0.568889 23.893333-9.671111 36.408889-27.306666 9.671111 18.204444 21.617778 27.875556 35.271111 28.444444 4.551111 0 9.671111-2.275556 14.791111-6.826667 1.706667-0.568889 2.844444-1.137778 4.551111-1.137777l4.551111-7.964445c-17.635556-4.551111-31.857778-19.342222-42.666666-43.804444 9.671111-22.186667 17.066667-42.097778 21.617777-59.733334 2.844444-3.982222 5.12-8.533333 5.688889-13.653333-1.706667-4.551111-6.826667-7.964444-15.928889-10.24-2.275556-0.568889-4.551111-1.137778-6.826666-1.137778-2.844444 0-5.12 3.982222-5.688889 11.377778v3.413333c-1.706667 10.808889-4.551111 22.755556-9.102222 35.271111-2.275556-7.395556-3.982222-17.066667-5.688889-27.306666-0.568889-9.102222-1.706667-22.755556-2.275556-41.528889h41.528889c3.982222 0.568889 5.688889-0.568889 5.688889-3.413333 0-1.706667-0.568889-3.413333-1.137778-5.688889a13.880889 13.880889 0 0 1 0-6.826667c2.275556-7.395556-1.137778-10.24-9.671111-8.533333z" p-id="53438"></path><path d="M589.368889 772.551111c0-5.12-0.568889-9.102222-2.275556-11.377778-4.551111 0-10.808889 1.706667-18.204444 5.688889-5.12 2.844444-9.671111 4.551111-12.515556 4.551111h-1.706666c-7.395556 0.568889-13.653333 2.275556-17.066667 4.551111-0.568889 0.568889-1.137778 1.706667-1.137778 2.275556-1.706667 2.844444-2.275556 5.12-2.275555 6.826667 3.982222 14.791111 8.533333 22.755556 13.653333 25.031111 15.36-5.12 29.013333-17.635556 41.528889-37.546667zM548.977778 667.306667c-9.671111 0-14.791111 2.844444-13.653334 9.102222-0.568889 2.844444-0.568889 5.12 1.137778 5.688889 0 3.982222 0.568889 7.395556 1.137778 11.377778 0 2.844444 0.568889 4.551111 2.275556 4.551111 0 0.568889 0.568889 1.137778 1.137777 1.137777 2.275556 1.706667 4.551111 2.275556 6.826667 2.275556 22.186667-4.551111 35.271111-10.808889 39.253333-18.204444-0.568889-0.568889-0.568889-2.275556 0-4.551112 0.568889-1.706667 1.137778-2.844444 1.137778-4.551111l-1.137778-2.275555c-3.982222 0-8.533333-0.568889-13.653333-1.137778-10.24-1.706667-18.204444-2.844444-24.462222-3.413333zM742.968889 640.568889c0 1.706667-0.568889 3.982222-1.137778 6.826667 0 10.808889 3.982222 15.928889 11.377778 15.928888 5.12-2.844444 9.671111-11.377778 13.653333-25.031111-1.706667-3.982222-7.395556-6.257778-18.204444-7.964444-4.551111 0-6.257778 3.413333-5.688889 10.24zM720.213333 236.088889H303.786667c-12.515556 0-22.755556 10.24-22.755556 22.755555s10.24 22.755556 22.755556 22.755556h416.995555c12.515556 0 22.755556-10.24 22.755556-22.755556s-10.808889-22.755556-23.324445-22.755555zM611.555556 374.328889c0-12.515556-10.24-22.755556-22.755556-22.755556H303.786667c-12.515556 0-22.755556 10.24-22.755556 22.755556s10.24 22.755556 22.755556 22.755555h285.013333c12.515556 0 22.755556-10.24 22.755556-22.755555zM303.786667 467.626667c-12.515556 0-22.755556 10.24-22.755556 22.755555s10.24 22.755556 22.755556 22.755556h122.311111c12.515556 0 22.755556-10.24 22.755555-22.755556s-10.24-22.755556-22.755555-22.755555H303.786667z" p-id="53439"></path></svg>