<?xml version="1.0" standalone="no"?><!DOCTYPE svg PUBLIC "-//W3C//DTD SVG 1.1//EN" "http://www.w3.org/Graphics/SVG/1.1/DTD/svg11.dtd"><svg t="1705545630312" class="icon" viewBox="0 0 1024 1024" version="1.1" xmlns="http://www.w3.org/2000/svg" p-id="62613" xmlns:xlink="http://www.w3.org/1999/xlink" width="200" height="200"><path d="M934.4 153.6c0-12.8-3.2-19.2-16-16-12.8 0-25.6 3.2-38.4 3.2-57.6-6.4-118.4-6.4-176-19.2-67.2-19.2-131.2-41.6-179.2-99.2-12.8-12.8-16-12.8-28.8-3.2-64 48-131.2 96-214.4 108.8-54.4 9.6-112 16-166.4 9.6-19.2-3.2-28.8 3.2-25.6 25.6 3.2 16 6.4 35.2 6.4 51.2 0 121.6 9.6 243.2 3.2 364.8-3.2 89.6 28.8 160 89.6 220.8 89.6 92.8 198.4 153.6 313.6 208 12.8 6.4 19.2 3.2 28.8-3.2 41.6-22.4 83.2-41.6 124.8-67.2 70.4-41.6 140.8-89.6 195.2-153.6 35.2-41.6 70.4-86.4 73.6-144l9.6-425.6h3.2c-3.2-19.2-3.2-41.6-3.2-60.8zM364.8 448c3.2 73.6 0 147.2 0 220.8 0 16-3.2 19.2-19.2 19.2-51.2 0-51.2 0-51.2-51.2 0-64-3.2-128-3.2-192 0-16-6.4-19.2-19.2-12.8-3.2 0-6.4 3.2-9.6 3.2-9.6 3.2-19.2 12.8-25.6 0s-9.6-25.6 9.6-35.2C281.6 384 307.2 352 320 313.6c9.6-25.6 22.4-38.4 44.8-32 44.8 0 48 0 25.6 38.4s-28.8 83.2-25.6 128z m80 28.8h297.6c12.8 0 19.2 0 22.4 16 0 19.2-9.6 16-22.4 16H448c-12.8 0-22.4 3.2-22.4-16s9.6-16 19.2-16z m-19.2-54.4c0-16 9.6-16 19.2-16h297.6c12.8 0 19.2-3.2 22.4 16 0 19.2-9.6 16-22.4 16h-297.6c-12.8 3.2-19.2 0-19.2-16z m339.2 144v67.2c0 35.2-19.2 57.6-54.4 57.6h-265.6c-12.8 0-16-3.2-16-16v-112c0-12.8 6.4-16 16-16H745.6c16 0 22.4 3.2 19.2 19.2z m-3.2-214.4H422.4c-12.8 0-19.2 0-19.2-16s6.4-19.2 22.4-19.2h112c12.8 0 22.4-3.2 19.2-19.2-3.2-16 6.4-19.2 19.2-19.2h28.8c19.2 0 38.4-3.2 35.2 25.6-3.2 12.8 9.6 9.6 16 9.6h108.8c12.8 0 28.8-9.6 28.8 16-3.2 32-22.4 22.4-32 22.4z"  p-id="62614"></path><path d="M672 582.4h-121.6c-51.2 0-51.2 0-51.2 51.2 0 16 6.4 19.2 22.4 19.2H640c54.4 0 54.4 0 51.2-54.4-3.2-9.6-6.4-16-19.2-16z" p-id="62615"></path></svg>