<?xml version="1.0" standalone="no"?><!DOCTYPE svg PUBLIC "-//W3C//DTD SVG 1.1//EN" "http://www.w3.org/Graphics/SVG/1.1/DTD/svg11.dtd"><svg t="1706074511176" class="icon" viewBox="0 0 1024 1024" version="1.1" xmlns="http://www.w3.org/2000/svg" p-id="35515" xmlns:xlink="http://www.w3.org/1999/xlink" width="200" height="200"><path d="M932.1 321.9c-6.8 139.7-39.3 272.1-112.4 392.8-52.7 87.1-121.1 158.4-208.3 212.6-71.1 44.1-137.5 41-206.5-3.6-124-80.1-206.7-192-259.3-328-38.6-99.8-53.3-204-56.3-310.3-0.7-23.4 10.6-39.9 31.1-49.4 121.2-56.3 242.2-112.9 364.3-167.2 15.3-6.8 38.9-6.6 54.3 0.3C661 123.4 782.1 180 903.3 236.2c19.6 9.1 30.5 25.2 30.6 47.3-0.1 12.8-1.2 25.6-1.8 38.4z m-785.2-8.5c10.7 62.2 17.3 125.4 32.9 186.4C218.7 652.3 298.2 778.3 431 868.2c53.4 36.1 102.6 39.9 157 2.3 53.3-36.8 101.5-78.3 140.7-129.9 98.2-129.4 136.9-278.4 142.9-437.8 0.2-6.4-8.2-16.1-14.9-19.3C747.4 232 637.9 181 527.9 131.1c-9.6-4.4-24.9-3.4-34.8 1.1C385.2 181.4 278.2 232 170.5 281c-15.6 7.1-24.2 14.1-23.6 32.4z m0 0" p-id="35516"></path><path d="M711.5 736.6c-20.8-6.8-44.3 12.8-60.7-13.7-1.5-2.4-9.1-1.5-13.8-1.5-45.7-0.1-91.5-0.5-137.2 0.4-6.5 0.1-12.6 9-19.5 10.4-17.3 3.4-35 4.8-54 7.2V556h285.3l-0.1 180.6zM654 609.2H483.2v57.7H654v-57.7zM306 458.6l-32.1 40.9c-10.6-19.4-20.9-36.9-29.5-55.1-2-4.3-0.5-12.9 2.6-16.7 45.8-55.7 78.9-118.3 103.2-185.9 0.8-2.1 2.7-3.8 5.5-7.4l55.6 16.4c-7.1 18.2-11.7 35.3-20 50.4-17.7 32.1-20.5 66-20.1 101.8 1.1 102.6 0.4 205.3 0.4 308v27.9h-59.1v-279l-6.5-1.3z m0 0" p-id="35517"></path><path d="M397.1 367.4v-51.1h154l-33.4-65.6 54.9-21.4 39.6 69.9-23.2 16.1h153.6v52.1H397.1z m37.5 78.3v-48.4h269v48.4h-269z m0.2 78.3v-47.7h268.5V524H434.8z m0 0" p-id="35518"></path></svg>