<?xml version="1.0" standalone="no"?><!DOCTYPE svg PUBLIC "-//W3C//DTD SVG 1.1//EN" "http://www.w3.org/Graphics/SVG/1.1/DTD/svg11.dtd"><svg t="1705548454638" class="icon" viewBox="0 0 1024 1024" version="1.1" xmlns="http://www.w3.org/2000/svg" p-id="65374" xmlns:xlink="http://www.w3.org/1999/xlink" width="200" height="200"><path d="M893.881 394.267a31.156 31.156 0 0 0 0-10.188c0-210.971-171.028-381.999-382-381.999s-382 171.028-382 381.999a31.156 31.156 0 0 0 0 10.188C56.187 412.202 3.869 477.599 2.547 553.431v21.649c1.629 80.736 60.439 148.908 140.067 162.353 42.598 113.086 140.589 196.146 259.125 219.646h5.73c15.504 43.851 60.342 70.155 106.186 62.291 45.843-7.864 79.351-47.612 79.351-94.122 0-46.514-33.508-86.263-79.351-94.126-45.844-7.864-90.682 18.44-106.186 62.291-85.281-19.267-157.056-76.498-194.822-155.346H248.3c20.763 0.458 38.445-15.013 40.75-35.654V427.371c-0.695-21.9-18.839-39.194-40.75-38.835h-54.752a29.603 29.603 0 0 0 0-4.457c0-175.811 142.522-318.333 318.333-318.333 175.811 0 318.333 142.522 318.333 318.333a29.348 29.348 0 0 0 0 3.821h-54.753c-21.91-0.359-40.055 16.934-40.744 38.835v275.678c0.689 21.905 18.834 39.194 40.744 38.84h71.944a170.022 170.022 0 0 0 121.331-47.078 169.979 169.979 0 0 0 52.478-119.095v-21.649c-1.322-75.832-53.64-141.229-127.333-159.164zM496.6 893.413c17.585 0 31.836 14.25 31.836 31.835 0 17.58-14.251 31.831-31.836 31.831-17.58 0-31.831-14.251-31.831-31.831a31.856 31.856 0 0 1 9.322-22.513 31.832 31.832 0 0 1 22.509-9.322zM225.383 674.401h-49.026c-57.552 2.193-106.39-41.848-110.143-99.321v-21.649c2.415-58.484 51.647-104.018 110.143-101.863h49.026v222.833z m732.164-99.321c-2.41 58.485-51.646 104.018-110.142 101.868h-49.022V451.567h49.022c58.495-2.154 107.731 43.379 110.142 101.863v21.65z m0 0" fill="#ffffff" p-id="65375"></path><path d="M650.038 147.241l-23.559-8.278c-17.58-5.448-36.249 4.385-41.702 21.965-5.448 17.58 4.384 36.253 21.969 41.702l18.46 7.004a31.837 31.837 0 0 0 45.095-33.108 31.832 31.832 0 0 0-20.263-25.464v-3.821z m-343.803 75.127c-6.706 14.373-1.807 31.496 11.486 40.147 13.297 8.647 30.937 6.188 41.357-5.769a201.21 201.21 0 0 1 152.802-76.4c17.58 0 31.836-14.251 31.836-31.831 0-17.581-14.256-31.835-31.836-31.835-81.212 1.486-157.156 40.515-205.645 105.688z m0 0" fill="#ffffff" p-id="65376"></path></svg>