<?xml version="1.0" standalone="no"?><!DOCTYPE svg PUBLIC "-//W3C//DTD SVG 1.1//EN" "http://www.w3.org/Graphics/SVG/1.1/DTD/svg11.dtd"><svg t="1703144926549" class="icon" viewBox="0 0 1024 1024" version="1.1" xmlns="http://www.w3.org/2000/svg" p-id="4329" xmlns:xlink="http://www.w3.org/1999/xlink" width="128" height="128"><path d="M772.150018 256.532631 249.152547 256.532631l0 38.268582L772.150018 294.801213 772.150018 256.532631zM772.150018 371.33633 249.152547 371.33633l0 38.267559L772.150018 409.603889 772.150018 371.33633zM772.150018 486.141052 249.152547 486.141052l0 38.268582L772.150018 524.409634 772.150018 486.141052zM849.320609 65.190745 171.980933 65.190745c-37.633109 0-37.633109 37.20946-37.633109 37.20946l0 818.513976c0 0 0 37.201274 37.633109 37.201274l413.929404 0 301.043381-297.636794L886.953717 102.400205C886.953717 102.400205 886.953717 65.190745 849.320609 65.190745zM848.686159 664.72538l-267.877003 255.120468 0-255.120468L848.686159 664.72538l0-38.268582L580.809155 626.456798c-37.625946 0-38.267559 38.268582-38.267559 38.268582l0 255.120468 0.530073 0.098237-371.090736 0.969071L171.980933 102.400205l677.340699 0L848.686159 664.72538zM364.410594 616.844883l-18.862603 8.719592c4.656043 7.107885 10.156314 23.657816 18.408255 39.160905l21.032012-13.966083C375.840924 635.095549 368.986819 623.794156 364.410594 616.844883zM259.557524 866.49271c48.426943-17.279548 83.665515-34.396391 105.714693-51.349505 21.968337 17.196661 55.976896 33.665751 102.038978 49.414433 3.916193-5.653767 9.634428-12.676717 17.145495-21.073968-47.28391-12.432147-81.787748-26.483164-103.510492-42.145889 28.829606-28.016077 47.611367-65.076134 56.352449-111.180172l45.199435 0-3.737114-25.431206-114.804722 0-114.804722 0-1.842974 7.509021 0 17.922185 46.176692 0c8.091282 42.550095 27.03268 79.56922 56.839543 111.055328-23.599488 17.037025-58.758242 32.502251-105.468077 46.387493C250.41019 854.544587 255.313873 860.838943 259.557524 866.49271zM313.089741 690.157609l103.262852 0c-7.189749 41.261753-24.053835 74.080206-50.593282 98.463546C337.991897 762.704902 320.438103 729.879286 313.089741 690.157609z" p-id="4330"></path></svg>