<?xml version="1.0" standalone="no"?><!DOCTYPE svg PUBLIC "-//W3C//DTD SVG 1.1//EN" "http://www.w3.org/Graphics/SVG/1.1/DTD/svg11.dtd"><svg t="1705545323897" class="icon" viewBox="0 0 1024 1024" version="1.1" xmlns="http://www.w3.org/2000/svg" p-id="55398" xmlns:xlink="http://www.w3.org/1999/xlink" width="200" height="200"><path d="M629.61339 210.11889C814.316395 274.411543 966.605993 478.214819 966.605993 673.527192 966.570761 909.284724 832.259694 1024 511.981816 1024 191.705074 1024 57.394007 909.284724 57.394007 673.527192 57.394007 478.214819 209.725656 274.411543 394.391156 210.11889h235.222234zM667.702553 700.09323c-0.238668 43.406917-69.986593 70.415059-156.27081 70.415059S355.160932 743.500147 355.160932 700.09323v44.130877c0 43.40578 69.986593 78.612741 156.270811 78.612741S667.702553 787.629887 667.702553 744.224107V700.09323z m0-78.419534c-0.238668 43.406917-69.986593 70.415059-156.27081 70.415059S355.160932 665.080613 355.160932 621.673696v44.130877c0 43.40578 69.986593 78.612741 156.270811 78.612741S667.702553 709.210353 667.702553 665.804573V621.673696z m0-78.419534c-0.238668 43.406917-69.986593 70.415059-156.27081 70.415059S355.160932 586.661079 355.160932 543.254162v44.130877c0 43.40578 69.986593 78.612741 156.270811 78.612741S667.702553 630.790819 667.702553 587.385039V543.254162zM511.552213 406.872364C425.200941 406.872364 355.160932 441.805425 355.160932 484.87366v25.839805C355.160932 553.7817 425.200941 588.714761 511.552213 588.714761 597.902349 588.714761 667.702553 553.7817 667.702553 510.713465v-25.839805C667.702553 441.805425 597.902349 406.872364 511.552213 406.872364zM662.414349 0C678.272142 0 691.126127 12.853984 691.126127 28.711778c0 5.030215-1.321767 9.972919-3.832329 14.331454l-46.888062 81.397203a57.423556 57.423556 0 0 1-49.758899 28.760648H423.274548a57.423556 57.423556 0 0 1-49.758899-28.760648l-46.888062-81.397203c-7.91469-13.740466-3.192471-31.295077 10.547996-39.209767A28.711778 28.711778 0 0 1 351.507037 0h310.907312z" fill="#ffffff" p-id="55399"></path></svg>