<?xml version="1.0" standalone="no"?><!DOCTYPE svg PUBLIC "-//W3C//DTD SVG 1.1//EN" "http://www.w3.org/Graphics/SVG/1.1/DTD/svg11.dtd"><svg t="1702283298009" class="icon" viewBox="0 0 1143 1024" version="1.1" xmlns="http://www.w3.org/2000/svg" p-id="5219" xmlns:xlink="http://www.w3.org/1999/xlink" width="223.2421875" height="200"><path d="M498.094318 42.88893L11.4919 895.333209C-21.157031 952.510512 19.648179 1024 84.934132 1024h973.19293c65.285953 0 106.091163-71.489488 73.466047-128.666791L644.966876 42.88893c-32.637023-57.189209-114.247442-57.189209-146.884465 0" fill="#F5A51E" p-id="5220"></path><path d="M619.164458 839.44186a53.581395 53.581395 0 1 1-107.162791 0 53.581395 53.581395 0 1 1 107.162791 0M565.583062 738.232558c-21.730233 0-39.590698-16.550698-40.400372-37.471256l-13.145302-337.646139C510.894318 333.883535 535.220272 309.581395 565.583062 309.581395s54.688744 24.30214 53.545675 53.533768l-13.133396 337.646139C605.185667 721.669953 587.325202 738.232558 565.583062 738.232558" fill="#FFFFFF" p-id="5221"></path></svg>