<?xml version="1.0" standalone="no"?><!DOCTYPE svg PUBLIC "-//W3C//DTD SVG 1.1//EN" "http://www.w3.org/Graphics/SVG/1.1/DTD/svg11.dtd"><svg t="1701951092297" class="icon" viewBox="0 0 1024 1024" version="1.1" xmlns="http://www.w3.org/2000/svg" p-id="10626" id="mx_n_1701951092298" xmlns:xlink="http://www.w3.org/1999/xlink" width="200" height="200"><path d="M822.77126 669.534526 577.592485 292.761467c-16.781853-25.991406-38.475467-38.987109-65.080843-38.987109-26.605376 0-48.298991 12.995703-65.080843 38.987109L202.968322 669.534526c-16.270211 25.582093-17.702808 48.094334-4.297792 68.253023 13.916658 19.749375 37.861497 29.265914 71.936844 29.265914l484.729489 0c34.075347 0 57.917857-9.618867 71.527531-29.572899C840.474068 717.424203 839.143799 695.116618 822.77126 669.534526zM488.055161 419.648646c0-12.381733 10.64215-22.512241 23.023883-22.512241l2.046567 0c12.381733 0 22.512241 10.130509 22.512241 22.512241L535.637854 588.695113c0 12.381733-10.130509 22.512241-22.512241 22.512241l-2.046567 0c-12.381733 0-23.023883-10.130509-23.023883-22.512241L488.055161 419.648646zM513.125612 711.693814c-16.986509 0-30.698511-13.712002-30.698511-30.698511s13.712002-30.698511 30.698511-30.698511 30.698511 13.712002 30.698511 30.698511S530.112122 711.693814 513.125612 711.693814z" p-id="10627"></path></svg>