<?xml version="1.0" standalone="no"?><!DOCTYPE svg PUBLIC "-//W3C//DTD SVG 1.1//EN" "http://www.w3.org/Graphics/SVG/1.1/DTD/svg11.dtd"><svg t="1705544885104" class="icon" viewBox="0 0 1024 1024" version="1.1" xmlns="http://www.w3.org/2000/svg" p-id="44302" xmlns:xlink="http://www.w3.org/1999/xlink" width="200" height="200"><path d="M348.16 0h128c20.48 0 40.96 20.48 40.96 40.96v128c0 20.48-20.48 40.96-40.96 40.96H348.16c-20.48 0-40.96-20.48-40.96-40.96V40.96c0-20.48 20.48-40.96 40.96-40.96z" fill="#ffffff" p-id="44303"></path><path d="M665.6 112.64c25.6 0 40.96 20.48 40.96 40.96v168.96c-5.12-5.12-15.36-5.12-20.48-5.12-35.84-15.36-56.32-20.48-66.56-15.36V194.56h-460.8v532.48h348.16l10.24 81.92H117.76c-25.6 0-40.96-20.48-40.96-40.96V153.6c0-25.6 20.48-40.96 40.96-40.96h547.84z" fill="#ffffff" p-id="44304"></path><path d="M501.76 455.68H409.6v40.96h92.16c10.24 0 20.48 10.24 20.48 20.48v20.48c0 10.24-10.24 20.48-20.48 20.48H409.6v66.56c0 10.24-10.24 20.48-20.48 20.48h-20.48c-10.24 0-20.48-10.24-20.48-20.48V563.2H256c-15.36 0-25.6-10.24-25.6-25.6v-20.48c0-10.24 10.24-20.48 20.48-20.48h92.16v-40.96H256c-15.36 0-25.6-10.24-25.6-25.6V409.6c0-10.24 10.24-20.48 20.48-20.48h61.44L235.52 307.2c-5.12-10.24-5.12-25.6 0-30.72l15.36-15.36c10.24-10.24 25.6-10.24 30.72 0l92.16 102.4 92.16-102.4c10.24-10.24 25.6-10.24 30.72 0l15.36 15.36c10.24 10.24 10.24 20.48 0 30.72L445.44 384h61.44c10.24 0 20.48 10.24 20.48 20.48v20.48c0 20.48-10.24 30.72-25.6 30.72zM885.76 537.6c-10.24-5.12-117.76-128-148.48-143.36-76.8-35.84-117.76-46.08-117.76-30.72v51.2c0 10.24 107.52 81.92 107.52 102.4v87.04l-35.84 71.68c-20.48-15.36-40.96-61.44-40.96-61.44S640 491.52 578.56 491.52h-5.12s-46.08 5.12-5.12 138.24l15.36 148.48s20.48 81.92 71.68 138.24v15.36c0 10.24 5.12 15.36 15.36 15.36H844.8c10.24 0 15.36-5.12 15.36-15.36 5.12-61.44 30.72-296.96 46.08-307.2 0 0 15.36-56.32-20.48-87.04z" fill="#ffffff" p-id="44305"></path></svg>