<?xml version="1.0" standalone="no"?><!DOCTYPE svg PUBLIC "-//W3C//DTD SVG 1.1//EN" "http://www.w3.org/Graphics/SVG/1.1/DTD/svg11.dtd"><svg t="1705548618746" class="icon" viewBox="0 0 1024 1024" version="1.1" xmlns="http://www.w3.org/2000/svg" p-id="68220" xmlns:xlink="http://www.w3.org/1999/xlink" width="200" height="200"><path d="M505.8 863.2H185.1c-7.5 0-15 0.1-22.5 0h-0.3c-2.1 0-4.2-0.1-6.2-0.3-3.1-0.3-1.8-1.5 1 0.2-0.9-0.6-3-0.5-4-0.7-3.5-0.7-6.9-1.7-10.3-2.9-0.6-0.2-4.7-1.4-1.1-0.4 3.4 0.9-0.4-0.2-1-0.6-2-1-3.9-2-5.8-3.2-1.5-0.9-2.9-1.9-4.4-2.9-3-2 1 0.6 1.2 1-0.4-0.7-1.9-1.5-2.5-2.1-3.1-2.7-5.9-5.8-8.7-8.9-1.8-2 0.8-0.5 0.9 1.3 0-0.4-1.2-1.7-1.5-2.1-1.1-1.6-2.2-3.3-3.1-5-1-1.7-1.8-3.5-2.8-5.2-1.7-3.2 0.6 1 0.6 1.5 0-0.9-1.1-2.9-1.4-3.7-1.3-3.8-2.2-7.7-3-11.7-0.6-2.8 1-0.1 0.2 1.7 0.2-0.4-0.2-2.5-0.3-2.7-0.1-1.9-0.2-3.7-0.2-5.6v-1.1-7.7V768 648.4 505.9 395.4v-26.1c0-3.1 0-6.1 0.3-9.2 0.3-3.1 1.5-1.8-0.2 1 0.3-0.5 0.4-2.3 0.5-2.7 0.3-1.8 0.7-3.5 1.2-5.3 0.5-1.9 1.1-3.9 1.8-5.7 0.3-0.9 1.2-2.2 1.2-3.1-0.4 0.9-0.7 1.8-1.1 2.7 0.4-0.8 0.7-1.6 1.1-2.4 1.6-3.1 3.3-6.2 5.3-9.1 0.3-0.5 3.1-3.7 0.6-1-2.5 2.8 0.4-0.5 0.8-0.9 1.4-1.7 2.9-3.3 4.5-4.8 1.2-1.2 2.5-2.4 3.9-3.5 0.3-0.3 1.8-1.2 2-1.7-1.6 2.8-3.1 2.2-0.7 0.6 3.5-2.3 7.1-4.3 10.8-6.3 2-1 1.6 0.4-1.5 0.6 0.6 0 1.8-0.7 2.5-1 1.9-0.7 3.8-1.3 5.7-1.8 1.9-0.5 3.9-1 5.9-1.4 0.4-0.1 2.2-0.2 2.7-0.5-3.2 0.4-4 0.5-2.3 0.3 0.7-0.1 1.4-0.1 2.1-0.2 5.9-0.4 12-0.2 18-0.2H255.9c11.2 0 22-9.9 21.5-21.5s-9.4-21.5-21.5-21.5h-50.6c-18.2 0-37.1-1.4-55.2 1-38.7 5.2-72.5 34.9-80.6 73.7-2.2 10.6-2.3 20.9-2.3 31.5v367c0 22-0.1 43.9 0 65.9 0.1 32.3 16 61.5 42.4 79.9 17.2 12.1 37.7 16.3 58.4 16.3h338.1c11.2 0 22-9.9 21.5-21.5-0.8-11.5-9.8-21.3-21.8-21.3z" p-id="68221"></path><path d="M523.8 863.2h-18c-11.2 0-22 9.9-21.5 21.5s9.4 21.5 21.5 21.5h18c11.2 0 22-9.9 21.5-21.5-0.5-11.7-9.5-21.5-21.5-21.5zM706.5 313.9H801.7c2.1 0 4.2 0.1 6.3 0.3 1.7 0.1 4.5 1.1-1-0.2 0.9 0.2 1.8 0.3 2.7 0.5 2.2 0.4 4.4 0.9 6.6 1.6 2.2 0.6 5.3 2.4 7.5 2.6-3.3-0.3-3.4-1.6-1.5-0.6 1.2 0.6 2.4 1.2 3.5 1.8 1.9 1 3.8 2.2 5.6 3.4 0.7 0.5 1.4 1 2.2 1.5 3.7 2.5-2.8-2.6-0.7-0.6 1.7 1.7 3.7 3.1 5.4 4.8 1.6 1.5 3 3.1 4.5 4.8 0.3 0.4 3.2 3.7 0.8 0.9-2.4-2.7 0.3 0.5 0.6 1 1.2 1.8 2.4 3.7 3.5 5.6 0.4 0.8 0.8 1.5 1.3 2.3 0.4 0.8 2.1 5.7 1.2 2.2-1-3.6 0.2 0.6 0.4 1.1 0.4 1 0.7 2.1 1.1 3.2 0.6 1.9 1.1 3.9 1.6 5.8 0.3 1.3 0.5 2.7 0.8 4 0.6 2.7-1 0.3-0.2-1.7-0.7 1.6 0.5 6.4 0.5 8.3v128.7c0 11.2 9.9 22 21.5 21.5s21.5-9.4 21.5-21.5V372.5c0-10.7-0.6-21.5-3.6-31.9-6.3-22.1-20.5-40.7-39.3-53.6-15.5-10.6-34.5-15.8-53.2-15.9H706.7c-11.2 0-22 9.9-21.5 21.5 0.4 11.4 9.3 21.3 21.3 21.3zM218.4 450.4h464.5c21.3 0 42.8 0.5 64.1 0h0.9c11.2 0 22-9.9 21.5-21.5s-9.4-21.5-21.5-21.5H283.4c-21.3 0-42.8-0.5-64.1 0h-0.9c-11.2 0-22 9.9-21.5 21.5 0.5 11.7 9.4 21.5 21.5 21.5z" p-id="68222"></path><path d="M704 407.4H315.8c-17.8 0-35.9-0.7-53.7 0h-0.8l21.5 21.5V317.4 140 99.7l-21.5 21.5H649.5c17.8 0 35.9 0.7 53.7 0h0.8l-21.5-21.5v329.2c0 11.2 9.9 22 21.5 21.5s21.5-9.4 21.5-21.5V317.4 140 99.7c0-11.6-9.9-21.5-21.5-21.5H315.8c-17.9 0-35.8-0.4-53.7 0h-0.8c-11.6 0-21.5 9.9-21.5 21.5v329.2c0 11.6 9.9 21.5 21.5 21.5H649.5c17.9 0 35.8 0.4 53.7 0h0.8c11.2 0 22-9.9 21.5-21.5s-9.4-21.5-21.5-21.5zM396.6 526.8l63.6 74.1 9 10.5c7.2 8.4 23.2 8.3 30.4 0 21.3-24.7 42.7-49.4 64-74.1 3-3.5 6-7 9.1-10.5 7.3-8.5 9-22.2 0-30.4-8.1-7.4-22.6-9.1-30.4 0-21.3 24.7-42.7 49.4-64 74.1-3 3.5-6 7-9.1 10.5h30.4L436 506.9l-9-10.5c-7.4-8.6-23-8.1-30.4 0-8.3 9.2-7.8 21.3 0 30.4z" p-id="68223" ></path><path d="M373.1 648.4H537c11.2 0 22-9.9 21.5-21.5s-9.4-21.5-21.5-21.5H373.1c-11.2 0-22 9.9-21.5 21.5 0.6 11.6 9.5 21.5 21.5 21.5zM373.1 740.5h112.2c11.2 0 22-9.9 21.5-21.5s-9.4-21.5-21.5-21.5H373.1c-11.2 0-22 9.9-21.5 21.5 0.5 11.7 9.5 21.5 21.5 21.5z" p-id="68224" ></path><path d="M465.1 648.6v145.1c0 11.2 9.9 22 21.5 21.5s21.5-9.4 21.5-21.5V666.6v-18c0-11.2-9.9-22-21.5-21.5-11.7 0.5-21.5 9.5-21.5 21.5zM383.3 228.5H587c11.2 0 22-9.9 21.5-21.5s-9.4-21.5-21.5-21.5H383.3c-11.2 0-22 9.9-21.5 21.5s9.4 21.5 21.5 21.5zM382.5 339.7H586.2c11.2 0 22-9.9 21.5-21.5s-9.4-21.5-21.5-21.5H382.5c-11.2 0-22 9.9-21.5 21.5 0.5 11.7 9.4 21.5 21.5 21.5z" p-id="68225" ></path><path d="M743 777.8c-1.6 0-3.3-0.1-4.9-0.2-0.6 0-1.4-0.3-2.1-0.2-0.1 0 4.7 0.8 2.3 0.3-3.3-0.6-6.6-1.3-9.8-2.3-0.8-0.2-3-1.5-3.7-1.3 1.5-0.4 4.1 1.9 1.5 0.6-0.6-0.3-1.2-0.6-1.8-0.8-2.9-1.5-5.6-3.2-8.3-5-3.2-2.1 3.1 2.8 0.3 0.2-1.1-1-2.3-2-3.4-3-0.9-0.9-1.8-1.8-2.7-2.8-0.6-0.6-4.2-5.1-2-2.3 2.1 2.7-0.8-1.2-1.3-2-0.7-1.1-1.4-2.2-2-3.3-0.7-1.3-1.4-2.7-2.1-4-2.2-4.3 1.1 3.7-0.3-0.9-0.9-2.8-1.7-5.5-2.3-8.3-0.2-0.9-1.1-6.2-0.5-2.5 0.6 3.5 0-1.6-0.1-2.6-0.1-1.6-0.1-3.3 0-4.9 0-1 0.8-4.1 0.3-4.8 0 0-0.8 4.6-0.3 2.3 0.1-0.7 0.2-1.3 0.3-2 0.3-1.8 0.7-3.5 1.2-5.2 0.4-1.5 0.9-2.9 1.4-4.4 1.4-4.6-1.5 2.9 0.1-0.3 1.4-2.7 2.7-5.4 4.4-7.9 0.5-0.8 2.1-2.3 2.2-3.2-0.4 2.2-2.7 3.2-1 1.3 0.4-0.5 0.8-1 1.3-1.5 2.2-2.4 4.5-4.6 6.9-6.7 2.9-2.5-3.5 2.3-0.3 0.2 1.3-0.8 2.5-1.7 3.8-2.5 1.3-0.8 2.6-1.5 4-2.2 0.8-0.4 5.4-2.5 2.2-1.1s1.4-0.4 2.4-0.7c1.3-0.4 2.5-0.8 3.8-1.1 1.5-0.4 3.1-0.7 4.6-1 4.9-0.9-4 0.3 1.1-0.1 3-0.2 6-0.2 9.1-0.1 0.8 0 2 0.3 2.7 0.2 0.1 0-4.7-0.8-2.3-0.3 1.8 0.3 3.5 0.6 5.3 1 1.7 0.4 6.8 3 8.2 2.6-0.1 0-4.1-1.9-2.1-0.9 0.6 0.3 1.2 0.5 1.8 0.8 1.6 0.8 3.1 1.6 4.6 2.5 1.3 0.8 2.5 1.6 3.8 2.4 4 2.6-2.4-2.2 0.3 0.1 2.3 2 4.5 4 6.5 6.2 0.6 0.6 3.9 4.7 1.6 1.8-2.1-2.7 0.5 0.8 1 1.5 1.8 2.7 3.3 5.6 4.7 8.5 1.7 3.5-1.3-4-0.2-0.3 0.5 1.5 1 2.9 1.4 4.4 0.4 1.5 0.8 3 1.1 4.5 0.2 0.9 1.1 6 0.5 2.5-0.6-3.7 0 1.7 0.1 2.6 0.1 1.6 0.1 3.3 0 4.9 0 1.4-0.2 2.8-0.3 4.1-0.1 2.9 0.8-4.5 0.3-1.7-0.2 0.9-0.3 1.8-0.5 2.7-0.7 3.3-1.7 6.4-2.7 9.6-1.1 3.4 0.4-1.1 0.7-1.5-0.5 0.5-0.8 1.7-1.1 2.4-0.8 1.6-1.6 3.1-2.5 4.6-0.9 1.5-1.9 2.9-2.8 4.3-0.4 0.5-1.8 2.4 0.1-0.1 2.3-2.9-0.4 0.5-0.8 0.8-2.1 2.4-4.4 4.6-6.9 6.8-3.6 3.2 3.4-2.1-0.8 0.6-1.3 0.8-2.5 1.7-3.8 2.4-1.5 0.9-3 1.7-4.6 2.5-0.6 0.3-1.9 0.7-2.4 1.1 0.7-0.6 4.3-1.6 1.5-0.7-3.4 1.1-6.8 2.2-10.3 2.8-0.7 0.1-1.3 0.2-2 0.3-2.8 0.5 4.5-0.3 1.6-0.3-1.9 0.3-3.9 0.5-6 0.6-11.2 0.1-22 9.8-21.5 21.5 0.5 11.5 9.4 21.6 21.5 21.5 37-0.4 68.9-23.3 81.6-57.9 11.8-32.2 1.3-71.8-25.2-93.6-28.2-23.2-68.5-27.7-100.4-8.9-32.1 18.9-47.1 56.1-40.3 92.2 7.5 39.8 44.7 67.7 84.4 68.1 11.2 0.1 22-10 21.5-21.5-0.7-11.7-9.6-21.3-21.6-21.4z" p-id="68226"></path><path d="M954.4 692c-2.5-15.7-16.1-29-31.8-31.1-7.8-1 0.4-0.1 0.5 0.1-0.7-0.6-3.2-0.9-4.1-1.2-0.9-0.3-1.8-0.6-2.6-0.9-4.6-1.6 4.3 2.3 0.1 0-2-1.1-3.9-2.1-5.8-3.3 0.1 0.1-2.1-1.6-2.2-1.5 2.6 2 3 2.3 1.2 0.8-0.7-0.6-1.4-1.2-2-1.8-1.7-1.6-3.2-3.3-4.8-5.1-2.7-3 0.5 0.9 0.7 0.9-0.8-0.3-2.1-3-2.5-3.7-1.4-2.2-2.6-4.6-4-6.9-2.6-4.5 0.9 3-0.1-0.1-0.6-1.8-1.3-3.6-1.8-5.4-0.4-1.3-0.7-2.6-0.9-4-0.1-0.3-0.1-0.5-0.2-0.8-0.4-2.4-0.4-2.1 0.1 0.9-0.9-1.7-0.3-6.3-0.2-8.1 0-0.5 0.1-1.1 0.1-1.6 0.2-2.5 0.2-2.2-0.1 0.8-0.2-0.5 0.6-2.9 0.7-3.2 0.7-2.9 1.9-5.6 2.5-8.6 3.6-17-4.6-31-17.1-41.9-9.9-8.7-20.7-16.6-32.1-23.1-11.4-6.5-24.1-12.6-36.7-16.3-16.9-4.9-31.6 3-42.9 14.9-0.8 0.9-1.7 1.7-2.6 2.6-0.2 0.2-0.4 0.3-0.5 0.5-1.8 1.5-1.5 1.3 0.9-0.6-0.4 1.2-5.1 3.3-6.2 3.8-0.4 0.2-0.9 0.4-1.3 0.7-2.1 1-1.8 0.8 1.1-0.4-0.2 0.3-2.7 1-2.8 1-1.5 0.5-7.3 2.8-8.8 2.1l2.7-0.3c-1 0.1-2.1 0.2-3.1 0.3-1 0.1-2.1 0.1-3.2 0.1-1.5 0-3.1-0.1-4.6-0.1-4.3 0 1.1 0.3 1.2 0.3-1.7 0.6-5.6-1.1-7.4-1.7-1.2-0.4-3.3-0.7-4.3-1.5 2.8 1.2 3 1.3 0.9 0.3-0.5-0.2-0.9-0.5-1.4-0.7-2.4-1.2-4.7-2.6-6.9-4.1-0.9-0.6-5.4-2.9-1-0.6-1.2-0.6-2.3-1.9-3.2-2.8-6.5-5.9-12.7-11.6-21.6-13.9-15.4-4-29.1 3-42.7 9.6-10.6 5.2-20.9 11-30.6 17.6-5.5 3.8-10.9 7.8-16.1 12-1.1 0.8-2.5 2.5-3.8 3 0.3-0.2 0.6-0.5 1-0.7 2.4-1.8 1.3-0.9-3.4 2.6-3.1 2.8-5.8 6.3-7.8 9.9-4.5 8.1-5.6 17.1-4 26.1 0.5 2.6 1.3 5.1 1.8 7.7 0.2 0.9 1.5 6.7 0.4 1.2 0.3 1.6 0.3 3.4 0.4 5.1 0.1 2.8-0.1 5.6-0.2 8.4-0.2 5.4 1.2-4.4-0.1 0.8-0.3 1.3-0.6 2.7-0.9 4-0.4 1.3-0.7 2.6-1.2 3.9-0.1 0.2-2.2 5-0.7 2.1 1.5-3.1-1 1.8-1.1 2-0.8 1.5-1.7 3-2.7 4.5-2.1 3.2 0.5 1 0.4-0.4 0.1 0.5-2 2.3-2.4 2.7-1.4 1.5-3.9 4.8-5.9 5.5 0.3-0.1 4.1-2.8 0.7-0.7-1.3 0.8-2.5 1.7-3.8 2.5l-2.7 1.5c-1.1 0.6-6.8 4.3-2 1.1-0.8 0.5-2.2 0.8-3 1.1-2.3 0.8-5.7 0.6 0.2 0.8-3.8-0.1-7.6 1.2-10.9 2.9-1.5 1.1-2.9 2.2-4.4 3.4 2.6-2.1 2.9-2.4 1-1.1-6.7 4-12.4 10.5-15.9 17.3-2.4 4.6-3.6 8.9-4.3 14.2 1-8.2-0.6 2.3-0.9 3.9-1.2 7.6-2.1 15.2-2.5 22.9-0.7 11.8-0.4 23.7 1.1 35.5 1.7 14.4 3.6 29.4 14.6 39.9 6.5 6.3 14.7 9.3 23.6 10.2-0.6-0.1-6.1-1.5-2.4-0.1 1.3 0.5 2.7 0.8 4.1 1.2 0.8 0.3 1.7 0.7 2.6 1-5.7-1.4-0.7-0.2 1 0.7 0.9 0.5 5.1 3.8 5.6 3.6-0.3 0.1-4-3.5-1.2-0.8 1 0.9 2 1.8 3 2.8 1.3 1.3 4.1 3.5 4.7 5.2-0.5-0.7-1.1-1.4-1.6-2 0.4 0.6 0.9 1.2 1.3 1.8 1 1.5 2 3 2.9 4.5 0.5 0.9 1.1 1.9 1.6 2.8 0.5 0.9 3.4 5.4 0.6 0.8 1.3 2.1 1.9 5.4 2.5 7.7 0.3 1.3 0.5 2.7 0.8 4 0.7 3.2-0.1-5.3-0.1-0.1 0 2.9 0.7 6.9-0.2 9.8 1.5-4.8 0.1-1.5-0.2-0.1-0.3 1.3-0.7 2.7-1.1 4-1.2 3.9-2 6.8-2.4 11.1-0.7 7.8 1.5 16 5.6 22.8 6.8 11.2 19.6 20 30.1 27.4 9.8 6.9 20.3 12.6 31.2 17.4 10.3 4.5 21.4 9.9 32.9 9.2 7.7-0.5 15.3-2.7 21.8-7.1 3.5-2.4 6.1-4.8 8.9-7.8 1-1.1 2.2-2 3.2-3.1 3-3-3.5 2.2 0.3-0.3 2.1-1.4 4.2-2.7 6.4-3.9 0.5-0.2 0.9-0.5 1.4-0.7 2.1-1 1.8-0.9-0.9 0.3 0.4-0.4 2.5-0.9 2.9-1 2.5-0.8 5-1.4 7.6-1.9 5.2-1.1-4.8 0.2 0.6-0.1 1.6-0.1 3.3-0.2 4.9-0.2 0.5 0 4.3-0.2 4.5 0.2-0.2-0.3-4.5-0.9-1.2-0.2 2.5 0.6 4.9 1.1 7.3 1.9 0.5 0.2 1 0.3 1.4 0.5 2.2 0.9 1.9 0.7-0.9-0.4 1 0.1 2.6 1.3 3.5 1.8 2.6 1.4 5.1 3.1 7.5 4.7 4.5 3-3.1-3 0.9 0.8 1 1 2.2 1.9 3.2 2.9 3.1 2.9 6 5.6 9.5 8 7.1 4.9 15.9 7.2 24.5 6.4 8.4-0.8 15.7-4.5 23.3-8 5.8-2.7 11.4-5.5 17-8.6 10.1-5.6 19.7-11.9 28.9-18.9 3.2-2.4 6.2-4.9 9.4-7.4-5.9 4.6 3.6-2.7 5.2-4.5 6.2-7 9.6-15.9 9.9-25.3 0.1-3.7-0.5-7.6-1.4-11.2-0.6-2.4-2.3-5.8-1.9-8.3 0.1 0.8 0.2 1.5 0.3 2.3-0.1-1.1-0.2-2.3-0.3-3.4-0.1-1.4-0.1-2.8-0.2-4.2 0-1.4 0-2.8 0.1-4.2l0.3-3.3c-0.1 0.8-0.2 1.6-0.3 2.5-0.5-2.3 1.4-6.6 2.2-8.8 0.4-1.3 0.8-2.7 1.4-3.9-2.2 4.4-0.3 0.9 0.3-0.2 0.5-1 3-6.8 4.3-6.9 0.1 0-3.6 4-0.7 1 1.2-1.2 2.3-2.5 3.5-3.7 0.9-0.9 1.8-1.6 2.7-2.5 3.7-3.4-3.9 2.4 0.4-0.3 2.2-1.3 4.3-2.8 6.5-4 0.9-0.5 1.9-0.9 2.8-1.4 4.6-2.5-4.4 1.4 0.7-0.3 0.9-0.3 2.1-0.6 3-1.1 2.6-0.7 2-0.8-1.7-0.3 3.9 0 7.5-1 10.9-2.9 1.5-1.1 2.9-2.2 4.4-3.4-0.7 0.6-1.4 1.3-2.2 1.9 0.3 0.3 9.2-7 6.7-4.9 2.9-2.4 5-5.1 7.3-8.2 1.5-2 2.7-4 3.9-6.3 1.5-3.1 2.8-6 3.2-9.5 1.3-9.5-1 4.7 0.3-1.8 2.6-12.8 4.1-26.7 3.8-39.8-0.7-14.4-2.5-29.4-5.7-43.5-2.4-11-15.8-18.5-26.4-15-11.6 3.7-17.6 14.7-15 26.4 0.7 3.3 1.3 6.7 1.9 10.1 0.5 2.6-0.3-3.3 0.1 0.9l0.6 5.7c0.6 6.5 1.3 13 1.2 19.5-0.1 5.9-0.5 11.7-1.1 17.6-0.4 4.2 0.4-2.3 0 0.4-0.2 1.5-0.5 3-0.7 4.5-0.7 4-1.8 8.1-1.8 12.2 1-3.6 2-7.2 2.9-10.9-0.6 1.4-1.3 2.8-2.1 4.2-0.5 0.8-1 1.7-1.6 2.5 1.8-2.3 2.2-2.8 1.1-1.7-3.8 3 2-0.7 0.1 0.1-2.7 1.2-4.9 3.3-7.1 5.2 5.1-2.1 10.1-4.2 15.2-6.3-24.6 3.1-49.2 20.4-59.8 43-5.8 12.5-9.2 25.9-8.6 39.8 0.3 6.5 1.2 13.2 2.7 19.5 0.3 1.2 0.6 2.6 1 3.7 1 2.6 0-5.4-0.3-0.9 0.4-5.2 0.5-3.1 0.1-1.6-0.7 2.2-0.5 1.7 0.7-1.4-1 1.5-0.9 1.5 0.2 0 0.3-0.4 0.6-0.8 0.9-1.1-1.7 1.6-1.2 1.2 1.3-0.9-1.4 0.1-4.4 3.5-5.6 4.4-1 0.8-2.1 1.7-3.1 2.5-2.6 2.1 4.1-3.1-0.1 0.1-4.4 3.2-8.8 6.3-13.4 9.3-9.6 6.1-19.6 11.5-29.9 16.3-2.7 1.3-5.5 2.3-8.2 3.7 1.2-0.6 4.1-2.1 5.2-1.4-0.4 0-0.9 0-1.3 0.1-1.7 0-1.6 0 0.1 0.2 0.4 0.1 0.9 0.1 1.3 0.2-2.2-0.7-2-0.6 0.7 0.3-3.4-1-0.6 0.1 0.2 0.3-1.2-0.4-2.9-2.8-3.8-3.6-1.3-1.2-2.6-2.3-3.9-3.4-10-8.3-21.2-15.1-33.9-18.4-25.3-6.5-52.5 0.8-72 18-1.9 1.6-3.5 3.4-5.2 5.3-2.6 2.9-0.4 0.4 0.4-0.2-3.7 2.9 3.9-0.6-0.4 0.3-4.1 0.9 4.8 0.1 0.1 0-0.7 0-1.5-0.1-2.2 0-1.8 0.2 5.3 1.4 2.4 0-2.2-1-4.9-1.6-7.1-2.4-1.1-0.4-2.1-0.8-3.2-1.2-5.1-1.9 2.8 1.3-0.3-0.1-5.3-2.4-10.4-4.8-15.5-7.6-4.2-2.4-8.4-4.9-12.4-7.6-2.2-1.5-4.4-3.1-6.5-4.6-3.2-2.3 0.1 0.1 0.6 0.5-1.5-0.9-2.9-2.4-4.3-3.5-1.8-1.5-3.6-3.1-5.3-4.7-0.6-0.5-3.3-2.5-3.4-3.3 0-0.1 2.7 4.4 0.8 0.7 2.1 4.3 1.1 2.6 0.6 1.2-1.4-4.5 0.1 5 0.2 0.3 0 0.9-1.4 4.8 0 1.8 0.7-1.4 1.1-2.9 1.5-4.4 7.4-26.7-1.6-53.9-18.9-74.6-8.3-9.9-19.2-16.8-31.2-21.5-2.4-0.9-4.8-1.7-7.3-2.4-2.6-0.7-5-1-7.8-1.3-1.2-0.1 6.2 0.4 5.9 1.5 0.3-0.9-5-1.6-1.2-0.5 1.5 1.2 1.6 1.2 0.3-0.1 2 2.7 2.4 3.2 1.1 1.3-1.6-2.6 1.4 0.7 0.6 1.6 0 0-0.8-3.6-0.8-3.8-0.6-3-1.9-6.5-1.9-9.6 0 0.7 0.5 4.8 0.1 0.6-0.2-1.7-0.4-3.5-0.5-5.2-0.5-6.2-0.7-12.5-0.7-18.7 0-6.4 0.4-12.8 1.1-19.2 0.1-1.2 0.5-5.3 0-0.4 0.2-1.8 0.5-3.6 0.8-5.4 0.7-4 1.8-8.1 1.8-12.2-1 3.6-2 7.2-2.9 10.9 0.6-1.4 1.3-2.8 2.1-4.2 0.5-0.8 1-1.7 1.6-2.5-1.8 2.3-2.2 2.8-1.1 1.7 3.8-3-2 0.7-0.1-0.1 2.7-1.2 4.9-3.3 7.1-5.2-5.1 2.1-10.1 4.2-15.2 6.3 22.5-2.8 43.6-17.2 56-36.1 12.7-19.3 15.3-45 9.4-67-0.1-0.4-1.1-3.7-1-3.7 0.3-0.1 0.5 5.7 0.5 1.5 0 0.7-1.1 5 0 1.6-0.3 0.8-2.4 4-0.4 1.3-0.6 0.8-3.3 2.9-0.7 1-5.7 4.1 1.6-1.4 2.3-1.9 0.8-0.7 1.6-1.4 2.5-2 0.7-0.5 4.8-4.2 0.7-0.6 7-6 15.3-10.8 23.2-15.4 8.8-5.1 17.8-9.6 27.1-13.7 0.3-0.1 0.6-0.2 0.8-0.4 2.5-1.1 2.2-1-0.7 0.4 0.1 0.1 2.4-0.7 2.2-0.6-0.3 0.3-5.7 0.3-2.1 0.4 1.7 0 2.9 0.7-1.8-0.4 3.4 0.8-0.5-0.4-1.1-0.7 3.3 1.8 0.3-0.3-0.2-0.6 2.3 1.1 4.5 4.3 6.5 6 17.2 14.7 38.4 23.9 61.5 21.4 11.4-1.2 22.1-4 32.1-9.6 4.7-2.7 9.2-6.1 13.2-9.7 1.5-1.3 2.8-2.7 4.1-4.2 0.7-0.8 1.5-1.5 2.1-2.3 1.2-1.1 0.8-0.9-1 0.7 0.7-0.5 1.3-0.9 2-1.2 2.4-1.7-3.7 1.3-1 0.5 2.8-0.8-4.4 0.2-1.6 0.2 2.8 0-4.2-1.4-1.7-0.2 1.1 0.5 2.5 0.8 3.6 1.3 2.2 0.8 4.3 1.6 6.5 2.4 0.9 0.4 3.9 1.3-0.4-0.2 1.6 0.6 3.1 1.4 4.7 2.1 8.6 4 17 8.8 24.8 14.1l5.4 3.9c3.2 2.3 0.2 0-0.4-0.3 1.1 0.7 2.2 1.7 3.2 2.6 1.7 1.4 3.4 2.8 5 4.3 0.8 0.7 1.6 1.5 2.4 2.2 0.6 0.5 1.2 1.1 1.8 1.6 1.3 1.5 1.4 1.5 0.3 0.2-0.3-0.3-0.5-0.7-0.8-1 0.9 1.7 1 1.7 0.2 0-0.2-0.4-0.3-0.8-0.5-1.3 0.2 0.7 0.4 1.3 0.5 2 0.9 2.8-0.3-5.5-0.4-1 0-0.9 1.4-4.8 0-1.8-2.6 5.5-3.2 12.3-3.8 18.2-2.4 23.9 8.5 48.9 25.5 65.4 8.4 8.2 18.4 14 29.5 17.8 2.2 0.8 4.5 1.5 6.9 1.9 2 0.4 4.2 0.3 6.2 0.8-1.8 0.2-3.5-0.1-5.1-1-1.7-0.8-1.7-0.8-0.1 0.1 1.2 0.7 2.7 2.3-1.2-1 2.8 2.4-2-2.9-0.6-0.9 2.3 3.3-1.3 0.2-0.3-1.1-0.2 0.3 0.8 3.4 0.8 3.8 1.7 11.1 16.3 18.3 26.4 15 12.6-3.9 17.4-14.5 15.5-26.4z" p-id="68227"></path><path d="M933.7 719.2c11.2 0 22-9.9 21.5-21.5s-9.4-21.5-21.5-21.5c-11.2 0-22 9.9-21.5 21.5 0.5 11.7 9.5 21.5 21.5 21.5z" p-id="68228"></path></svg>