<?xml version="1.0" standalone="no"?><!DOCTYPE svg PUBLIC "-//W3C//DTD SVG 1.1//EN" "http://www.w3.org/Graphics/SVG/1.1/DTD/svg11.dtd"><svg t="1705544477987" class="icon" viewBox="0 0 1024 1024" version="1.1" xmlns="http://www.w3.org/2000/svg" p-id="37569" xmlns:xlink="http://www.w3.org/1999/xlink" width="200" height="200"><path d="M423.808 0C190.08 0 0 190.08 0 423.808s190.08 423.744 423.808 423.744 423.808-190.08 423.808-423.744S657.472 0 423.808 0z m0 782.4c-197.76 0-358.592-160.896-358.592-358.592s160.896-358.656 358.592-358.656 358.592 160.896 358.592 358.656-160.896 358.592-358.592 358.592zM995.456 857.152l-92.16-92.224a97.92 97.92 0 0 0-138.368 138.304l92.16 92.224c19.072 19.072 44.16 28.544 69.184 28.544s50.048-9.472 69.12-28.48v-0.064a98.048 98.048 0 0 0 0-138.304z m-46.08 92.16a32.704 32.704 0 0 1-46.08 0l-92.288-92.16a32.64 32.64 0 0 1 46.08-46.08l92.288 92.16a32.768 32.768 0 0 1 0 46.08z" p-id="37570"></path><path d="M675.776 389.248a32.64 32.64 0 0 0 32.576-32.576V289.6c0-36.48-28.736-66.176-64-66.176H203.84c-35.392 0-64.064 29.696-64.064 66.176v67.072c0 18.048 14.592 32.64 32.64 32.64 16.64 0 30.272 15.424 30.272 34.496s-13.632 34.496-30.336 34.496a32.64 32.64 0 0 0-32.64 32.64v67.072c0 36.48 28.8 66.112 64.128 66.112h440.384c35.328 0 64-29.632 64-66.112V490.88a32.64 32.64 0 0 0-32.512-32.64c-16.704 0-30.336-15.36-30.336-34.432s13.632-34.56 30.336-34.56z m-32.192 128.448l0.704 41.28-439.296-0.96v-40.512c36.736-13.952 62.912-50.688 62.912-93.696 0-43.2-26.432-80.128-63.36-93.888l-0.64-41.28h440.384l-1.152 41.408a99.712 99.712 0 0 0-62.912 93.76c0 43.2 26.496 80.064 63.36 93.888z" p-id="37571"></path><path d="M334.208 395.264H453.76a32.64 32.64 0 1 0 0-65.216H334.208a32.64 32.64 0 1 0 0 65.216zM513.92 452.288H334.272a32.64 32.64 0 1 0 0 65.152l179.776 0.064a32.64 32.64 0 1 0 0-65.216z" p-id="37572"></path></svg>