<?xml version="1.0" standalone="no"?><!DOCTYPE svg PUBLIC "-//W3C//DTD SVG 1.1//EN" "http://www.w3.org/Graphics/SVG/1.1/DTD/svg11.dtd"><svg t="1705544310847" class="icon" viewBox="0 0 1024 1024" version="1.1" xmlns="http://www.w3.org/2000/svg" p-id="34385" xmlns:xlink="http://www.w3.org/1999/xlink" width="200" height="200"><path d="M604 368.4h236.7c11.7 0 17.5-8.8 17.5-20.5s-5.8-20.5-17.5-20.5H604c-8.8 0-17.5 8.8-17.5 20.5s5.8 20.5 17.5 20.5zM604 514.5h116.9c11.7 0 20.5-8.8 17.5-20.5 0-11.7-5.8-20.5-17.5-20.5H604c-8.8 0-17.5 8.8-17.5 20.5s5.8 20.5 17.5 20.5z"  p-id="34386"></path><path d="M983.9 672.5V163.9c0-76-61.4-140.3-140.3-140.3h-46.8c-14.6 0-29.2 11.7-29.2 29.2 0 26.3-20.5 43.8-43.8 43.8-26.3 0-43.8-20.5-43.8-43.8 0-14.6-11.7-29.2-29.2-29.2h-87.7c-14.6 0-29.2 11.7-29.2 29.2 0 26.3-20.5 43.8-43.8 43.8-26.3 0-43.8-20.5-43.8-43.8 0-14.6-11.7-29.2-29.2-29.2h-87.7c-14.6 0-29.2 11.7-29.2 29.2 0 26.3-20.5 43.8-43.8 43.8s-43.8-20.5-43.8-43.8c0-14.6-11.7-29.2-29.2-29.2h-35.1C72.2 23.6 7.9 85 7.9 163.9v683.7c0 76 61.4 140.3 140.3 140.3h573c24.3 9.4 50.8 14.6 78.5 14.6 119.8 0 216.2-96.4 216.2-216.2 0.1-41.9-11.7-80.8-32-113.8zM639.1 932.3H148.2c-46.8 0-84.7-38-84.7-84.7V163.9c0-46.8 38-84.7 84.7-84.7h11.7c11.7 40.9 49.7 73 96.4 73s84.7-32.1 96.4-73h40.9c11.7 40.9 49.7 73 96.4 73 46.8 0 84.7-32.1 96.4-73h40.9c11.7 40.9 49.7 73 96.4 73 46.8 0 84.7-32.1 96.4-73h23.4c46.8 0 84.7 38 84.7 84.7V611c13.4 10 24.8 21 35 33.5-39.6-45.7-98.1-74.5-163.5-74.5-119.8 0-216.2 96.4-216.2 216.2 0 63.1 26.7 119.6 69.5 159.1-4.8-4.2-9.5-8.5-13.9-13zM799.8 944c-87.7 0-160.7-73-160.7-160.7s73-160.7 160.7-160.7c90.6 0 160.7 73 160.7 160.7S887.4 944 799.8 944z" p-id="34387"></path><path d="M817.3 675.2h-35.1v32.1h-76v140.3h32.1v-11.7h43.8v58.4h35.1v-58.4H861v11.7h35.1V707.3h-78.9v-32.1z m-35.1 128.6h-43.8v-17.5h43.8v17.5z m0-46.8h-43.8v-17.5h43.8V757z m78.9 46.8h-43.8v-17.5h43.8v17.5z m0-64.3V757h-43.8v-17.5h43.8zM478.4 342.1H420v-64.3c0-17.5-11.7-29.2-29.2-29.2H215.4c-17.5 0-29.2 11.7-29.2 29.2v64.3h-58.4c-17.5 0-29.2 11.7-29.2 29.2v131.5c0 17.5 11.7 29.2 29.2 29.2h58.4v128.6c0 17.5 11.7 29.2 29.2 29.2h175.3c17.5 0 29.2-14.6 29.2-29.2V532h58.4c17.5 0 29.2-11.7 29.2-29.2V371.3c0.1-17.5-11.6-29.2-29.1-29.2zM244.6 307h116.9v35.1H244.6V307z m116.9 324.4H244.6V470.7h116.9v160.7z m87.6-157.8h-29.2v-32.1c0-17.5-11.7-29.2-29.2-29.2H215.4c-17.5 0-29.2 11.7-29.2 29.2v32.1H157v-73h292.2v73z" p-id="34388"></path><path d="M323.5 488.2h-43.8c-17.5 0-29.2 11.7-29.2 29.2s11.7 29.2 29.2 29.2h43.8c17.5 0 29.2-11.7 29.2-29.2s-11.7-29.2-29.2-29.2zM323.5 555.4h-43.8c-17.5 0-29.2 11.7-29.2 29.2s11.7 29.2 29.2 29.2h43.8c17.5 0 29.2-11.7 29.2-29.2s-11.7-29.2-29.2-29.2z"  p-id="34389"></path></svg>