<?xml version="1.0" standalone="no"?><!DOCTYPE svg PUBLIC "-//W3C//DTD SVG 1.1//EN" "http://www.w3.org/Graphics/SVG/1.1/DTD/svg11.dtd"><svg t="1705544533583" class="icon" viewBox="0 0 1024 1024" version="1.1" xmlns="http://www.w3.org/2000/svg" p-id="38683" xmlns:xlink="http://www.w3.org/1999/xlink" width="200" height="200"><path d="M573.44 467.968h275.456v41.984H573.44v-41.984m0 0M573.44 384h275.456v41.984H573.44V384m0 0M172.544 574.976H486.4v33.792H355.328v33.792c0 10.752-2.56 18.432-7.68 24.064s-13.312 8.704-24.064 9.216c-10.752 0.512-26.112 1.024-45.568 1.024-2.56-13.824-5.632-25.6-8.192-35.328 11.776 0.512 22.528 1.024 31.744 1.024 7.168 0 11.264-4.608 11.264-13.824v-19.968H260.096l19.968 27.136-87.04 39.936c-7.68-12.8-14.848-24.576-22.528-34.816 18.432-5.12 45.568-15.872 81.408-32.256H171.52v-33.792z m18.944-144.384h77.824v-19.456H180.736v-32.768h296.96v32.768H389.12v19.456h78.336v82.432H191.488V430.592z m3.072 97.28h269.312v31.232H194.56v-31.232z m37.888-45.568h37.376V460.8h-37.376v21.504z m78.336-51.712H348.16v-19.456h-37.376v19.456z m0 51.712H348.16V460.8h-37.376v21.504z m82.944 127.488c26.624 9.216 56.32 19.456 89.6 31.744l-18.432 33.28c-25.088-10.752-54.784-22.528-88.576-34.816l17.408-30.208z m33.28-127.488V460.8H389.12v22.016h37.888z" p-id="38684" fill="#ffffff"></path><path d="M133.632 833.024c-41.984 0-76.288-34.304-76.288-76.288V307.712c0-41.984 34.304-76.288 76.288-76.288h752.64c43.008 0 79.36 34.816 79.36 76.288V512h-52.224V307.712c0-13.824-14.336-24.064-27.136-24.064h-752.64c-13.312 0-24.064 10.752-24.064 24.064v449.024c0 13.312 10.752 24.064 24.064 24.064H512v52.224H133.632z" p-id="38685" fill="#ffffff"></path><path d="M506.88 785.92H133.632c-16.384 0-29.184-13.312-29.184-29.184V307.712c0-16.384 13.312-29.184 29.184-29.184h752.64c16.384 0 32.256 13.312 32.256 29.184V506.88h41.984V307.712c0-39.424-34.816-71.168-74.24-71.168h-752.64c-39.424 0-71.168 31.744-71.168 71.168v449.024c0 39.424 31.744 71.168 71.168 71.168H506.88v-41.984z" p-id="38686" fill="#ffffff"></path><path d="M931.328 688.64l-18.432-4.096c-0.512-1.024-0.512-1.536-1.024-2.56l10.24-16.896c12.8-19.968 11.264-43.52-2.56-57.856l-16.384-16.384c-14.848-14.848-42.496-14.848-58.368-3.584l-16.384 10.24c-0.512-0.512-1.536-0.512-2.048-1.024l-4.096-17.92c-3.584-19.456-19.968-39.424-44.544-39.424h-23.04c-20.48 0-37.376 15.36-42.496 38.4l-4.608 18.944c-1.536 0.512-2.56 1.024-3.584 1.536l-16.384-10.24c-17.92-12.288-44.544-11.264-59.392 3.072l-16.384 16.384c-14.336 14.336-15.36 37.376-3.072 57.344l11.264 18.944c0 0.512-0.512 0.512-0.512 1.024l-17.92 4.096c-19.456 3.584-39.424 19.968-39.424 44.544v23.04c0 20.48 15.36 37.376 38.4 43.008l19.456 4.608-10.752 18.432c-12.8 19.968-11.264 43.52 3.072 57.856l16.384 16.384c14.848 14.848 42.496 15.36 58.88 3.584l16.896-10.752c1.536 0.512 2.56 1.024 4.096 1.536l4.608 18.432c5.12 23.04 22.528 38.912 43.008 38.912h23.04c24.064 0 40.96-20.48 44.032-38.912l4.096-18.944c0.512 0 1.024-0.512 1.536-0.512l15.872 10.24c17.92 12.288 44.544 11.264 59.392-3.584l16.384-16.384c14.336-14.336 15.36-37.376 3.072-57.344l-10.24-17.408c0-0.512 0.512-1.024 0.512-1.536l18.944-4.608c23.04-5.12 38.912-22.528 38.912-43.008v-23.04c-1.536-24.576-22.016-40.96-40.448-44.544z m-30.72 68.608l-25.6 6.656c-6.144 1.536-10.752 6.144-12.288 11.776-1.536 5.12-3.584 9.728-6.144 14.336-2.56 5.632-2.56 11.776 0.512 16.896l13.824 23.552c2.048 3.072 2.048 6.144 2.56 6.144l-15.36 14.336c-2.048 0-3.584-0.512-5.12-2.048l-22.528-14.336c-5.12-3.072-11.776-3.584-17.408-1.024-5.12 2.56-10.24 4.608-15.36 6.656-6.144 2.048-10.24 6.656-11.776 12.8l-5.632 26.624c-0.512 2.56-2.56 5.12-3.584 5.12h-19.456c-0.512-0.512-2.56-2.56-3.072-6.656l-6.144-25.6c-1.536-6.144-6.144-10.752-11.776-12.8-5.632-1.536-10.752-4.096-16.384-6.656-2.56-1.536-5.632-2.048-8.192-2.048-3.584-0.512-6.656 0.512-9.728 2.56l-23.552 14.848c-1.024 0.512-3.072 1.536-6.144 1.024l-13.824-13.312c0-1.024 0-3.584 2.048-7.168l14.336-24.064c3.072-5.12 3.072-11.264 0.512-16.896-2.048-4.608-4.096-9.216-5.632-13.312-2.048-5.632-6.656-10.24-12.288-11.776l-26.112-6.656c-3.584-1.024-6.144-2.56-6.144-2.56v-19.968c0-1.024 2.56-3.072 6.144-3.584l25.6-5.632c6.144-1.536 11.264-6.144 12.8-11.776 1.536-4.608 3.072-9.216 6.144-14.336 2.56-5.632 2.56-11.776-0.512-16.896l-14.848-24.576c-2.048-3.072-2.048-6.144-2.56-6.144l15.36-14.336c2.048 0 3.584 0.512 5.12 2.048l23.04 14.848c5.12 3.584 12.288 3.584 17.92 0.512 5.12-2.56 10.752-5.12 16.384-6.656 5.632-2.048 10.24-6.656 11.776-12.288l6.656-25.6c1.024-3.584 2.56-5.632 2.56-6.144h19.968c1.024 0 3.072 2.56 3.584 6.144l5.632 25.6c1.536 6.144 5.632 10.752 11.776 12.8 5.12 1.536 10.752 4.096 15.36 6.656 5.632 3.072 12.288 2.56 17.408-1.024l23.04-14.848c1.024-0.512 3.072-1.536 6.144-1.024l13.824 13.312c0 1.024 0 3.584-2.048 7.168l-13.824 23.04c-3.072 5.12-3.072 11.776-0.512 16.896s4.608 10.24 6.656 15.36c2.048 6.144 6.656 10.752 12.8 11.776l26.112 5.632c2.56 0.512 5.12 2.56 5.12 3.584v19.456c-0.512 1.024-3.072 2.56-7.168 3.584z" p-id="38687" fill="#ffffff"></path><path d="M734.72 743.424c0 17.408 14.336 31.744 31.744 31.744 17.408 0 31.744-14.336 31.744-31.744 0-17.408-14.336-31.744-31.744-31.744s-31.744 14.336-31.744 31.744z" p-id="38688" fill="#ffffff"></path></svg>
