<?xml version="1.0" standalone="no"?><!DOCTYPE svg PUBLIC "-//W3C//DTD SVG 1.1//EN" "http://www.w3.org/Graphics/SVG/1.1/DTD/svg11.dtd"><svg t="1705544286505" class="icon" viewBox="0 0 1024 1024" version="1.1" xmlns="http://www.w3.org/2000/svg" p-id="34214" xmlns:xlink="http://www.w3.org/1999/xlink" width="200" height="200"><path d="M736 760.896h-448a24.896 24.896 0 1 0 0 49.856h448a24.896 24.896 0 0 0 0-49.856zM636.416 561.792a24.896 24.896 0 1 0 0-49.792H387.584a24.896 24.896 0 1 0 0 49.792h248.832zM736 263.104h-448a24.896 24.896 0 1 0 0 49.792h448a24.896 24.896 0 1 0 0-49.792z" p-id="34215"></path><path d="M810.688 64H213.312C130.88 64 64 132.8 64 217.6V362.688a149.312 149.312 0 1 1 0 298.624v145.152C64 891.264 130.88 960 213.312 960h597.312C893.12 960 960 891.264 960 806.528v-145.152a149.376 149.376 0 0 1 0-298.688V217.6C960 132.8 893.12 64 810.688 64z m-49.792 448c0 92.672 63.68 169.92 149.504 192.128h-0.128v102.4c0 56.512-44.608 102.4-99.584 102.4H213.312c-54.976 0-99.584-45.888-99.584-102.4v-102.4h-0.128C199.424 681.92 263.104 604.672 263.104 512s-63.616-169.856-149.312-192.064V217.6c0-56.576 44.544-102.4 99.584-102.4h597.312c54.912 0 99.584 45.824 99.584 102.4v102.272A198.784 198.784 0 0 0 760.896 512z" p-id="34216" ></path></svg>