<?xml version="1.0" standalone="no"?><!DOCTYPE svg PUBLIC "-//W3C//DTD SVG 1.1//EN" "http://www.w3.org/Graphics/SVG/1.1/DTD/svg11.dtd"><svg t="1706073922361" class="icon" viewBox="0 0 1024 1024" version="1.1" xmlns="http://www.w3.org/2000/svg" p-id="9799" xmlns:xlink="http://www.w3.org/1999/xlink" width="200" height="200"><path d="M256 256a32 32 0 0 1 32-32h192a32 32 0 0 1 32 32v192a32 32 0 0 1-32 32H288a32 32 0 0 1-32-32V256z m64 160h128V288h-128v128zM416 640a32 32 0 0 1 32-32h288a32 32 0 1 1 0 64h-288a32 32 0 0 1-32-32zM448 736a32 32 0 1 0 0 64h288a32 32 0 1 0 0-64h-288zM576 288a32 32 0 0 1 32-32h128a32 32 0 1 1 0 64h-128a32 32 0 0 1-32-32zM608 384a32 32 0 1 0 0 64h128a32 32 0 1 0 0-64h-128zM256 640a32 32 0 0 1 32-32h32a32 32 0 1 1 0 64H288a32 32 0 0 1-32-32zM288 736a32 32 0 1 0 0 64h32a32 32 0 1 0 0-64H288z" fill="#000000" p-id="9800"></path><path d="M128 160v704a96 96 0 0 0 96 96h576a96 96 0 0 0 96-96V160a96 96 0 0 0-96-96H224a96 96 0 0 0-96 96z m96-32h576a32 32 0 0 1 32 32v704a32 32 0 0 1-32 32H224a32 32 0 0 1-32-32V160a32 32 0 0 1 32-32z" fill="#000000" p-id="9801"></path></svg>