<?xml version="1.0" standalone="no"?><!DOCTYPE svg PUBLIC "-//W3C//DTD SVG 1.1//EN" "http://www.w3.org/Graphics/SVG/1.1/DTD/svg11.dtd"><svg t="1705544421440" class="icon" viewBox="0 0 1024 1024" version="1.1" xmlns="http://www.w3.org/2000/svg" p-id="36362" xmlns:xlink="http://www.w3.org/1999/xlink" width="200" height="200"><path d="M665.386667 108.224l98.56 46.72a42.666667 42.666667 0 0 0 36.544 0l86.378666-40.938667A21.333333 21.333333 0 0 1 917.333333 133.290667v743.253333a21.333333 21.333333 0 0 1-30.464 19.264l-86.4-40.917333a42.666667 42.666667 0 0 0-36.522666 0l-98.56 46.72a42.666667 42.666667 0 0 1-36.544 0l-98.56-46.72a42.666667 42.666667 0 0 0-36.544 0l-98.581334 46.72a42.666667 42.666667 0 0 1-36.544 0l-98.56-46.72a42.666667 42.666667 0 0 0-36.544 0l-86.378666 40.917333A21.333333 21.333333 0 0 1 106.666667 876.522667V133.269333a21.333333 21.333333 0 0 1 30.464-19.264l86.4 40.917334a42.666667 42.666667 0 0 0 36.522666 0l98.56-46.698667a42.666667 42.666667 0 0 1 36.544 0l98.56 46.72a42.666667 42.666667 0 0 0 36.544 0l98.581334-46.72a42.666667 42.666667 0 0 1 36.544 0z m29.12 443.562667l-117.482667 117.482666a21.333333 21.333333 0 0 0 0 30.165334l117.504 117.504 44.16-44.181334-57.109333-57.173333 150.805333 0.021333v-62.506666H681.6l57.088-57.109334-44.181333-44.202666zM576 419.584H234.666667v64h341.333333v-64z m170.666667-170.666667H234.666667v64h512v-64z"  p-id="36363"></path></svg>