<?xml version="1.0" standalone="no"?><!DOCTYPE svg PUBLIC "-//W3C//DTD SVG 1.1//EN" "http://www.w3.org/Graphics/SVG/1.1/DTD/svg11.dtd"><svg t="1705542002865" class="icon" viewBox="0 0 1024 1024" version="1.1" xmlns="http://www.w3.org/2000/svg" p-id="5195" xmlns:xlink="http://www.w3.org/1999/xlink" width="200" height="200"><path d="M895.555629 489.718531v149.427264l119.622448-75.260078zM861.210403 778.282692V347.549577c-0.057305-25.086351-20.59813-45.6282-45.685505-45.6282H54.174853c-25.086351 0-45.570895 20.540825-45.570894 45.570895V778.282692c0 50.115398 41.025369 91.198072 91.198071 91.198072H770.011308c50.173726 0.001023 91.199095-41.024345 91.199095-91.198072zM627.349121 491.303632h174.298722v15.802918h-64.368007v170.116469H691.718151V507.107573h-64.368006v-15.803941z m-196.356086 0h29.115108l106.015545 118.288057V491.303632h28.592199v188.794877h-19.718088L459.846176 549.538965v127.685077h-28.853141V491.303632z m-176.648233 0h138.783857v15.802918h-93.218078v61.359486h77.4213v15.930831h-77.4213v73.765027h93.218078v19.061125H254.344802V491.303632z m-186.178283 0h69.850881c12.010545 0 22.542412 1.2689 31.594579 3.787256 9.052167 2.530636 16.581654 6.055926 22.586414 10.57587 6.005784 4.526083 10.509355 9.881045 13.511736 16.058744 3.00238 6.183839 4.503571 12.928451 4.50357 20.240997 0 5.220908-1.023306 10.206456-3.066849 14.94948-2.046612 4.743024-4.940522 9.097192-8.682753 13.05534-3.742231 3.959172-8.223289 7.484462-13.44829 10.57587-5.220908 3.085268-11.012821 5.635347-17.362436 7.636934l66.191538 89.039919H184.362938l-62.534242-84.214007h-8.096398v84.214007H68.166519V491.303632z" fill="" p-id="5196"></path><path d="M139.126664 574.605873c4.743024-1.568728 8.854669-3.805676 12.335956-6.725168 3.481288-2.913353 6.221702-6.483668 8.227382-10.703783 2.001587-4.220115 3.00238-8.988722 3.002381-14.299681 0-4.869914-0.76134-9.351995-2.285043-13.44522-1.523703-4.092201-3.63376-7.636934-6.330172-10.639314a28.208459 28.208459 0 0 0-9.597589-6.987135c-3.700275-1.651616-7.767917-2.479471-12.208043-2.479471h-18.538215v67.626213h9.923c5.566786-0.001023 10.724249-0.784876 15.470343-2.346441zM510.189771 235.691977h339.824639c1.249457 0 2.27174-1.022283 2.27174-2.27174v-67.955718c0-1.249457-1.022283-2.27174-2.27174-2.27174H510.189771c-1.249457 0-2.27174 1.022283-2.271739 2.27174v67.955718c0.001023 1.249457 1.023306 2.27174 2.271739 2.27174zM18.23634 235.691977h339.824639c1.249457 0 2.27174-1.022283 2.271739-2.27174v-67.955718c0-1.249457-1.022283-2.27174-2.271739-2.27174H18.23634c-1.249457 0-2.27174 1.022283-2.27174 2.27174v67.955718c0 1.249457 1.022283 2.27174 2.27174 2.27174z" fill="" p-id="5197"></path><path d="M434.125375 200.73686m-34.955116 0a34.955116 34.955116 0 1 0 69.910232 0 34.955116 34.955116 0 1 0-69.910232 0Z" fill="" p-id="5198"></path></svg>