<?xml version="1.0" standalone="no"?><!DOCTYPE svg PUBLIC "-//W3C//DTD SVG 1.1//EN" "http://www.w3.org/Graphics/SVG/1.1/DTD/svg11.dtd"><svg t="1706073304205" class="icon" viewBox="0 0 1024 1024" version="1.1" xmlns="http://www.w3.org/2000/svg" p-id="1448" xmlns:xlink="http://www.w3.org/1999/xlink" width="200" height="200"><path d="M489.404 666.07c-1.6-1.8-5.598-6.199-8.998-9.998l-43.391-45.991c-3.4-3.6-7.199-7.199-8.199-8.199-0.4-0.4-1.2-0.8-2.2-0.8-3.199 0-7.998 4-9.397 5.2l-1.4 1.2c-1 1-1.8 1.2-2.2 1.2 0 0-0.2 0-0.2-0.2-0.2-0.2-0.4-0.8-0.4-2.4v-26.795c0-3.8 3-6.799 6.799-6.799h53.19c6.398 0 11.597-5.199 11.597-11.598v-23.595c0-6.399-5.199-11.598-11.597-11.598h-53.19c-3.8 0-6.799-3-6.799-6.798v-46.391c0-3.6 0.6-6.2 1-7.199 2-0.2 6.599-0.6 10.998-1l39.992-3.799c5-0.4 10.398-1 11.998-1.2 1 0 1.8-0.6 2.4-1.4 1.999-2.799 0.8-8.798 0.4-10.597l-6.2-26.395c-1-3.8-2.999-10.398-6.598-10.398h-0.4c-1.2 0.2-6.199 0.8-11.198 1.4L311.64 425.117c-4.999 0.4-10.398 0.8-12.197 0.8-1.4 0-2.8 0.8-3.6 2-0.8 1.2-1.2 2.599-0.8 3.999 0.4 1.6 1.6 6.798 2.8 11.797l3 14.597c0.8 4.8 1.799 9.999 1.999 11.198 0.4 2.4 2.4 4.2 4.799 4.2h0.4c1.2 0 6.399-0.4 11.398-0.8l32.793-2.4c4.6-0.4 9.598-0.8 11.598-0.8 0.4 0.8 1.2 3.2 1.2 6.599v42.992c0 3.799-3 6.798-6.799 6.798h-55.39c-6.398 0-11.597 5.2-11.597 11.598v23.595c0 6.4 5.2 11.598 11.598 11.598h48.19c3.2 0 5 0.8 5.6 1.2-10.999 44.991-66.588 139.373-67.188 140.172-1 1.4-1.2 3.2-0.4 4.8 0.4 0.8 2.2 4.999 4 9.598l8.798 21.795c1.8 4.6 4.2 10.398 5 12.798 0.799 2.2 2.399 3.4 4.398 3.4 1.6 0 3-0.8 4-2.4 1.4-2 4.998-7.199 7.798-11.598l31.394-53.99c2.4-4.599 5.999-11.997 8.198-16.596l2.4-5v159.57c0 6.398 5.199 11.597 11.597 11.597h24.996c6.398 0 11.597-5.199 11.597-11.597V653.472c0-1.2 0.2-2 0.4-2.4 0.2 0.2 0.4 0.2 0.6 0.6 2.6 3 7.599 8.799 10.798 12.598l21.596 26.195c3.2 4 6.399 7.999 7.398 9.198 0.4 0.4 1.2 1.2 2.8 1.2 3.4 0 7.798-3.8 9.198-4.799l19.596-16.797c3.2-2.8 5.4-6.198 5.6-8.998-0.6-2.4-1.2-3.4-1.8-4.2z m-76.185-59.588z" fill="" p-id="1449"></path><path d="M757.152 785.447h-20.596c-3.8 0-6.799-3-6.799-6.8V431.117c0-6.399-5.199-11.598-11.597-11.598H519.399c-6.4 0-11.598 5.199-11.598 11.598v347.332c0 3.8-3 6.799-6.799 6.799H465.01c-6.399 0-11.598 5.199-11.598 11.597v23.596c0 6.399 5.2 11.597 11.598 11.597h292.143c6.399 0 11.598-5.198 11.598-11.597v-23.596c-0.2-6.198-5.4-11.397-11.598-11.397z m-77.385-6.8c0 3.8-3 6.8-6.798 6.8h-108.58c-3.798 0-6.798-3-6.798-6.8V715.86c0-3.8 3-6.798 6.799-6.798h108.579c3.799 0 6.798 2.999 6.798 6.798v62.788z m0-122.775c0 3.8-3 6.799-6.798 6.799h-108.58c-3.798 0-6.798-3-6.798-6.8v-61.387c0-3.8 3-6.799 6.799-6.799h108.579c3.799 0 6.798 3 6.798 6.799v61.388z m0-121.376c0 3.799-3 6.798-6.798 6.798h-108.58c-3.798 0-6.798-3-6.798-6.798v-61.388c0-3.8 3-6.8 6.799-6.8h108.579c3.799 0 6.798 3 6.798 6.8v61.388z" fill="" p-id="1450"></path><path d="M958.913 169.167c-8.999-8.798-20.796-13.597-33.394-13.597H735.156l-2.799-10.998c-5.799-23.196-28.794-40.592-52.99-40.592h-53.79l-0.999-0.2c-4-0.8-8.198-4.2-9.998-7.599l-0.4-1-13.797-53.989C594.383 17.996 571.588 0.6 547.393 0.6h-52.99c-24.395 0-47.19 17.396-52.99 40.592l-13.797 53.99-0.4 1c-1.8 3.399-5.998 6.798-9.997 7.598l-1 0.2h-54.19c-24.395 0-47.19 17.396-52.99 40.592l-2.799 11.198H115.677c-25.995 0-47.39 20.796-47.39 46.39v775.45c0 25.594 21.196 46.39 47.39 46.39H925.52c25.995 0 47.191-20.796 47.191-46.39V201.96c0.2-12.397-4.799-24.195-13.797-32.793zM302.24 232.955c7.798 9.598 19.796 15.197 33.193 15.197h370.328c13.398 0 25.395-5.6 33.194-15.197 5.999-7.4 8.798-16.797 8.398-26.795l-0.4-9.798h184.364v786.246h-821.24V196.562h184.364l-0.4 9.798c-0.6 9.798 2.4 19.196 8.199 26.595z m36.793-28.595l11.997-52.99h52.79c32.994 0 62.388-21.995 69.986-51.99l15.397-54.989h62.588l13.997 51.79c7.799 30.594 37.993 53.59 69.987 53.59h52.79l13.397 54.39h-362.93z" fill="" p-id="1451"></path></svg>