<?xml version="1.0" standalone="no"?><!DOCTYPE svg PUBLIC "-//W3C//DTD SVG 1.1//EN" "http://www.w3.org/Graphics/SVG/1.1/DTD/svg11.dtd"><svg t="1702881628372" class="icon" viewBox="0 0 1024 1024" version="1.1" xmlns="http://www.w3.org/2000/svg" p-id="4416" xmlns:xlink="http://www.w3.org/1999/xlink" width="128" height="128"><path d="M512 571.61c-7.14 0-14.28-2.54-19.97-7.62L121.51 233.47c-12.36-11.03-13.45-29.99-2.41-42.35 11.02-12.36 29.99-13.45 42.35-2.41L512 501.4l350.55-312.69c12.34-11.06 31.35-9.95 42.34 2.41 11.04 12.36 9.96 31.33-2.42 42.35l-370.5 330.51a29.876 29.876 0 0 1-19.97 7.63z" p-id="4417"></path><path d="M812 872H212c-71.68 0-130-58.32-130-130V282c0-71.68 58.32-130 130-130h600c71.68 0 130 58.32 130 130v460c0 71.68-58.32 130-130 130zM212 212c-38.59 0-70 31.41-70 70v460c0 38.59 31.41 70 70 70h600c38.59 0 70-31.41 70-70V282c0-38.59-31.41-70-70-70H212z" p-id="4418"></path></svg>