<?xml version="1.0" standalone="no"?><!DOCTYPE svg PUBLIC "-//W3C//DTD SVG 1.1//EN" "http://www.w3.org/Graphics/SVG/1.1/DTD/svg11.dtd"><svg t="1703062731812" class="icon" viewBox="0 0 1025 1024" version="1.1" xmlns="http://www.w3.org/2000/svg" p-id="1527" xmlns:xlink="http://www.w3.org/1999/xlink" width="128.125" height="128"><path d="M934.4 788.48c0-1.28 0-1.28-1.28-2.56 0-1.28 0-1.28-1.28-2.56 0-1.28-1.28-1.28-1.28-2.56s-1.28-1.28-1.28-2.56-1.28-1.28-1.28-2.56l-1.28-1.28-3.84-3.84H921.6c-1.28-1.28-2.56-1.28-3.84-1.28-1.28 0-1.28 0-2.56-1.28h-110.08c-14.08 0-25.6 11.52-25.6 25.6s11.52 25.6 25.6 25.6h49.92c-5.12 6.4-11.52 12.8-17.92 19.2-17.92 17.92-40.96 37.12-67.84 56.32-24.32 16.64-48.64 29.44-78.08 42.24-30.72 12.8-58.88 21.76-85.76 26.88-66.56 12.8-120.32 12.8-186.88 0-32-7.68-60.16-16.64-85.76-26.88-33.28-14.08-57.6-28.16-79.36-42.24-23.04-15.36-46.08-33.28-67.84-55.04-17.92-17.92-37.12-40.96-56.32-67.84-16.64-24.32-29.44-48.64-42.24-79.36-11.52-25.6-20.48-53.76-26.88-85.76-5.12-33.28-8.96-65.28-8.96-94.72 0-14.08-11.52-25.6-25.6-25.6s-25.6 11.52-25.6 25.6c0 33.28 3.84 67.84 10.24 103.68 7.68 35.84 16.64 66.56 29.44 96 14.08 33.28 29.44 60.16 47.36 87.04 20.48 29.44 40.96 55.04 61.44 75.52 24.32 24.32 49.92 46.08 75.52 61.44 24.32 16.64 51.2 30.72 87.04 47.36 29.44 12.8 60.16 21.76 96 29.44 37.12 7.68 69.12 10.24 103.68 10.24s66.56-3.84 103.68-10.24c30.72-6.4 62.72-15.36 96-29.44 33.28-14.08 60.16-29.44 87.04-47.36 29.44-20.48 55.04-40.96 75.52-61.44l8.96-8.96V896c0 14.08 11.52 25.6 25.6 25.6s25.6-11.52 25.6-25.6v-102.4c1.28-1.28 1.28-3.84 1.28-5.12zM1013.76 408.32c-7.68-35.84-16.64-66.56-29.44-96-15.36-37.12-30.72-64-47.36-87.04-16.64-25.6-37.12-51.2-62.72-75.52-20.48-20.48-44.8-40.96-75.52-62.72-26.88-17.92-53.76-33.28-87.04-47.36-29.44-12.8-60.16-21.76-96-29.44C579.84 3.84 545.28 0 512 0c-33.28 0-67.84 3.84-103.68 10.24-35.84 7.68-66.56 16.64-96 29.44-37.12 15.36-64 30.72-87.04 47.36-25.6 16.64-51.2 37.12-75.52 62.72l-8.96 8.96V128c0-14.08-11.52-25.6-25.6-25.6s-25.6 11.52-25.6 25.6V234.24c0 1.28 0 1.28 1.28 2.56 0 1.28 0 1.28 1.28 2.56 0 1.28 1.28 1.28 1.28 2.56s1.28 1.28 1.28 2.56 1.28 1.28 1.28 2.56l1.28 1.28 2.56 2.56 1.28 1.28c1.28 1.28 2.56 1.28 2.56 1.28s1.28 0 1.28 1.28c1.28 0 1.28 0 2.56 1.28 1.28 0 1.28 0 2.56 1.28H217.6c14.08 0 25.6-11.52 25.6-25.6s-11.52-25.6-25.6-25.6h-49.92c6.4-6.4 11.52-12.8 17.92-19.2 21.76-21.76 44.8-40.96 67.84-56.32C275.2 115.2 299.52 102.4 332.8 87.04c25.6-11.52 53.76-20.48 85.76-26.88 32-5.12 64-8.96 93.44-8.96s61.44 3.84 93.44 10.24S665.6 76.8 691.2 87.04c29.44 12.8 55.04 26.88 79.36 42.24 26.88 19.2 49.92 37.12 67.84 56.32 21.76 21.76 40.96 44.8 56.32 67.84 15.36 20.48 28.16 44.8 42.24 79.36 11.52 25.6 20.48 53.76 26.88 85.76 6.4 33.28 10.24 62.72 10.24 93.44 0 14.08 11.52 25.6 25.6 25.6s25.6-11.52 25.6-25.6c-1.28-34.56-5.12-66.56-11.52-103.68z" p-id="1528"></path><path d="M556.8 234.24c-6.4-5.12-15.36-6.4-24.32-2.56L320 314.88c-10.24 3.84-16.64 12.8-16.64 24.32V691.2H294.4c-14.08 0-25.6 11.52-25.6 25.6s11.52 25.6 25.6 25.6h435.2c14.08 0 25.6-11.52 25.6-25.6s-11.52-25.6-25.6-25.6h-10.24V407.04c0-14.08-11.52-25.6-25.6-25.6h-125.44V256c0-8.96-3.84-16.64-11.52-21.76z m111.36 198.4V691.2H355.84V357.12L517.12 294.4V591.36c0 14.08 11.52 25.6 25.6 25.6s25.6-11.52 25.6-25.6V432.64h99.84z" p-id="1529"></path><path d="M453.12 431.36h-33.28c-14.08 0-25.6 11.52-25.6 25.6s11.52 25.6 25.6 25.6h33.28c14.08 0 25.6-11.52 25.6-25.6s-11.52-25.6-25.6-25.6zM453.12 533.76h-33.28c-14.08 0-25.6 11.52-25.6 25.6s11.52 25.6 25.6 25.6h33.28c14.08 0 25.6-11.52 25.6-25.6s-11.52-25.6-25.6-25.6z" p-id="1530"></path></svg>