<?xml version="1.0" standalone="no"?><!DOCTYPE svg PUBLIC "-//W3C//DTD SVG 1.1//EN" "http://www.w3.org/Graphics/SVG/1.1/DTD/svg11.dtd"><svg t="1705543772864" class="icon" viewBox="0 0 1024 1024" version="1.1" xmlns="http://www.w3.org/2000/svg" p-id="27410" xmlns:xlink="http://www.w3.org/1999/xlink" width="200" height="200"><path d="M970.473769 634.978058C907.970652 828.060487 746.563053 974.900486 547.27264 1013.876752c0 0-16.472323 11.040336-35.27264 9.029796-32.768282 4.797079-35.27264-11.005064-35.27264-11.005063C274.297682 973.383762 116.875891 827.249216 53.455685 634.907513V209.942751C65.095656 210.895112 76.841445 211.635838 88.728325 211.635838 240.612311 211.635838 372.849437 131.037856 447.415797 10.8287c-1.939995-3.703627-4.444353-7.054528-6.27853-10.8287h93.190314c-1.481451 3.139265-3.491991 5.961076-5.043988 9.100341A435.687644 435.687644 0 0 0 935.271675 209.942751V211.635838h35.27264v423.271675l-0.070546 0.070545zM899.999036 282.145844L899.011402 282.181117c-169.661396 0-318.758844-81.761979-410.679343-206.309669C405.264993 191.001343 274.332954 268.883332 124.000964 279.606214v360.521649c65.219111 164.194137 206.662395 289.588371 387.999036 312.233406 172.589026-28.853019 323.802831-155.340705 384.824498-317.453756H899.999036V282.145844zM547.27264 811.270711h-70.54528v-141.090559H300.364162v-70.545279h176.363198v-70.545279H300.364162v-70.545279h161.760326L337.400434 333.820261 387.275946 283.944749l104.054287 104.054287H529.63632l106.276463-106.276464 52.908959 52.90896L564.908959 458.544315H723.635838v70.545279h-176.363198v70.545279h176.363198v70.545279h-176.363198v141.090559z" fill="#ffffff" p-id="27411"></path></svg>