<?xml version="1.0" standalone="no"?><!DOCTYPE svg PUBLIC "-//W3C//DTD SVG 1.1//EN" "http://www.w3.org/Graphics/SVG/1.1/DTD/svg11.dtd"><svg t="1705542697410" class="icon" viewBox="0 0 1024 1024" version="1.1" xmlns="http://www.w3.org/2000/svg" p-id="13850" xmlns:xlink="http://www.w3.org/1999/xlink" width="200" height="200"><path d="M950.453039 639.292818c-5.657459-5.657459-16.972376-14.143646-33.944752-19.801105-16.972376-5.657459-33.944751-2.828729-48.088397 0 33.944751-62.232044 53.745856-130.121547 53.745856-206.497238C922.165746 183.867403 735.469613 0 506.342541 0S90.519337 183.867403 90.519337 412.994475c0 65.060773 14.143646 130.121547 45.259669 186.696133-14.143646 5.657459-28.287293 11.314917-36.773481 14.143646-16.972376 5.657459-22.629834 25.458564-16.972376 42.430939 5.657459 16.972376 25.458564 22.629834 42.430939 16.972376 16.972376-5.657459 39.60221-16.972376 65.060774-25.458563h5.657458c8.486188-2.828729 16.972376-5.657459 22.629835-5.657459 59.403315-16.972376 113.149171-22.629834 164.066298-16.972376 8.486188 0 19.801105 2.828729 36.773481 5.657459 76.375691 16.972376 127.292818 62.232044 155.58011 90.519337 8.486188 8.486188 19.801105 16.972376 33.944752 31.116022-16.972376 5.657459-33.944751 8.486188-53.745857 11.314917h-8.486188c-14.143646 0-25.458564 2.828729-39.60221 2.828729-16.972376 0-36.773481-2.828729-53.745856-5.657458-16.972376-2.828729-33.944751 8.486188-36.773481 25.458563-2.828729 16.972376 8.486188 33.944751 25.458564 36.773481 22.629834 2.828729 42.430939 5.657459 65.060773 5.657459 16.972376 0 33.944751 0 48.088398-2.82873 16.972376 0 33.944751-2.828729 48.088398-2.828729 22.629834-2.828729 48.088398-5.657459 79.20442-14.143646 76.375691-22.629834 147.093923-65.060773 203.668508-127.292818 2.828729 0 8.486188-2.828729 14.143647 0 5.657459 0 8.486188 5.657459 8.486187 5.657458s8.486188 14.143646-5.657458 56.574586c-16.972376 50.917127-79.20442 124.464088-181.038674 172.552486-132.950276 59.403315-254.585635 39.60221-305.502763 31.116022-99.005525-14.143646-198.01105-56.574586-280.044198-115.9779-14.143646-11.314917-33.944751-8.486188-45.259669 8.486188-11.314917 14.143646-8.486188 33.944751 5.657459 45.259668 93.348066 67.889503 198.01105 110.320442 308.331491 127.292818 22.629834 2.828729 65.060773 11.314917 115.977901 11.314917 65.060773 0 144.265193-8.486188 226.298342-48.088398 104.662983-48.088398 189.524862-130.121547 214.983426-209.325967 5.657459-28.287293 25.458564-93.348066-11.314917-127.292817z m-282.872929 87.690607l-5.657458-8.486187c-19.801105-19.801105-36.773481-36.773481-48.088398-45.259669-31.116022-28.287293-93.348066-82.033149-183.867403-104.662983-19.801105-5.657459-33.944751-5.657459-42.430939-8.486188-56.574586-5.657459-118.80663 0-186.696133 16.972375-2.828729 0-5.657459 0-5.657459 2.82873-28.287293-50.917127-42.430939-107.491713-42.430939-166.895028 0-195.18232 158.40884-353.59116 353.59116-353.59116s353.59116 158.40884 353.591161 353.59116c-2.828729 135.779006-79.20442 254.585635-192.353592 313.98895z" p-id="13851"></path><path d="M520.486188 574.232044c-14.143646 0-25.458564-5.657459-36.773481-14.143646l-121.635359-121.635359c-19.801105-19.801105-19.801105-53.745856 0-73.546962L483.712707 240.441989c19.801105-19.801105 53.745856-19.801105 73.546962 0l121.635359 121.635359c19.801105 19.801105 19.801105 53.745856 0 73.546961l-121.635359 121.63536c-11.314917 11.314917-25.458564 16.972376-36.773481 16.972375z m-107.491713-175.381215l107.491713 107.491712 107.491713-107.491712-107.491713-107.491713-107.491713 107.491713z" p-id="13852"></path></svg>