<?xml version="1.0" standalone="no"?><!DOCTYPE svg PUBLIC "-//W3C//DTD SVG 1.1//EN" "http://www.w3.org/Graphics/SVG/1.1/DTD/svg11.dtd"><svg t="1705543707999" class="icon" viewBox="0 0 1024 1024" version="1.1" xmlns="http://www.w3.org/2000/svg" p-id="26357" xmlns:xlink="http://www.w3.org/1999/xlink" width="200" height="200"><path d="M643.328 828.096V233.408c0-13.248-6.72-21.568-12.928-25.088a14.656 14.656 0 0 0-15.04 0.192l-210.56 118.272c-19.008 10.88-40.512 16.64-61.952 16.64H205.12c-24.32 0-44.288 24.192-44.288 53.952v223.104c0 29.76 19.84 44.224 44.288 44.224h137.728c21.568 0 43.008 5.76 62.016 16.704l168.256 97.92c12.288 7.04 15.872 26.048 8.64 37.888-7.36 11.776-24.832 19.008-37.12 12.032l-166.208-95.36a71.808 71.808 0 0 0-35.584-9.792H196.48c-26.304 0-50.88-11.264-69.12-31.808a107.84 107.84 0 0 1-26.752-71.872V392.32c0-26.88 9.472-52.48 26.688-71.872 18.176-20.48 42.752-31.808 69.184-31.808h146.304c12.224 0 24.512-3.392 35.584-9.728l210.496-120.768c20.864-12.032 44.544-19.328 71.552-10.624 27.008 8.704 45.504 49.152 45.504 78.08v602.368c0 13.824-17.152 24.96-31.36 24.96-14.272 0-31.36-11.136-31.36-24.832z m171.456-95.744c-9.728-9.28-13.44-26.24-4.864-35.072a239.04 239.04 0 0 0 0-334.08c-8.64-8.704-5.76-28.672 4.864-37.056 10.688-8.32 28.16-3.392 36.8 5.376a281.344 281.344 0 0 1 81.088 198.784c0 75.136-28.352 151.744-81.216 198.656-7.936 7.04-26.944 12.608-36.672 3.392z"  p-id="26358"></path></svg>
