<?xml version="1.0" standalone="no"?><!DOCTYPE svg PUBLIC "-//W3C//DTD SVG 1.1//EN" "http://www.w3.org/Graphics/SVG/1.1/DTD/svg11.dtd"><svg t="1705544583992" class="icon" viewBox="0 0 1024 1024" version="1.1" xmlns="http://www.w3.org/2000/svg" p-id="39770" xmlns:xlink="http://www.w3.org/1999/xlink" width="200" height="200"><path d="M222.249822 817.120436 657.506343 817.120436 657.506343 880.385885 222.249822 880.385885Z" p-id="39771"></path><path d="M729.742244 943.779119 150.996326 943.779119 150.996326 342.280456 628.921527 342.280456 676.00234 263.205544 71.878478 263.205544 71.878478 1022.977726 808.91325 1022.977726 808.91325 378.11217 729.745311 511.399276Z"  p-id="39772"></path><path d="M591.279367 405.710492 222.246755 405.710492 222.246755 469.017855 553.63005 469.017855Z" p-id="39773"></path><path d="M497.868089 542.828057 506.690311 548.009963 511.340633 540.149701 222.251866 540.149701 222.251866 603.490799 490.701951 603.490799Z" p-id="39774"></path><path d="M493.58374 739.321321 629.496045 642.987363 513.274775 573.959357Z" p-id="39775"></path><path d="M937.496875 23.500773l-27.180212-16.230639c-24.630661-14.583756-56.385548-6.508816-71.011217 18.082999l-33.728897 56.711653 116.27545 69.108766 33.728897-56.749477c14.609313-24.591815 6.547663-56.339546-18.082999-70.925346L937.496875 23.500773 937.496875 23.500773z" p-id="39776"></path><path d="M222.249822 745.995746 473.817057 745.995746 481.312367 682.572866 222.249822 682.572866Z" p-id="39777"></path><path d="M657.505321 682.574911 606.272032 682.574911 516.898735 745.996768 657.506343 745.996768Z" p-id="39778"></path><path d="M517.767668 566.294349l116.270339 69.064808 280.186808-471.410251-116.263183-69.026984L517.767668 566.294349 517.767668 566.294349zM889.50726 166.627263l-185.751212 312.513146c-6.138753 10.253405-16.845025 15.280947-24.044899 11.082469-7.044488-4.286393-7.872529-16.098766-1.696974-26.440086l185.708277-312.43852 25.785831 15.280947L889.50726 166.627263 889.50726 166.627263zM837.331435 135.695307 651.580223 448.132804c-6.093773 10.380167-16.888983 15.318771-24.015253 11.077357-7.08129-4.234257-7.860262-16.096721-1.765467-26.476888l185.751212-312.446698 25.778675 15.404642L837.331435 135.695307 837.331435 135.695307z" p-id="39779"></path></svg>