<?xml version="1.0" standalone="no"?><!DOCTYPE svg PUBLIC "-//W3C//DTD SVG 1.1//EN" "http://www.w3.org/Graphics/SVG/1.1/DTD/svg11.dtd"><svg t="1706074034160" class="icon" viewBox="0 0 1075 1024" version="1.1" xmlns="http://www.w3.org/2000/svg" p-id="12608" xmlns:xlink="http://www.w3.org/1999/xlink" width="209.9609375" height="200"><path d="M885.398971 651.596981a46.532446 46.532446 0 0 0 0 92.779417h139.668707a46.532446 46.532446 0 0 0 0-92.779417z m139.597338 279.266045h-233.090443a46.532446 46.532446 0 1 0 0 92.779416h232.66223a46.532446 46.532446 0 1 0 0-92.779416z m0-139.668707h-233.090443a46.532446 46.532446 0 1 0 0 92.779417h232.66223a46.532446 46.532446 0 1 0 0-92.779417z" p-id="12609"></path><path d="M605.847451 930.863026H95.632028a35.684391 35.684391 0 0 1-1.78422-11.561743V104.698003a37.754086 37.754086 0 0 1 1.78422-11.561742h834.086957a35.684391 35.684391 0 0 1 1.784219 11.561742v407.230271a46.532446 46.532446 0 0 0 92.779417 0V104.698003A95.420062 95.420062 0 0 0 938.640082 0H86.068611a95.420062 95.420062 0 0 0-85.642539 104.698003v814.460542a95.420062 95.420062 0 0 0 85.642539 104.698004h519.77884a46.532446 46.532446 0 1 0 0-92.779417z" p-id="12610"></path><path d="M698.840974 558.46072H559.243636v-46.532446h139.668707a46.532446 46.532446 0 1 0 0-92.779416H652.379897v-92.779417a46.532446 46.532446 0 0 0-92.779417 0v92.779417h-92.779416v-92.779417a46.532446 46.532446 0 0 0-92.779417 0v92.779417h-47.602978a46.532446 46.532446 0 0 0 0 92.779416H466.107376v46.532446H326.581407a46.532446 46.532446 0 1 0 0 92.779417h139.668706v46.532446a46.532446 46.532446 0 0 0 92.779417 0v-46.532446h139.668707a46.532446 46.532446 0 1 0 0-92.779417z" p-id="12611"></path></svg>