<?xml version="1.0" standalone="no"?><!DOCTYPE svg PUBLIC "-//W3C//DTD SVG 1.1//EN" "http://www.w3.org/Graphics/SVG/1.1/DTD/svg11.dtd"><svg t="1705544739527" class="icon" viewBox="0 0 1024 1024" version="1.1" xmlns="http://www.w3.org/2000/svg" p-id="41968" xmlns:xlink="http://www.w3.org/1999/xlink" width="200" height="200"><path d="M930.9184 102.4c49.0496 0 89.2928 39.424 92.8256 89.4976l0.256 7.168v677.0176c0 50.8928-37.7856 92.5696-85.8112 96.4096l-7.2704 0.3072H93.0816c-48.9472 0-89.088-39.2704-92.8256-89.1392L0 876.032V199.168c0-50.9952 37.9904-92.7744 86.1184-96.4608L93.0816 102.4h837.8368zM279.296 610.1504h-46.592l-5.4272 0.3072a47.7696 47.7696 0 0 0-41.1136 48.0256c0 26.7264 20.8384 48.384 46.592 48.384h46.5408l5.4272-0.3584a47.7696 47.7696 0 0 0 41.1136-48.0256c0-26.6752-20.8384-48.3328-46.592-48.3328z m186.1632 0h-46.592l-5.376 0.3072a47.7696 47.7696 0 0 0-41.1136 48.0256c0 26.7264 20.8384 48.384 46.5408 48.384h46.5408l5.4272-0.3584a47.7696 47.7696 0 0 0 41.1136-48.0256c0-26.6752-20.8384-48.3328-46.592-48.3328z m186.1632 0h-46.5408l-5.4272 0.3072a47.7696 47.7696 0 0 0-41.1136 48.0256c0 26.7264 20.8384 48.384 46.592 48.384h46.4896l5.4272-0.3584a47.7696 47.7696 0 0 0 41.1136-48.0256c0-26.6752-20.8384-48.3328-46.5408-48.3328z m279.296-411.0336H93.0816v145.0496h837.7856V199.1168z" fill="#ffffff" p-id="41969"></path></svg>