<?xml version="1.0" standalone="no"?><!DOCTYPE svg PUBLIC "-//W3C//DTD SVG 1.1//EN" "http://www.w3.org/Graphics/SVG/1.1/DTD/svg11.dtd"><svg t="1705544963538" class="icon" viewBox="0 0 1024 1024" version="1.1" xmlns="http://www.w3.org/2000/svg" p-id="47145" xmlns:xlink="http://www.w3.org/1999/xlink" width="200" height="200"><path d="M864 910.4H160c-45.6 0-83.2-37.6-83.2-83.2v-512C76.8 269.6 114.4 232 160 232h704c45.6 0 83.2 37.6 83.2 83.2v512c0 46.4-37.6 83.2-83.2 83.2z m-704-640c-24.8 0-44.8 20-44.8 44.8v512c0 24.8 20 44.8 44.8 44.8h704c24.8 0 44.8-20 44.8-44.8v-512c0-24.8-20-44.8-44.8-44.8H160zM928 228.8c-10.4 0-19.2-8.8-19.2-19.2 0-32-25.6-57.6-57.6-57.6h-88c-10.4 0-19.2-8.8-19.2-19.2s8.8-19.2 19.2-19.2h88c52.8 0 96 43.2 96 96 0 10.4-8.8 19.2-19.2 19.2z" p-id="47146" fill="#ffffff"></path><path d="M96 377.6c-10.4 0-19.2-8.8-19.2-19.2V209.6c0-52.8 43.2-96 96-96h501.6c10.4 0 19.2 8.8 19.2 19.2S684.8 152 674.4 152H172.8c-32 0-57.6 25.6-57.6 57.6v148.8c0 10.4-8.8 19.2-19.2 19.2zM928 684H738.4c-45.6 0-83.2-37.6-83.2-83.2v-39.2c0-45.6 37.6-83.2 83.2-83.2H928c10.4 0 19.2 8.8 19.2 19.2v167.2c0 10.4-8.8 19.2-19.2 19.2zM738.4 516.8c-24.8 0-44.8 20-44.8 44.8v39.2c0 24.8 20 44.8 44.8 44.8h170.4V516.8H738.4zM552.8 506.4H307.2c-10.4 0-19.2-8.8-19.2-19.2s8.8-19.2 19.2-19.2h245.6c10.4 0 19.2 8.8 19.2 19.2s-8.8 19.2-19.2 19.2zM535.2 616.8H324.8c-10.4 0-19.2-8.8-19.2-19.2s8.8-19.2 19.2-19.2h210.4c10.4 0 19.2 8.8 19.2 19.2s-8.8 19.2-19.2 19.2z" p-id="47147" fill="#ffffff"></path><path d="M468 506.4c-3.2 0-6.4-0.8-9.6-2.4-8.8-5.6-12-16.8-7.2-26.4l40-69.6c5.6-8.8 16.8-12 26.4-7.2 8.8 5.6 12 16.8 7.2 26.4l-40 69.6c-4 6.4-10.4 9.6-16.8 9.6zM391.2 506.4c-6.4 0-12.8-3.2-16.8-9.6l-40-69.6c-5.6-8.8-2.4-20.8 7.2-26.4 8.8-5.6 20.8-2.4 26.4 7.2l40 69.6c5.6 8.8 2.4 20.8-7.2 26.4-2.4 1.6-5.6 2.4-9.6 2.4z" p-id="47148" fill="#ffffff"></path><path d="M429.6 744c-10.4 0-19.2-8.8-19.2-19.2V487.2c0-10.4 8.8-19.2 19.2-19.2s19.2 8.8 19.2 19.2v237.6c0 10.4-8.8 19.2-19.2 19.2z" p-id="47149" fill="#ffffff"></path><path d="M784 625.6c-22.4 0-40-18.4-40-40 0-22.4 18.4-40 40-40 22.4 0 40 18.4 40 40s-17.6 40-40 40z m0-42.4c-0.8 0-1.6 0.8-1.6 1.6 0 2.4 4 2.4 4 0-0.8-0.8-1.6-1.6-2.4-1.6z" p-id="47150" fill="#ffffff"></path></svg>