<?xml version="1.0" standalone="no"?><!DOCTYPE svg PUBLIC "-//W3C//DTD SVG 1.1//EN" "http://www.w3.org/Graphics/SVG/1.1/DTD/svg11.dtd"><svg t="1706074599287" class="icon" viewBox="0 0 1024 1024" version="1.1" xmlns="http://www.w3.org/2000/svg" p-id="38513" xmlns:xlink="http://www.w3.org/1999/xlink" width="200" height="200"><path d="M652.983467 262.5792C761.4464 315.029333 836.266667 426.107733 836.266667 554.666667c0 6.225067-0.2176 12.398933-0.5632 18.538666a148.219733 148.219733 0 0 1 41.8432 12.292267c0.849067-10.176 1.386667-20.437333 1.386666-30.830933 0-149.512533-89.472-278.050133-217.7536-335.227734a148.727467 148.727467 0 0 1-8.196266 43.140267zM701.277867 817.8816C648.008533 856.256 582.6688 878.933333 512 878.933333s-136.008533-22.677333-189.277867-61.051733a150.033067 150.033067 0 0 1-32.8832 28.7616C351.509333 893.640533 428.475733 921.6 512 921.6s160.490667-27.959467 222.165333-74.9568a150.165333 150.165333 0 0 1-32.887466-28.7616zM188.296533 573.205333A329.531733 329.531733 0 0 1 187.733333 554.666667c0-128.558933 74.820267-239.637333 183.2832-292.087467a148.727467 148.727467 0 0 1-8.196266-43.140267C234.538667 276.616533 145.066667 405.154133 145.066667 554.666667c0 10.3936 0.5376 20.654933 1.386666 30.830933a148.219733 148.219733 0 0 1 41.8432-12.292267zM209.066667 614.4c-58.909867 0-106.666667 47.7568-106.666667 106.666667s47.7568 106.666667 106.666667 106.666666 106.666667-47.7568 106.666666-106.666666-47.7568-106.666667-106.666666-106.666667z m0 170.666667c-35.345067 0-64-28.654933-64-64 0-35.345067 28.654933-64 64-64s64 28.654933 64 64c0 35.345067-28.654933 64-64 64zM512 102.4c-58.909867 0-106.666667 47.7568-106.666667 106.666667s47.7568 106.666667 106.666667 106.666666 106.666667-47.7568 106.666667-106.666666-47.7568-106.666667-106.666667-106.666667z m0 170.666667c-35.345067 0-64-28.654933-64-64 0-35.345067 28.654933-64 64-64s64 28.654933 64 64c0 35.345067-28.654933 64-64 64zM814.933333 614.4c-58.909867 0-106.666667 47.7568-106.666666 106.666667s47.7568 106.666667 106.666666 106.666666 106.666667-47.7568 106.666667-106.666666-47.7568-106.666667-106.666667-106.666667z m0 170.666667c-35.345067 0-64-28.654933-64-64 0-35.345067 28.654933-64 64-64s64 28.654933 64 64c0 35.345067-28.654933 64-64 64z" fill="#666666" p-id="38514"></path></svg>