<?xml version="1.0" standalone="no"?><!DOCTYPE svg PUBLIC "-//W3C//DTD SVG 1.1//EN" "http://www.w3.org/Graphics/SVG/1.1/DTD/svg11.dtd"><svg t="1705548682244" class="icon" viewBox="0 0 1024 1024" version="1.1" xmlns="http://www.w3.org/2000/svg" p-id="69264" xmlns:xlink="http://www.w3.org/1999/xlink" width="200" height="200"><path d="M768 439.8V173c0-17.8-9.5-34.3-24.9-43.2L526.7 5c-9.1-5.3-20.4-5.3-29.5 0L280.9 129.9c-15.4 8.9-24.9 25.4-24.9 43.2v261c0 3.6-1.9 6.9-5 8.7L24.9 573.3C9.5 582.2 0 598.6 0 616.4v238.1c0 17.8 9.5 34.3 24.9 43.2l206.2 119c15.4 8.9 34.4 8.9 49.8 0L512 883.3l231.1 133.4c15.4 8.9 34.4 8.9 49.8 0l206.2-119c15.4-8.9 24.9-25.4 24.9-43.2V616.4c0-17.8-9.5-34.3-24.9-43.2L768 439.8z m-638 136L259.5 501c3.1-1.8 6.9-1.8 10 0L399 575.8c6.7 3.9 6.7 13.5 0 17.4L269.5 668c-3.1 1.8-6.9 1.8-10 0L130 593.2c-6.7-3.9-6.7-13.5 0-17.4z m330.5 285.6l-153.1 88.4c-6.7 3.9-15-1-15-8.7V743.4c0-3.6 1.9-6.9 5-8.7l153.1-88.4c6.7-3.9 15 1 15 8.7v197.7c0 3.6-1.9 6.9-5 8.7z m45.4-634.1l-129.5-74.8c-6.7-3.9-6.7-13.5 0-17.4l129.5-74.8c3.1-1.8 6.9-1.8 10 0l129.5 74.8c6.7 3.9 6.7 13.5 0 17.4L516 227.3c-3.1 1.8-7 1.8-10.1 0z m44.5 71.9l153.1-88.4c6.7-3.9 15 1 15 8.7v197.7c0 3.6-1.9 6.9-5 8.7l-153.1 88.4c-6.7 3.9-15-1-15-8.7V307.9c0-3.6 1.9-6.9 5-8.7zM761.9 668l-129.5-74.8c-6.7-3.9-6.7-13.5 0-17.4L761.9 501c3.1-1.8 6.9-1.8 10 0l129.5 74.8c6.7 3.9 6.7 13.5 0 17.4L771.9 668c-3.1 1.8-6.9 1.8-10 0z m209.8 193.4l-153.1 88.4c-6.7 3.9-15-1-15-8.7V743.4c0-3.6 1.9-6.9 5-8.7l153.1-88.4c6.7-3.9 15 1 15 8.7v197.7c0 3.6-1.9 6.9-5 8.7z" fill="#ffffff" p-id="69265"></path></svg>