<?xml version="1.0" standalone="no"?><!DOCTYPE svg PUBLIC "-//W3C//DTD SVG 1.1//EN" "http://www.w3.org/Graphics/SVG/1.1/DTD/svg11.dtd"><svg t="1705545575922" class="icon" viewBox="0 0 1024 1024" version="1.1" xmlns="http://www.w3.org/2000/svg" p-id="61463" xmlns:xlink="http://www.w3.org/1999/xlink" width="200" height="200"><path d="M339.057589 568.889142C404.479775 568.889142 455.110858 618.894447 455.110858 684.373522v220.387433C455.110858 970.296919 404.422886 1024 339.057589 1024H119.352823A119.864822 119.864822 0 0 1 0 904.760955V684.373522C0 618.951336 53.987526 568.889142 119.295934 568.889142h219.818544z m568.888573 0c65.365297 0 116.053269 50.005306 116.053269 115.48438v220.387433C1023.999431 970.296919 973.311459 1024 907.946162 1024h-219.761655A119.864822 119.864822 0 0 1 568.888573 904.760955V684.373522c0-65.479075 53.987526-115.48438 119.295934-115.48438h219.818544z m-555.804135 56.888857H106.609719c-26.055097 0-49.720861 20.536877-49.720862 46.762641v246.499418c0 26.168874 23.665765 48.071084 49.720862 48.071085H352.142027c26.111985 0 46.079974-21.845321 46.079974-48.071085v-246.499418A45.79553 45.79553 0 0 0 352.142027 625.777999z m568.888572 0h-245.532308c-26.055097 0-49.720861 20.536877-49.720861 46.762641v246.499418c0 26.168874 23.665765 48.071084 49.720861 48.071085h245.532308c26.111985 0 46.079974-21.845321 46.079975-48.071085v-246.499418a45.79553 45.79553 0 0 0-46.079975-46.762641zM796.444002 0.000569c27.36354 0 53.134193 10.695105 72.533293 30.037317l124.984819 124.984819c19.342211 19.342211 30.037317 45.112864 30.037317 72.533293 0 27.420429-10.695105 53.191082-30.037317 72.533293l-124.984819 124.98482A101.831055 101.831055 0 0 1 796.444002 455.111427c-27.420429 0-53.134193-10.695105-72.533293-30.094205l-124.98482-124.927931A102.001721 102.001721 0 0 1 568.888573 227.555998c0-27.420429 10.638216-53.191082 30.037316-72.533293L723.910709 30.037886A101.831055 101.831055 0 0 1 796.444002 0.000569zM339.057589 0.000569C404.479775 0.000569 455.110858 50.005874 455.110858 115.484949v220.387433C455.110858 401.408346 404.422886 455.111427 339.057589 455.111427H119.352823A119.864822 119.864822 0 0 1 0 335.872382V115.484949C0 50.062763 53.987526 0.000569 119.295934 0.000569h219.818544z m13.084438 56.888857H106.609719C80.554622 56.889426 56.888857 77.426304 56.888857 103.652067v246.499418c0 26.168874 23.665765 48.071084 49.720862 48.071085H352.142027C378.310901 398.22257 398.222001 376.377249 398.222001 350.151485V103.652067A45.79553 45.79553 0 0 0 352.142027 56.889426zM796.444002 56.889426c-8.817773 0-17.066657 3.413331-23.324432 9.671106l-137.671034 137.784812a32.824871 32.824871 0 0 0-9.671106 23.324432c0 8.874662 3.413331 17.180435 9.671106 23.38132l137.671034 137.784812c12.515549 12.515549 34.133314 12.515549 46.648863 0l137.671035-137.784812a32.824871 32.824871 0 0 0 0-46.648863L819.768433 66.560532A32.824871 32.824871 0 0 0 796.444002 56.889426z" fill="#ffffff" p-id="61464"></path></svg>