<?xml version="1.0" standalone="no"?><!DOCTYPE svg PUBLIC "-//W3C//DTD SVG 1.1//EN" "http://www.w3.org/Graphics/SVG/1.1/DTD/svg11.dtd"><svg t="1705545382336" class="icon" viewBox="0 0 1024 1024" version="1.1" xmlns="http://www.w3.org/2000/svg" p-id="56475" xmlns:xlink="http://www.w3.org/1999/xlink" width="200" height="200"><path d="M532.3 199.1c5.4 1.5 11 0.9 15.9-1.8 68.8-37.7 149.3-26.1 205 29.6 43.8 43.8 59.8 102.8 46.6 159.4l-20-45.5c-4.7-10.5-17-15.3-27.6-10.7-10.5 4.6-15.3 17-10.7 27.6l39.5 89.6c0.3 0.9 0.8 1.8 1.2 2.7l0.5 1.1c0.1 0.2 0.2 0.3 0.3 0.4 0.9 1.8 2 3.4 3.4 4.8 1.1 1.2 2.3 2.1 3.6 3.1 0.4 0.2 0.6 0.6 1 0.9 0.2 0.1 0.4 0.1 0.6 0.1 0.9 0.5 1.7 1.3 2.7 1.7 2.4 0.9 5 1.4 7.4 1.4 2.9 0 5.8-0.6 8.4-1.8l93.3-41.1c10.5-4.6 15.3-17 10.7-27.6-4.6-10.5-17-15.3-27.5-10.7l-48.3 21.2c20.1-72.9 0.8-149.8-55.7-206.3-69.1-69.2-169.1-83.6-254.6-36.7-4.9 2.7-8.4 7.1-10 12.5-1.6 5.4-1 11 1.7 15.9 2.8 5.1 7.2 8.6 12.6 10.2zM488.6 805.5c-5.3-1.5-10.9-0.9-15.8 1.8-68.8 37.7-149.2 26.1-205-29.6-43.8-43.8-59.9-102.8-46.6-159.5l20.1 45.5c3.3 7.6 10.8 12.5 19.1 12.5 2.9 0 5.7-0.6 8.4-1.8 10.5-4.7 15.3-17 10.7-27.6L240 557.2v-0.5c-0.2-0.8-0.8-1.3-1.1-2.1l-0.5-1.2c0-0.1-0.1-0.1-0.2-0.2-1.9-3.7-4.5-7-8.2-9-0.6-0.3-1.3-0.3-1.9-0.6-0.6-0.3-0.7-1-1.3-1.2-5.2-2-10.9-1.8-16 0.4l-93.3 41.1c-10.5 4.7-15.3 17-10.7 27.6 4.7 10.5 17.1 15.4 27.6 10.7l48.2-21.2c-20.1 72.9-0.8 149.8 55.7 206.3 41.2 41.3 94.7 64 150.6 64 35.6 0 71.6-9.4 104-27.2 4.9-2.7 8.5-7.1 10-12.5 1.6-5.4 1-11-1.7-15.9-2.8-5.1-7.2-8.6-12.6-10.2zM316.7 517.4c112.7 0 204.4-91.7 204.4-204.4s-91.7-204.4-204.4-204.4S112.4 200.3 112.4 313 204 517.4 316.7 517.4zM154.2 313c0-89.6 72.9-162.6 162.6-162.6s162.5 73 162.5 162.6-72.9 162.6-162.6 162.6S154.2 402.7 154.2 313zM714.6 506.6c-112.7 0-204.4 91.7-204.4 204.4s91.7 204.4 204.4 204.4S919 823.7 919 711s-91.7-204.4-204.4-204.4zM877.2 711c0 89.6-72.9 162.6-162.6 162.6S552 800.7 552 711s73-162.6 162.6-162.6 162.6 73 162.6 162.6z" fill="#ffffff" p-id="56476"></path><path d="M297.3 419v6.4c0 11.5 9.4 20.9 20.9 20.9s20.9-9.4 20.9-20.9V419c29.1-8.2 50.5-32.7 50.5-61.9 0-29.9-21.9-51.5-65.1-64.1-31.5-9.9-35.9-17.5-35.9-24.2 0-12.8 13.3-23.2 29.6-23.2 11.1 0 21.2 4.9 26.4 12.8 6.3 9.6 19.3 12.3 29 6 4.7-3.1 7.8-7.8 9-13.2 1.1-5.5 0.1-11.1-3-15.7-9.1-13.9-23.8-23.8-40.4-28.6v-6.4c0-11.5-9.4-20.9-20.9-20.9s-20.9 9.4-20.9 20.9v6.4c-29.1 8.2-50.5 32.7-50.5 61.9 0 43.7 45.8 58.1 65.6 64.2 23.5 6.9 35.4 15 35.4 24.1 0 12.8-13.3 23.2-29.6 23.2-12.1 0-31.6-8.4-43.5-18.7-8.7-7.5-21.9-6.6-29.5 2.1-3.7 4.2-5.5 9.6-5.1 15.2s2.9 10.6 7.1 14.3c13.8 12.1 32.5 21.3 50 25.8zM794.8 752.7c-10-5.5-22.8-1.9-28.4 8.3-10.2 18.7-26 29.8-42 29.8-18.1 0-34-13-43.6-32.8h53.8c11.5 0 20.9-9.4 20.9-20.9s-9.4-20.9-20.9-20.9h-63.3c0-0.7-0.1-1.3-0.1-2 0-1.8 0.3-3.4 0.4-5.2h63.1c11.5 0 20.9-9.4 20.9-20.9s-9.4-20.9-20.9-20.9h-51.9c9.8-17.9 24.8-29.6 41.8-29.6 15.4 0 30.2 10 40.5 27.3 6 9.9 18.9 13.1 28.7 7.3 9.9-5.9 13.2-18.8 7.3-28.7-18.1-30.3-45.9-47.7-76.5-47.7-39 0-72.6 29.5-87.2 71.4h-11.8c-11.5 0-20.9 9.4-20.9 20.9s9.4 20.9 20.9 20.9h4.3c-0.1 1.8-0.4 3.4-0.4 5.2 0 0.7 0.2 1.3 0.2 2h-4c-11.5 0-20.9 9.4-20.9 20.9s9.4 20.9 20.9 20.9h10.8c14 43.6 48.2 74.6 88.2 74.6 31.6 0 61-19.3 78.6-51.5 2.7-4.9 3.3-10.6 1.8-15.9-1.9-5.4-5.4-9.8-10.3-12.5z" fill="#ffffff" p-id="56477"></path></svg>