<?xml version="1.0" standalone="no"?><!DOCTYPE svg PUBLIC "-//W3C//DTD SVG 1.1//EN" "http://www.w3.org/Graphics/SVG/1.1/DTD/svg11.dtd"><svg t="1702869818490" class="icon" viewBox="0 0 1024 1024" version="1.1" xmlns="http://www.w3.org/2000/svg" p-id="2878" xmlns:xlink="http://www.w3.org/1999/xlink" width="128" height="128"><path d="M330 321.2h36.7v155c0 4.8 0.8 7.9 2.4 9.5 2.4 2.3 7.3 3.4 14.9 3.4h50.6V310.5h36.7v336.8h-36.7V524.9h-69.2c-12.6 0-22-4.1-28.3-12.3-4.6-5.9-6.9-13.6-6.9-23V321.2z m164.9 103.7v-36.7c7.3-2 12.8-6.3 16.7-13.1 3.7-6.6 9.2-24.4 16.7-53.3l3-11.7H569l-5.7 24.2h133.2V371h-16.1c-2.4 41.6-6.7 74.7-12.9 99.3-8.2 33.3-22.2 64.4-42 93.4 17.6 18.9 41.2 34.3 71 46.2v37.7c-20-7.4-34.8-13.8-44.4-19.2-15.7-8.6-31.9-21.4-48.6-38.5-17.6 15.5-32.9 27-46 34.5-13 7.4-30.7 15.1-53.3 23.2v-37.7c13.1-5.2 23.7-10 31.9-14.5 13.5-7.5 28-18.6 43.6-33.3-17.8-28.3-30.7-54.9-38.7-79.9-6.1-19.6-10.9-39.6-14.5-60.3h36.1c4.4 23 9 42.2 14.1 57.7 4.5 13.4 8 23 10.5 28.9 2.8 6.2 7.8 14.7 15.1 25.6 10.3-18 17.4-32.5 21.4-43.6 9.9-27.8 16.2-67.6 18.8-119.5h-89c-6.2 15.2-12.1 26-17.6 32.3-6.3 7-13.2 12.2-20.4 15.5-4.6 2-11.5 4.1-20.6 6.1z" fill="#ee6666" p-id="2879"></path><path d="M512 989.6a37 37 0 0 1-26.3-11L244.1 732.9c-81.8-73.9-129.6-181.3-129.6-293 0-219.2 178.3-397.5 397.5-397.5s397.5 178.3 397.5 397.5c0 111.8-47.8 219.1-131.2 294.6l-240 244.1a37 37 0 0 1-26.3 11z m0-873.4c-178.4 0-323.6 145.2-323.6 323.6 0 90.9 39 178.3 106.9 239.8L512 900l215.2-218.8c69.5-62.9 108.4-150.3 108.4-241.3 0-178.5-145.2-323.7-323.6-323.7z" fill="#999999" p-id="2880"></path></svg>