<?xml version="1.0" standalone="no"?><!DOCTYPE svg PUBLIC "-//W3C//DTD SVG 1.1//EN" "http://www.w3.org/Graphics/SVG/1.1/DTD/svg11.dtd"><svg t="1705545463415" class="icon" viewBox="0 0 1024 1024" version="1.1" xmlns="http://www.w3.org/2000/svg" p-id="60447" xmlns:xlink="http://www.w3.org/1999/xlink" width="200" height="200"><path d="M197.12 78.72a118.4 118.4 0 0 0-118.4 118.4v629.76a118.4 118.4 0 0 0 118.4 118.4h629.76a118.4 118.4 0 0 0 118.4-118.4V197.12a118.4 118.4 0 0 0-118.4-118.4H197.12z m0-78.72h629.76A197.12 197.12 0 0 1 1024 197.12v629.76A197.12 197.12 0 0 1 826.88 1024H197.12A197.12 197.12 0 0 1 0 826.88V197.12A197.12 197.12 0 0 1 197.12 0z" fill="#ffffff" p-id="60448"></path><path d="M297.6 407.68h38.4a28.16 28.16 0 0 0 28.16 25.6 27.52 27.52 0 0 0 28.16-25.6h360.32a32 32 0 0 0 32-32 32 32 0 0 0-32-32.64H392.96v-33.92a28.8 28.8 0 0 0-28.8-28.8 28.8 28.8 0 0 0-28.8 28.8v33.92h-37.76a32.64 32.64 0 0 0-32.64 32.64 32 32 0 0 0 32.64 32zM752.64 624.64h-43.52v-30.72a28.8 28.8 0 0 0-28.8-28.8 28.8 28.8 0 0 0-28.8 28.8v30.72H297.6a32.64 32.64 0 0 0-32.64 32.64 32 32 0 0 0 32.64 32h353.92a28.8 28.8 0 0 0 28.8 28.8 28.8 28.8 0 0 0 28.8-28.8h43.52a32 32 0 0 0 32-32 32 32 0 0 0-32-32.64z" fill="#ffffff" p-id="60449"></path></svg>