<?xml version="1.0" standalone="no"?><!DOCTYPE svg PUBLIC "-//W3C//DTD SVG 1.1//EN" "http://www.w3.org/Graphics/SVG/1.1/DTD/svg11.dtd"><svg t="1705542775315" class="icon" viewBox="0 0 1024 1024" version="1.1" xmlns="http://www.w3.org/2000/svg" p-id="19611" xmlns:xlink="http://www.w3.org/1999/xlink" width="200" height="200"><path d="M275.2 403.2H256a44.8 44.8 0 0 0-44.8 44.8v320a44.8 44.8 0 0 0 44.8 44.8h512a44.8 44.8 0 0 0 44.8-44.8V448a44.8 44.8 0 0 0-44.8-44.8H364.8V384a147.2 147.2 0 0 1 283.52-55.808 44.8 44.8 0 0 0 82.816-33.984A236.8 236.8 0 0 0 275.2 384v19.2zM512 1024A512 512 0 1 1 512 0a512 512 0 0 1 0 1024z m-211.2-300.8V492.8h422.4v230.4H300.8z"  p-id="19612"></path></svg>
