<?xml version="1.0" standalone="no"?><!DOCTYPE svg PUBLIC "-//W3C//DTD SVG 1.1//EN" "http://www.w3.org/Graphics/SVG/1.1/DTD/svg11.dtd"><svg t="1706073588091" class="icon" viewBox="0 0 1024 1024" version="1.1" xmlns="http://www.w3.org/2000/svg" p-id="4147" xmlns:xlink="http://www.w3.org/1999/xlink" width="200" height="200"><path d="M850 467c8.82 0 16 7.18 16 16v361c0 8.82-7.18 16-16 16H180c-8.82 0-16-7.18-16-16V483c0-8.82 7.18-16 16-16h670m0-64H180c-44.18 0-80 35.82-80 80v361c0 44.18 35.82 80 80 80h670c44.18 0 80-35.82 80-80V483c0-44.18-35.82-80-80-80z" p-id="4148"></path><path d="M726 467H272V307.07c0-64.91 25.28-125.93 71.17-171.83S450.09 64.07 515 64.07c65.25 0 124.84 21.63 167.8 60.92 22.01 20.13 39.16 44.24 50.95 71.66 12.11 28.14 18.25 59.06 18.25 91.88 0 17.67-14.33 32-32 32s-32-14.33-32-32c0-95.98-69.52-160.46-173-160.46-98.7 0-179 80.3-179 179V403h390c17.67 0 32 14.33 32 32s-14.33 32-32 32zM514 578.75c19.85 0 36 16.15 36 36s-16.15 36-36 36-36-16.15-36-36 16.15-36 36-36m0-64c-55.23 0-100 44.77-100 100s44.77 100 100 100 100-44.77 100-100-44.77-100-100-100z" p-id="4149"></path><path d="M514 674.25c-15.19 0-27.5 12.31-27.5 27.5v83c0 15.19 12.31 27.5 27.5 27.5s27.5-12.31 27.5-27.5v-83c0-15.19-12.31-27.5-27.5-27.5z" p-id="4150"></path></svg>