<?xml version="1.0" standalone="no"?><!DOCTYPE svg PUBLIC "-//W3C//DTD SVG 1.1//EN" "http://www.w3.org/Graphics/SVG/1.1/DTD/svg11.dtd"><svg t="1705542650465" class="icon" viewBox="0 0 1024 1024" version="1.1" xmlns="http://www.w3.org/2000/svg" p-id="10854" xmlns:xlink="http://www.w3.org/1999/xlink" width="200" height="200"><path d="M752 96a80 80 0 0 1 79.92 76.528L832 176v240h32a48 48 0 0 1 47.92 45.184L912 464v416a48 48 0 0 1-48 48H160a48 48 0 0 1-48-48V464a48 48 0 0 1 48-48h32V176a80 80 0 0 1 76.528-79.92L272 96h480zM341.824 448H160a16 16 0 0 0-16 16v416a16 16 0 0 0 16 16h704a16 16 0 0 0 16-16V464a16 16 0 0 0-16-16h-150.48a16 16 0 0 0-14.752 9.808l-30.56 72.768A48 48 0 0 1 623.952 560H431.392a48 48 0 0 1-44.256-29.424l-30.56-72.768a16 16 0 0 0-14.752-9.808zM704 704a16 16 0 0 1 0 32H320a16 16 0 0 1 0-32h384z m48-576H272a48 48 0 0 0-47.92 45.184L224 176v240h117.824a48 48 0 0 1 42.928 26.512l1.344 2.912 30.56 72.768a16 16 0 0 0 14.736 9.808h192.56a16 16 0 0 0 14.752-9.808l30.56-72.768A48 48 0 0 1 713.52 416H800V176a48 48 0 0 0-45.184-47.92L752 128z" fill="#ffffff" p-id="10855"></path></svg>
