<?xml version="1.0" standalone="no"?><!DOCTYPE svg PUBLIC "-//W3C//DTD SVG 1.1//EN" "http://www.w3.org/Graphics/SVG/1.1/DTD/svg11.dtd"><svg t="1705548715149" class="icon" viewBox="0 0 1024 1024" version="1.1" xmlns="http://www.w3.org/2000/svg" p-id="70404" xmlns:xlink="http://www.w3.org/1999/xlink" width="200" height="200"><path d="M285.03959 331.172103h447.619282v32.059076H285.03959v-32.059076zM170.141538 861.131487h675.91877v32.295385H170.141538v-32.295385z m114.898052-580.214154h447.619282V249.829744H285.03959V280.94359z m284.251897-149.215179H285.03959v32.085333h284.251897V131.702154zM1007.721026 550.019282v387.43959a77.351385 77.351385 0 0 1-77.351385 77.351384H87.565128A77.587692 77.587692 0 0 1 9.977436 937.458872V550.019282a77.587692 77.587692 0 0 1 77.587692-76.353641h32.085334V364.701538a77.088821 77.088821 0 0 1 68.397948-76.589948V99.144205A77.587692 77.587692 0 0 1 265.373538 21.792821h486.951385a77.587692 77.587692 0 0 1 77.587692 77.351384v188.993641a77.351385 77.351385 0 0 1 68.397949 76.589949v108.937846h32.059077a77.587692 77.587692 0 0 1 77.351385 76.353641zM226.855385 473.665641h564.250256V97.883897a38.54441 38.54441 0 0 0-38.780718-38.54441H265.373538A38.308103 38.308103 0 0 0 226.855385 97.883897V473.665641z m742.058666 465.053538V550.019282c0-21.346462-17.197949-38.675692-38.54441-38.806974h-70.892308v-147.718564a39.043282 39.043282 0 0 0-29.564718-37.809231v185.527795H188.04841v-185.527795a39.043282 39.043282 0 0 0-29.590974 37.809231v147.718564h-70.892308c-21.425231 0-38.780718 17.381744-38.780718 38.806974v387.43959c0 21.425231 17.355487 38.806974 38.780718 38.806974h842.830769a38.806974 38.806974 0 0 0 38.518154-38.806974v1.260307zM838.892308 588.8a42.272821 42.272821 0 1 0 42.27282 42.272821 42.272821 42.272821 0 0 0-42.27282-43.506872v1.234051z" p-id="70405"></path></svg>