<?xml version="1.0" standalone="no"?><!DOCTYPE svg PUBLIC "-//W3C//DTD SVG 1.1//EN" "http://www.w3.org/Graphics/SVG/1.1/DTD/svg11.dtd"><svg t="1702869808401" class="icon" viewBox="0 0 1024 1024" version="1.1" xmlns="http://www.w3.org/2000/svg" p-id="2803" id="mx_n_1702869808403" xmlns:xlink="http://www.w3.org/1999/xlink" width="128" height="128"><path d="M512 989.6a37 37 0 0 1-26.3-11L244.1 732.9c-81.8-73.9-129.6-181.3-129.6-293 0-219.2 178.3-397.5 397.5-397.5s397.5 178.3 397.5 397.5c0 111.8-47.8 219.1-131.2 294.6l-240 244.1a37 37 0 0 1-26.3 11z m0-873.4c-178.4 0-323.6 145.2-323.6 323.6 0 90.9 39 178.3 106.9 239.8L512 900l215.2-218.8c69.5-62.9 108.4-150.3 108.4-241.3 0-178.5-145.2-323.7-323.6-323.7z" fill="#999999" p-id="2804"></path><path d="M343.1 370.5v-31.7h99.8c3.4-6.7 6.2-13.6 8.4-20.7h35c-2.2 7.5-4.6 14.4-7.1 20.7h203.5v31.7l-62.8-0.2c11.5 5.7 21.4 9.5 29.7 11.4 7.2 1.6 18.3 2.5 33.1 2.8v31c-30.4-2.7-52.1-6.4-65.2-11.2-15.5-5.6-32.4-16.9-50.6-33.7H460.5c-14.8 15.8-30.6 26.7-47.4 32.8-16 5.7-39.1 9.8-69.4 12.1v-31c16.1-0.9 29-2.1 38.6-3.7 10-1.8 19.9-5.3 29.7-10.4l-68.9 0.1zM586 647.2v-34.4l19.4-0.2c14.8-0.1 22.2-5.8 22.2-17V457.2H343.1v-33.9h339.7v33.9h-21.2v141.1c0 17.2-5.8 30.3-17.4 39.2-8.4 6.4-21 9.6-37.7 9.7H586z" fill="#005BAC" p-id="2805"></path><path d="M343.6 324.3v-15.6c0-11.5 2.8-20 8.4-25.6 4.9-4.9 10.6-7.8 17-8.8 4-0.6 8.9-0.9 14.7-0.9l112.1-0.2V260h34.1v13.2l110.8 0.2c17 0 28.6 3.9 35 11.7 4.4 5.2 6.7 14 7 26.2v13h-34.6V318c0-7.6-4-11.4-12.1-11.4H396.4c-12.8 0-19.1 4.1-18.9 12.3l0.2 5.3h-34.1zM372.8 587.3c-6.5 0-12.6-2.5-17.2-7.1s-7.2-10.7-7.2-17.3v-70.3c0-13.5 11-24.5 24.5-24.5l218.4-0.7c6.4-0.8 12.7 2.5 17.3 7.1 4.6 4.6 7.2 10.8 7.2 17.3v70.3c0 13.5-10.9 24.4-24.4 24.5l-218.6 0.7z m3.2-91.6v63.9l212-0.6v-63.9l-212 0.6z m215.2 63.2z" fill="#005BAC" p-id="2806"></path></svg>