<?xml version="1.0" standalone="no"?><!DOCTYPE svg PUBLIC "-//W3C//DTD SVG 1.1//EN" "http://www.w3.org/Graphics/SVG/1.1/DTD/svg11.dtd"><svg t="1705544626952" class="icon" viewBox="0 0 1024 1024" version="1.1" xmlns="http://www.w3.org/2000/svg" p-id="40864" xmlns:xlink="http://www.w3.org/1999/xlink" width="200" height="200"><path d="M951.06 398.79c6.1-9.8 9.4-21.21 9.4-32.81V126.02c0-34.21-27.81-62.02-62.02-62.02h-772.2c-34.21 0-62.02 27.81-62.02 62.02v240.27c0 11.6 3.3 23.01 9.4 32.91l60.62 97.03c6.1 9.7 6.1 22.11 0 31.81l-60.62 97.01c-6.2 9.9-9.4 21.21-9.4 32.91v240.27c0 34.21 27.81 62.02 62.02 62.02h772.21c34.21 0 62.02-27.81 62.02-62.02V658.26c0-11.6-3.3-23.01-9.4-32.81l-60.72-97.43a29.76 29.76 0 0 1 0-31.71l60.71-97.52zM836.03 561.84l60.42 96.93v237.47H128.24V658.56l60.32-96.53c9.3-15 14.3-32.21 14.3-49.81s-4.9-34.91-14.3-49.81l-60.32-96.73V128.02h768.21v237.47l-60.42 96.93c-9.3 14.9-14.2 32.11-14.2 49.71s4.9 34.8 14.2 49.71z" p-id="40865"></path><path d="M255.27 640.16h64.02V768.2h-64.02V640.16z m0-192.06h64.02v128.04h-64.02V448.1z m0-192.05h64.02v128.04h-64.02V256.05z m192.05 352.1h320.09v128.04H447.32V608.15z m0-321.09h320.09V415.1H447.32V287.06z" p-id="40866"></path></svg>