<?xml version="1.0" standalone="no"?><!DOCTYPE svg PUBLIC "-//W3C//DTD SVG 1.1//EN" "http://www.w3.org/Graphics/SVG/1.1/DTD/svg11.dtd"><svg t="1705545126917" class="icon" viewBox="0 0 1024 1024" version="1.1" xmlns="http://www.w3.org/2000/svg" p-id="50364" xmlns:xlink="http://www.w3.org/1999/xlink" width="200" height="200"><path d="M906.971429 307.2l19.504761-53.638095L414.47619 39.009524l-53.638095 97.523809-78.019047-34.133333-112.152381 204.8H68.266667v682.666667h892.342857v-682.666667h-53.638095zM448.609524 136.533333L828.952381 297.447619l-4.876191 9.752381h-53.638095L433.980952 165.790476l14.628572-29.257143zM316.952381 199.92381l248.685714 102.4H258.438095l58.514286-102.4z m541.257143 687.542857H165.790476v-487.619048h697.295238v487.619048z" p-id="50365" fill="#ffffff"></path><path d="M472.990476 863.085714h78.019048v-102.4h102.4V682.666667h-102.4v-39.009524h102.4v-78.019048h-73.142857l63.390476-102.4-68.266667-39.009524-63.390476 107.276191-63.390476-107.276191-68.266667 39.009524 63.390476 102.4H370.590476v78.019048h102.4v39.009524H370.590476v78.019047h102.4z" p-id="50366" fill="#ffffff"></path></svg>