<?xml version="1.0" standalone="no"?><!DOCTYPE svg PUBLIC "-//W3C//DTD SVG 1.1//EN" "http://www.w3.org/Graphics/SVG/1.1/DTD/svg11.dtd"><svg t="1703146187539" class="icon" viewBox="0 0 1024 1024" version="1.1" xmlns="http://www.w3.org/2000/svg" p-id="10053" xmlns:xlink="http://www.w3.org/1999/xlink" width="128" height="128"><path d="M351.962 128.277l128.1-0.154 0.077 64-128.1 0.154zM255.804 64.339l64-0.077 0.192 159.9-64 0.077zM512.004 64.038l64-0.076 0.192 159.9-64 0.076z" p-id="10054"></path><path d="M160.9 896c-17.7 0-32-14.3-32-31.9l-0.8-639.6c0-17.7 14.3-32 32-32l64.1-0.1-0.1-64-64.1 0.1c-53.1 0.1-96 43.1-96 96.1l0.8 639.6c0.1 53 43.1 95.9 96.2 95.8l511.7-0.6-0.1-64-511.7 0.6z" p-id="10055"></path><path d="M513.1 702.7l-287.8 0.3c-17.7 0-32 14.3-32 32s14.3 32 32 31.9l287.8-0.3c17.7 0 32-14.3 32-32 0-17.6-14.3-31.9-32-31.9zM225.1 511.2c-17.7 0-32 14.3-32 32s14.3 32 32 31.9l383.8-0.5c17.7 0 32-14.3 32-32s-14.3-32-32-31.9l-383.8 0.5zM224.9 319.3c-17.7 0-32 14.3-32 32s14.3 32 32 31.9l383.8-0.5c17.7 0 32-14.3 32-32s-14.3-32-32-31.9l-383.8 0.5zM768.1 223.7c-0.1-53-43.1-95.9-96.1-95.8l-64 0.1 0.1 64 64-0.1c17.7 0 32 14.3 32 31.9l0.4 352.2h64l-0.4-352.3zM950.6 790.6L816.1 925c-12.5 12.5-32.8 12.5-45.3 0s-12.5-32.7 0-45.2l79.8-79.7L608 800c-12.9 0-24.6-7.8-29.6-19.8s-2.2-25.7 6.9-34.9L700 630.7c12.5-12.5 32.8-12.5 45.3 0s12.5 32.8 0 45.3l-60 60H928c12.9 0 24.6 7.8 29.6 19.8 4.9 11.9 2.2 25.7-7 34.8z" p-id="10056"></path></svg>