<?xml version="1.0" standalone="no"?><!DOCTYPE svg PUBLIC "-//W3C//DTD SVG 1.1//EN" "http://www.w3.org/Graphics/SVG/1.1/DTD/svg11.dtd"><svg t="1705543815966" class="icon" viewBox="0 0 1024 1024" version="1.1" xmlns="http://www.w3.org/2000/svg" p-id="29507" xmlns:xlink="http://www.w3.org/1999/xlink" width="200" height="200"><path d="M899.657 307.2c58.514 14.629 102.4 73.143 102.4 131.657V885.03c0 80.457-58.514 138.971-138.971 138.971H212.114c-73.143 0-138.971-65.829-138.971-138.971V438.857c0-51.2 29.257-102.4 73.143-124.343L182.857 153.6c7.314-29.257 21.943-51.2 43.886-65.829 21.943-14.628 51.2-21.942 73.143-14.628h7.314V58.514c21.943-14.628 36.571-36.571 58.514-43.885C394.971 0 416.914 0 446.171 7.314l402.286 138.972c51.2 21.943 80.457 73.143 65.829 131.657L899.657 307.2zM380.343 87.771c0 7.315 0 7.315 0 0l343.771 95.086c29.257 7.314 51.2 21.943 65.829 43.886 7.314 21.943 14.628 51.2 14.628 73.143h36.572l14.628-51.2c7.315-21.943-7.314-36.572-21.942-43.886l-409.6-138.971H394.97c-7.314 7.314-14.628 14.628-14.628 21.942zM256 175.543l-36.571 124.343h512v-7.315c0-7.314 0-21.942-7.315-29.257 7.315-7.314-7.314-14.628-14.628-14.628l-409.6-102.4c-14.629 0-21.943 0-29.257 7.314-7.315 0-14.629 7.314-14.629 21.943z m680.229 709.486V438.857c0-43.886-29.258-73.143-73.143-73.143H212.114c-43.885 0-73.143 36.572-73.143 73.143V885.03c0 43.885 29.258 73.142 73.143 73.142h650.972c43.885 0 73.143-36.571 73.143-73.142zM614.4 460.8h65.829l-102.4 190.171H665.6v51.2H555.886v29.258h102.4v43.885h-102.4v87.772H497.37v-87.772h-102.4v-51.2h109.715v-29.257H394.97v-43.886h87.772L373.029 460.8h65.828L512 599.771c7.314 7.315 7.314 21.943 14.629 29.258 7.314-7.315 7.314-21.943 14.628-29.258L614.4 460.8z" p-id="29508" fill="#ffffff"></path></svg>