<?xml version="1.0" standalone="no"?><!DOCTYPE svg PUBLIC "-//W3C//DTD SVG 1.1//EN" "http://www.w3.org/Graphics/SVG/1.1/DTD/svg11.dtd"><svg t="1705542838934" class="icon" viewBox="0 0 1024 1024" version="1.1" xmlns="http://www.w3.org/2000/svg" p-id="20938" xmlns:xlink="http://www.w3.org/1999/xlink" width="200" height="200"><path d="M66.328 861.971V227.862c0-8.334 6.791-15.124 15.108-15.124h315.218c7.838 53.941 54.394 95.519 110.471 95.519 56.078 0 102.633-41.578 110.472-95.519H942.47c8.315 0 15.107 6.79 15.107 15.124v372.544h63.794V227.862c0-43.517-35.387-78.918-78.901-78.918H618.763V69.031c0-17.614-14.267-31.897-31.896-31.897H427.381c-17.631 0-31.897 14.281-31.897 31.897v79.913H81.436c-43.515 0-78.902 35.402-78.902 78.918V861.97c0 43.499 35.387 78.901 78.902 78.901h510.167v-63.795H81.436c-8.317 0.001-15.108-6.774-15.108-15.105z m392.951-761.044h95.69v95.69c0 26.385-21.462 47.847-47.844 47.847-26.383 0-47.846-21.462-47.846-47.847v-95.69z"  p-id="20939"></path><path d="M567.398 654.095L449.84 595.33l30.401-44.232a31.957 31.957 0 0 0 5.607-18.066v-93.354c0-69.34-55.415-123.649-126.155-123.649-70.74 0-126.155 54.309-126.155 123.649v93.354a31.777 31.777 0 0 0 5.918 18.488l30.962 43.562-122.667 58.778a31.895 31.895 0 0 0-18.128 28.768v59.262c0 17.614 14.268 31.896 31.897 31.896h391.61c17.631 0 31.898-14.282 31.898-31.896v-59.262a31.886 31.886 0 0 0-17.63-28.533z m-46.164 55.898H193.418v-7.273l138.738-66.474a31.808 31.808 0 0 0 17.101-20.792 31.734 31.734 0 0 0-4.889-26.462l-47.036-66.145v-83.17c0-33.564 27.381-59.854 62.361-59.854 34.981 0 62.362 26.29 62.362 59.854v83.447l-45.571 66.287a31.884 31.884 0 0 0-4.609 26.041c2.335 8.925 8.378 16.431 16.634 20.559l132.727 66.333v7.649z"  p-id="20940"></path><path d="M802.171 570.504c0-17.614-14.265-31.896-31.898-31.896H640.66c-17.629 0-31.896 14.282-31.896 31.896s14.268 31.897 31.896 31.897h129.612c17.634 0 31.899-14.281 31.899-31.897zM640.66 403.388c-17.629 0-31.896 14.283-31.896 31.897 0 17.615 14.268 31.896 31.896 31.896h202.972c17.629 0 31.896-14.282 31.896-31.896s-14.268-31.897-31.896-31.897H640.66z"  p-id="20941"></path><path d="M1009.816 734.599L812.101 932.313a25.718 25.718 0 0 1-18.244 7.558 25.725 25.725 0 0 1-18.246-7.558l-111.733-111.76a25.617 25.617 0 0 1-7.559-18.221c0-14.25 11.554-25.78 25.779-25.78a25.72 25.72 0 0 1 18.245 7.559l93.514 93.489L973.35 698.108a25.801 25.801 0 0 1 18.245-7.535c14.227 0 25.778 11.556 25.778 25.779a25.731 25.731 0 0 1-7.557 18.247z" p-id="20942"></path></svg>
