<?xml version="1.0" standalone="no"?><!DOCTYPE svg PUBLIC "-//W3C//DTD SVG 1.1//EN" "http://www.w3.org/Graphics/SVG/1.1/DTD/svg11.dtd"><svg t="1703062126021" class="icon" viewBox="0 0 1024 1024" version="1.1" xmlns="http://www.w3.org/2000/svg" p-id="10994" xmlns:xlink="http://www.w3.org/1999/xlink" width="128" height="128"><path d="M796.5 102H225c-36 0-65.3 31.2-65.3 69.6v82.1l-25.3 0.3c-13.3 0.1-23.9 11-23.7 24.2 0.1 13.2 10.9 23.8 24 23.8h0.3l96-1c13.3-0.1 23.9-11 23.7-24.2-0.1-13.3-11-23.9-24.2-23.7l-22.8 0.2v-81.6c0-11.7 7.9-21.6 17.3-21.6h571.5c15.7 0 28.5 12.8 28.5 28.5v676.7c0 10.3-7.8 18.7-17.3 18.7H225c-9.5 0-17.3-8.4-17.3-18.7v-81.9l23.3-0.2c13.3-0.1 23.9-11 23.7-24.2s-11-23.9-24.2-23.7l-42.2 0.4c-1.5-0.3-3-0.4-4.6-0.4-1.7 0-3.4 0.2-5.1 0.5l-44.2 0.5c-13.3 0.1-23.9 11-23.7 24.2 0.1 13.2 10.9 23.8 24 23.8h0.3l24.8-0.3v81.4c0 36.8 29.3 66.7 65.3 66.7h582.8c36 0 65.3-29.9 65.3-66.7V178.5c-0.2-42.2-34.5-76.5-76.7-76.5z" p-id="10995"></path><path d="M134.7 459.3h0.3l96-1c13.3-0.1 23.9-11 23.7-24.2-0.1-13.2-10.9-23.8-24-23.8h-0.3l-96 1c-13.3 0.1-23.9 11-23.7 24.2 0.1 13.3 10.8 23.8 24 23.8zM134.7 616.7h0.3l96-1c13.3-0.1 23.9-11 23.7-24.2s-11-23.9-24.2-23.7l-96 1c-13.3 0.1-23.9 11-23.7 24.2 0 13.1 10.7 23.7 23.9 23.7zM324.9 723.9c0 11 9 20 20 20s20-9 20-20c0-101.3 82.4-183.6 183.6-183.6s183.6 82.4 183.6 183.6c0 11 9 20 20 20s20-9 20-20c0-59.7-23.3-115.9-65.5-158.1-25.1-25.1-55-43.4-87.7-54.2 29.8-23.9 48.9-60.7 48.9-101.8 0-72-58.6-130.6-130.6-130.6s-130.6 58.6-130.6 130.6c0 44.4 22.3 83.8 56.4 107.4-26.9 11.1-51.6 27.5-72.8 48.7-42 42.1-65.3 98.2-65.3 158z m212.5-404.8c49.9 0 90.6 40.6 90.6 90.6 0 49.9-40.6 90.6-90.6 90.6s-90.6-40.6-90.6-90.6c0-50 40.6-90.6 90.6-90.6z" p-id="10996"></path></svg>