<?xml version="1.0" standalone="no"?><!DOCTYPE svg PUBLIC "-//W3C//DTD SVG 1.1//EN" "http://www.w3.org/Graphics/SVG/1.1/DTD/svg11.dtd"><svg t="1706074055380" class="icon" viewBox="0 0 1204 1024" version="1.1" xmlns="http://www.w3.org/2000/svg" p-id="12745" xmlns:xlink="http://www.w3.org/1999/xlink" width="235.15625" height="200"><path d="M1202.947301 642.844489c0-96.240624-130.925489-171.63033-291.346862-171.63033-10.676958 0-23.514908 0.381999-33.867868 1.034996V191.421252c1.493994-7.113972 0.936996-14.334944 0.936997-21.713915C878.669568 74.869708 756.940043 0.577998 596.51767 0.577998c-160.426373 0-286.075883 74.29271-286.075883 169.129339 0 7.379971 1.013996 14.601943 2.501991 21.713915v77.005699c-9.053965-0.485998-18.226929-0.789997-27.553893-0.789996-160.421373 0-283.733892 74.27971-283.733891 169.107339 0 7.400971-1.327995 14.621943 0.166999 21.735915v393.328464h1.949992c5.03398 89.65365 126.731505 159.149378 281.6169 159.149378 154.768395 0 284.23389-69.381729 289.44587-159.150378h1.945992v-16.382936c9.159964 0.532998 10.30996 1.389995 19.735923 1.389994 10.705958 0 21.161917-0.452998 31.506877-1.128995v4.626982h2.086992l-0.604998 10.716958c0 92.449639 125.749509 172.969324 286.281882 172.969324 160.554373 0 286.296882-73.509713 286.296881-167.534346l-0.311998-10.669958h1.798993V664.889403c1.519994-7.220972-0.624998-14.537943-0.624998-22.046914zM915.786423 525.776946c141.134449 0 239.484065 61.694759 239.484064 117.067543 0 55.365784-98.349616 117.061543-239.484064 117.061543-141.124449 0-239.477065-61.695759-239.477065-117.061543 0-55.372784 98.352616-117.067543 239.477065-117.067543z m242.031054 213.026168v29.613884c-13.494947 59.288768-120.762528 108.856575-242.034054 108.856575-121.182527 0-228.439108-49.533807-242.019055-108.761575v-29.709884c51.569799 45.944821 139.826454 75.666704 242.019055 75.666704 102.209601 0 190.463256-29.719884 242.034054-75.665704zM596.51767 500.017047c-9.306964 0-10.654958-0.401998-19.737923-0.984996v-40.551842c0.925996-4.402983 1.550994-8.853965 1.985992-13.351948 8.399967 0.504998 9.082965 0.809997 17.752931 0.809997 101.643603 0 185.007277-29.999883 234.575084-75.959703v22.779911c-13.302948 58.399772-115.09855 107.259581-234.576084 107.259581z m238.495068-22.709911c-4.139984 0.663997-8.313968 1.256995-12.377951 2.016992 4.196984-3.304987 8.605966-6.513975 12.377951-10.009961v7.992969zM596.51767 54.355788c139.064457 0 232.055094 60.787763 232.055093 115.351549 0 54.549787-92.990637 115.337549-232.057093 115.33755-139.067457 0-235.977078-60.787763-235.977078-115.33755 0-54.563787 96.909621-115.352549 235.979078-115.352549zM358.023601 264.248968c4.319983 3.852985 9.250964 7.416971 14.085945 11.027957-4.599982-0.843997-9.382963-1.435994-14.084945-2.142992v-8.885965z m-72.634716 57.144777c139.069457 0 239.896063 60.802762 239.896063 115.352549 0 54.569787-100.826606 115.338549-239.896063 115.338549-139.063457 0-235.972078-60.769763-235.972078-115.338549 0-54.549787 96.908621-115.352549 235.972078-115.352549zM46.895817 531.308925c50.831801 45.268823 137.787462 74.556709 238.493068 74.556708 100.705607 0 191.585252-29.289886 242.397053-74.556708v29.176886C514.49799 618.901582 404.874418 667.750392 285.387885 667.750392c-119.419534 0-225.099121-48.815809-238.491068-107.186582v-29.254885z m0 105.783586C96.463623 682.997332 183.735282 712.997215 285.388885 712.997215c101.643603 0 192.847247-29.999883 242.397053-75.956703v22.762911c-13.287948 58.412772-122.91252 107.259581-242.398053 107.259581-119.419534 0-225.100121-48.796809-238.491068-107.166582v-22.805911z m0 99.323612c49.567806 45.914821 136.839465 75.907703 238.493068 75.907704 101.643603 0 192.847247-29.992883 242.397053-75.958703v22.763911c-13.287948 58.419772-122.91152 107.262581-242.398053 107.262581-119.419534 0-225.099121-48.789809-238.491068-107.182582v-22.792911zM285.388885 965.706228c-123.964516-0.002-232.85909-52.611794-239.342065-113.896555h0.849997v-16.076938c49.566806 45.891821 136.837465 75.894704 238.492068 75.894704 101.643603 0 192.847247-30.001883 242.397053-75.939703v16.121937h0.835997c-6.480975 61.283761-119.279534 113.894555-243.23305 113.894555z m287.001879-566.237788c-9.440963-25.6829-36.246858-48.975809-62.609755-68.611732 27.313893 4.981981 56.28378 7.949969 86.737661 7.949969 100.705607 0 183.743282-29.287886 234.575084-74.556709v29.179886C817.792805 351.843626 715.997203 400.690435 596.51867 400.690435c-10.800958 0.001-13.626947-0.470998-24.127906-1.224995z m55.631783 390.793473c-10.35796 0.769997-20.847919 1.307995-31.505877 1.307995-9.306964 0-10.654958-0.388998-19.737923-0.989996v-47.647814c9.059965 0.581998 10.386959 0.969996 19.737923 0.969996 10.736958 0 21.173917-0.534998 31.505877-1.293995v47.653814z m0-92.936637c-10.35796 0.780997-20.847919 1.328995-31.505877 1.328995-9.306964 0-10.654958-0.409998-19.737923-0.983996v-54.072789c9.059965 0.583998 10.386959 0.983996 19.737923 0.983996 9.945961 0 19.629923-0.466998 29.206886-1.108996 0.247999 6.302975 1.039996 12.490951 2.299991 18.587928v35.264862z m6.737973-99.75961c-12.529951 1.120996-25.273901 1.771993-38.24285 1.771993-9.306964 0-10.653958-0.389998-19.736923-0.990996v-54.041789c9.059965 0.559998 10.385959 0.961996 19.736923 0.961996 30.69188 0 59.839766-3.029988 87.282659-8.119968-22.698911 17.631931-39.507846 38.059851-49.039809 60.419764zM915.787423 978.076179c-128.972496 0-242.219054-56.080781-243.496049-120.28953l0.403998-11.991953h0.682998c50.214804 46.797817 138.979457 77.405698 242.409053 77.405698 103.393596 0 192.131249-30.59488 242.364053-77.405698h0.770997l0.377998 10.881958c-0.002 64.666747-113.783556 121.399526-243.513048 121.399525zM262.721974 471.971156c-2.096992-2.51999-3.738985-7.462971-4.911981-14.831942H223.809126c-0.255999 16.197937 6.792973 27.661892 21.147917 34.385866 8.144968 3.737985 20.48992 6.251976 37.035855 7.537971v17.463931h12.210953v-17.637931c13.019949-0.688997 24.260905-3.094988 33.746868-7.181972 15.533939-6.660974 23.309909-17.364932 23.309909-32.102874 0-11.171956-5.644978-19.824923-16.929934-25.962899-6.851973-3.673986-20.227921-7.917969-40.125843-12.72195v-33.41487c8.298968 0.413998 14.014945 2.692989 17.172933 6.851974 1.818993 2.397991 3.067988 6.187976 3.723985 11.393955h33.135871c-0.504998-14.022945-7.820969-24.179906-21.937915-30.436881-7.76997-3.917985-18.479928-6.251976-32.094874-7.011973v-11.844953h-12.209953v11.669954c-8.559967 0.469998-15.086941 1.191995-19.519923 2.192991-7.317971 1.581994-13.944946 4.454983-19.898923 8.591967-4.615982 3.221987-8.207968 7.041972-10.767958 11.488955-2.56399 4.453983-3.846985 9.385963-3.846984 14.820942 0 8.248968 3.292987 15.29694 9.875961 21.148917 6.594974 5.835977 17.91893 10.397959 33.956867 13.682947l10.19996 2.099992V479.598127c-9.571963-1.162995-15.992938-3.707986-19.269924-7.625971z m31.482877-26.920894c6.972973 1.806993 11.917953 3.559986 14.818942 5.250979 4.899981 2.932989 7.341971 6.902973 7.341971 11.928953 0 6.609974-2.60199 11.252956-7.844969 13.946946-2.979988 1.515994-7.75797 2.57599-14.315944 3.155988v-34.282866z m-25.822899-30.971879c-5.281979-2.864989-7.935969-6.746974-7.935969-11.668955 0-4.495982 1.772993-8.042969 5.300979-10.652958 3.513986-2.59699 8.939965-3.948985 16.248936-4.075984v30.786879c-6.135976-1.338995-10.679958-2.804989-13.613946-4.388982z m620.987574 254.794004c-2.106992-2.51399-3.739985-7.443971-4.920981-14.810942h-33.999867c-0.247999 16.199937 6.793973 27.659892 21.147917 34.381866 8.144968 3.739985 20.49592 6.252976 37.037856 7.54797v17.439932h12.216952v-17.619931c13.013949-0.705997 24.259905-3.110988 33.747868-7.187972 15.531939-6.671974 23.303909-17.376932 23.303909-32.113874 0-11.169956-5.648978-19.807923-16.934934-25.950899-6.849973-3.693986-20.219921-7.929969-40.116843-12.72095v-33.41687c8.289968 0.400998 14.008945 2.692989 17.165933 6.841973 1.836993 2.397991 3.069988 6.199976 3.735985 11.404956h33.123871c-0.504998-14.034945-7.815969-24.177906-21.932914-30.428881-7.77597-3.917985-18.466928-6.272975-32.094875-7.030973v-11.831954h-12.215952v11.654955c-8.561967 0.483998-15.069941 1.211995-19.520924 2.194991-7.309971 1.581994-13.937946 4.446983-19.895922 8.604967-4.619982 3.209987-8.202968 7.050972-10.768958 11.476955-2.55699 4.452983-3.838985 9.402963-3.838985 14.832942 0 8.234968 3.289987 15.28594 9.887961 21.134917 6.584974 5.849977 17.90193 10.410959 33.936867 13.681947l10.199961 2.112992v37.445853c-9.574963-1.172995-15.991938-3.726985-19.263925-7.64397z m31.481877-26.914895c6.966973 1.819993 11.908953 3.562986 14.818942 5.25098 4.898981 2.932989 7.336971 6.915973 7.336971 11.947953 0 6.588974-2.60299 11.247956-7.834969 13.939946-2.990988 1.516994-7.76897 2.56399-14.318944 3.145987l-0.002-34.284866z m-25.825899-30.970879c-5.288979-2.852989-7.922969-6.736974-7.922969-11.648954 0-4.502982 1.751993-8.062969 5.282979-10.659959 3.533986-2.60899 8.936965-3.962985 16.246937-4.075984v30.77188c-6.129976-1.337995-10.659958-2.804989-13.606947-4.386983zM571.855766 207.619189c-2.099992-2.51399-3.738985-7.464971-4.916981-14.824942h-33.996867c-0.254999 16.197937 6.805973 27.659892 21.159918 34.377866 8.133968 3.745985 20.47792 6.257976 37.026855 7.54697v17.451932h12.209952V234.539084c13.012949-0.706997 24.259905-3.092988 33.745868-7.189972 15.533939-6.672974 23.303909-17.357932 23.303909-32.106875 0-11.159956-5.637978-19.813923-16.929934-25.958898-6.851973-3.672986-20.224921-7.927969-40.119843-12.712951v-33.419869c8.291968 0.419998 14.027945 2.689989 17.172933 6.849973 1.829993 2.385991 3.059988 6.193976 3.735986 11.401956h33.11587c-0.503998-14.039945-7.815969-24.184906-21.931914-30.434881-7.77497-3.917985-18.467928-6.258976-32.093875-7.012973V92.10164h-12.209952v11.674955c-8.566967 0.464998-15.075941 1.193995-19.527924 2.194991-7.295972 1.573994-13.936946 4.425983-19.896922 8.585967-4.619982 3.211987-8.203968 7.049972-10.767958 11.495955-2.55999 4.434983-3.839985 9.384963-3.839985 14.813942 0 8.256968 3.291987 15.29694 9.885961 21.133917 6.583974 5.848977 17.89993 10.417959 33.937868 13.683947l10.20896 2.117991v37.439854c-9.582963-1.175995-15.999938-3.709986-19.271925-7.62397z m31.479877-26.933895c6.965973 1.817993 11.911953 3.577986 14.820942 5.26998 4.897981 2.913989 7.341971 6.902973 7.341972 11.927953 0 6.609974-2.60999 11.251956-7.83297 13.945946-2.999988 1.511994-7.77797 2.56399-14.327944 3.156987l-0.002-34.299866z m-25.820899-30.953879c-5.289979-2.869989-7.924969-6.756974-7.924969-11.668954 0-4.496982 1.754993-8.063969 5.289979-10.657959 3.526986-2.59099 8.929965-3.962985 16.246937-4.078984v30.79388c-6.136976-1.357995-10.665958-2.803989-13.611947-4.387983z" fill="#333333" p-id="12746"></path></svg>