<?xml version="1.0" standalone="no"?><!DOCTYPE svg PUBLIC "-//W3C//DTD SVG 1.1//EN" "http://www.w3.org/Graphics/SVG/1.1/DTD/svg11.dtd"><svg t="1705545029276" class="icon" viewBox="0 0 1024 1024" version="1.1" xmlns="http://www.w3.org/2000/svg" p-id="49309" xmlns:xlink="http://www.w3.org/1999/xlink" width="200" height="200"><path d="M96 641.12c0 79.04 144.8 143.936 328.16 149.12a303.136 303.136 0 0 0 72.704 136.224 781.44 781.44 0 0 1-49.12 1.536C256.96 928 101.76 857.216 96.16 773.856L96 769.184v-128.064zM704 480a224 224 0 1 1 0 448 224 224 0 0 1 0-448z m19.648 69.888a32 32 0 0 0-39.456 0.128l-3.04 2.688-95.264 97.12-2.656 3.04a32 32 0 0 0 45.344 44.48l2.976-2.72 40.416-41.216L672 832l0.224 3.744A32 32 0 0 0 736 832v-179.296l41.312 41.472 3.008 2.688a32 32 0 0 0 39.232 0.096l3.008-2.656 2.688-3.008a32 32 0 0 0 0.096-39.232l-2.656-3.008-96-96.48zM96 470.368c0 80.32 149.44 145.984 336.96 149.28a303.264 303.264 0 0 0-14.784 137.024c-177.056-6.848-316.736-74.56-322.016-153.6L96 598.464V470.4z m703.072-170.752v126.784A304.384 304.384 0 0 0 720 416a304 304 0 0 0-273.184 170.464h0.96c-190.848 0-346.048-70.752-351.616-154.144L96 427.68V299.616c0 82.4 157.376 149.44 351.744 149.44 193.952 0 351.36-67.04 351.36-149.44zM447.744 96c194.272 0 351.776 66.88 351.776 149.44 0 82.496-157.504 149.376-351.776 149.376C253.504 394.816 96 327.936 96 245.44 96 162.88 253.472 96 447.744 96z" p-id="49310"></path></svg>