<?xml version="1.0" encoding="UTF-8"?>
<svg width="560px" height="200px" viewBox="0 0 560 200" version="1.1" xmlns="http://www.w3.org/2000/svg" xmlns:xlink="http://www.w3.org/1999/xlink">
    <!-- Generator: Sketch 52.5 (67469) - http://www.bohemiancoding.com/sketch -->
    <title>403</title>
    <desc>Created with Sketch.</desc>
    <defs>
        <linearGradient x1="50%" y1="-20.942345%" x2="50%" y2="100%" id="linearGradient-1">
            <stop stop-color="#EEEEEE" offset="0%"></stop>
            <stop stop-color="#D8D8D8" offset="100%"></stop>
        </linearGradient>
        <linearGradient x1="74.2370035%" y1="50%" x2="19.4527599%" y2="50%" id="linearGradient-2">
            <stop stop-color="#E7E7E7" stop-opacity="0" offset="0%"></stop>
            <stop stop-color="#002F8E" offset="100%"></stop>
        </linearGradient>
        <filter x="-5.6%" y="-46.7%" width="111.2%" height="193.5%" filterUnits="objectBoundingBox" id="filter-3">
            <feGaussianBlur stdDeviation="1.6" in="SourceGraphic"></feGaussianBlur>
        </filter>
    </defs>
    <g id="Page-1" stroke="none" stroke-width="1" fill="none" fill-rule="evenodd">
        <g id="异常页-403" transform="translate(-551.000000, -286.000000)" fill-rule="nonzero">
            <g id="Group-5" transform="translate(551.000000, 193.000000)">
                <g id="Group-2">
                    <g id="分组-3" transform="translate(0.000000, 93.000000)">
                        <g id="Group-4" transform="translate(7.000000, 29.000000)">
                            <polygon id="Rectangle-Copy-14" fill="#002F8E" points="128.05013 0.31700145 162.037512 0.31700145 162.037512 168.193753 128.05013 168.193753"></polygon>
                            <polygon id="Rectangle-Copy-15" fill="#002F8E" points="407.128535 0.40960452 440.965734 0.360169492 441.004964 164.295651 407.017581 164.295651"></polygon>
                            <polygon id="Rectangle-Copy-16" fill="#002F8E" points="241.191728 0.31700145 275.17911 0.31700145 275.17911 165.01599 241.191728 165.01599"></polygon>
                            <polygon id="Rectangle-Copy-17" fill="#316DE6" points="128.05013 0.31700145 161.87172 0.31700145 178.948308 10.15006 144.960925 10.15006"></polygon>
                            <polygon id="Rectangle-Copy-18" fill="#316DE6" points="407.128535 0.40960452 440.839172 0.31700145 457.915759 10.15006 423.687164 10.15006"></polygon>
                            <polygon id="Rectangle-Copy-19" fill="#316DE6" points="241.243045 -8.7335104e-15 275.064636 0 318.987153 16.2507952 285.509924 16.2507952"></polygon>
                            <path d="M48.1844802,117.075472 C211.99259,117.075472 318.154399,117.075472 366.669908,117.075472 C373.393421,117.075472 379.831933,117.075472 385.985445,117.075472 C449.692182,117.075472 482.851743,117.075472 485.464129,117.075472 C493.85798,117.075472 497.455344,119.481132 502.651537,124.292453 C507.847731,129.103774 519.439239,136.939789 519.439239,150.754717 C519.439239,159.964669 514.376281,165.97882 504.250366,168.79717 C220.001315,168.79717 71.8431895,168.79717 59.7759883,168.79717 C52.0483163,168.785635 45.38653,164.153203 39.7906296,154.899873 C34.727672,146.95158 32.1961933,141.42678 32.1961933,138.325472 C32.1961933,128.902258 37.5256223,121.818924 48.1844802,117.075472 Z M63.8101467,134.716981 C57.167099,134.716981 51.7818448,140.102235 51.7818448,146.745283 C51.7818448,153.388331 57.167099,158.773585 63.8101467,158.773585 L501.815036,158.773585 C508.458084,158.773585 513.843338,153.388331 513.843338,146.745283 C513.843338,140.102235 508.458084,134.716981 501.815036,134.716981 L386.736457,134.716981 L366.351391,134.716981 L63.8101467,134.716981 Z" id="Combined-Shape" fill="url(#linearGradient-1)"></path>
                            <polygon id="Rectangle-Copy-25" fill="url(#linearGradient-2)" opacity="0.395517125" filter="url(#filter-3)" points="132.922401 120.283019 147.711567 130.552857 79.2508188 130.099439 62.1742313 120.283019"></polygon>
                            <polygon id="Rectangle-Copy-24" fill="#FFCD00" opacity="0.598693269" points="99.7467057 93.0188679 134.799351 93.0188679 149.167229 101.561889 112.101837 101.561889"></polygon>
                            <polygon id="Rectangle-Copy-26" fill="#FFF664" points="112.101837 101.561889 149.167229 101.561889 149.167229 132.627422 112.101837 132.627422"></polygon>
                            <ellipse id="Oval" fill="#E75213" cx="115.838813" cy="105.952526" rx="1.93105284" ry="1.94004869"></ellipse>
                            <ellipse id="Oval" fill="#E75213" cx="122.275656" cy="105.952526" rx="1.93105284" ry="1.94004869"></ellipse>
                            <ellipse id="Oval" fill="#E75213" cx="128.712498" cy="105.952526" rx="1.93105284" ry="1.94004869"></ellipse>
                            <polygon id="Path-10" fill="#FFC30F" points="99.7796153 93.0505326 99.7796153 123.307762 112.101837 132.627422 112.101837 101.561889"></polygon>
                            <polygon id="Rectangle-Copy-24" fill="#FFCD00" opacity="0.598693269" points="197.275256 93.0188679 232.327901 93.0188679 246.69578 101.561889 209.630387 101.561889"></polygon>
                            <polygon id="Rectangle-Copy-26" fill="#FFF664" points="209.630387 101.561889 246.69578 101.561889 246.69578 132.627422 209.630387 132.627422"></polygon>
                            <ellipse id="Oval" fill="#E75213" cx="213.367363" cy="105.952526" rx="1.93105284" ry="1.94004869"></ellipse>
                            <ellipse id="Oval" fill="#E75213" cx="219.804206" cy="105.952526" rx="1.93105284" ry="1.94004869"></ellipse>
                            <ellipse id="Oval" fill="#E75213" cx="226.241049" cy="105.952526" rx="1.93105284" ry="1.94004869"></ellipse>
                            <polygon id="Path-10" fill="#FFC30F" points="197.308166 93.0505326 197.308166 123.307762 209.630387 132.627422 209.630387 101.561889"></polygon>
                            <polygon id="Rectangle-Copy-24" fill="#FFCD00" opacity="0.598693269" points="284.41142 93.0188679 319.696163 93.0188679 334.159176 101.515347 296.848359 101.515347"></polygon>
                            <polygon id="Rectangle-Copy-26" fill="#FFF664" points="296.848359 101.515347 334.159176 101.515347 334.159176 132.411637 296.848359 132.411637"></polygon>
                            <ellipse id="Oval" fill="#E75213" cx="300.610079" cy="105.882064" rx="1.9438391" ry="1.92947942"></ellipse>
                            <ellipse id="Oval" fill="#E75213" cx="307.089543" cy="105.882064" rx="1.9438391" ry="1.92947942"></ellipse>
                            <ellipse id="Oval" fill="#E75213" cx="313.569007" cy="105.882064" rx="1.9438391" ry="1.92947942"></ellipse>
                            <polygon id="Path-10" fill="#FFC30F" points="284.444548 93.0503601 284.444548 123.14275 296.848359 132.411637 296.848359 101.515347"></polygon>
                            <polygon id="Rectangle-Copy-28" fill="#205FDE" points="127.7628 0.31700145 144.705261 10.15006 76.8646217 88.9811903 59.8197002 78.9814698"></polygon>
                            <polygon id="Rectangle-Copy-29" fill="#316DE6" points="441.325704 0 457.884334 9.99972055 375.801876 9.99972055 357.158126 0"></polygon>
                            <polygon id="Rectangle-Copy-33" fill="#316DE6" points="441.325704 78.5849057 457.884334 88.5846262 375.801876 88.5846262 358.756955 78.5849057"></polygon>
                            <polygon id="Rectangle-Copy-36" fill="#647EB3" points="425.1672 158.773585 441.725829 168.773305 377.400705 168.773305 360.355783 158.773585"></polygon>
                            <polygon id="Rectangle-Copy-25" fill="#002F8E" points="60 79 77.0765874 89 77.0765874 130.543863 60 120.727442"></polygon>
                            <ellipse id="Oval" stroke="#D8D8D8" stroke-width="3.2" cx="66.1713031" cy="147.54717" rx="6.39531479" ry="6.41509434"></ellipse>
                            <ellipse id="Oval" stroke="#D8D8D8" stroke-width="3.2" cx="500.253294" cy="147.54717" rx="6.39531479" ry="6.41509434"></ellipse>
                            <path d="" id="Path-13" stroke="#979797" stroke-width="0.864000011"></path>
                            <polygon id="Rectangle-Copy-27" fill="#2642C3" points="285.210835 16.0377358 318.894211 16.0377358 318.894211 169.338883 285.210835 169.338883"></polygon>
                            <rect id="Rectangle-Copy-30" fill="#2642C3" x="144.45998" y="9.83305854" width="33.9873828" height="159.718884"></rect>
                            <polygon id="Rectangle-Copy-31" fill="#2642C3" points="423.687164 10.0847458 457.414814 9.83305854 457.414814 168.773305 423.687164 168.773305"></polygon>
                            <g id="分组-4" transform="translate(0.000000, 56.000000)" fill="#C2C2C2">
                                <path d="M15.830713,13.5728236 C15.830713,12.2099374 14.7326344,11.1067505 13.380329,11.1067505 C12.0278959,11.1067505 10.9294858,12.2100651 10.9294858,13.5728236 C10.9294858,14.9358641 12.0277172,16.0388966 13.380329,16.0388966 C14.732813,16.0388966 15.830713,14.9359918 15.830713,13.5728236 Z M16.790713,13.5728236 C16.790713,15.4652815 15.2639153,16.9988966 13.380329,16.9988966 C11.4967428,16.9988966 9.96948584,15.4652815 9.96948584,13.5728236 C9.96948584,11.6808268 11.4967428,10.1467505 13.380329,10.1467505 C15.2639153,10.1467505 16.790713,11.6808268 16.790713,13.5728236 Z" id="Stroke-1"></path>
                                <path d="M18.9789717,13.8363676 C18.9789717,10.5813735 16.3539299,7.94422156 13.1179741,7.94422156 C9.88191075,7.94422156 7.25651737,10.5814813 7.25651737,13.8363676 C7.25651737,17.091546 9.8817421,19.7285137 13.1179741,19.7285137 C16.3540985,19.7285137 18.9789717,17.0916539 18.9789717,13.8363676 Z M19.9389717,13.8363676 C19.9389717,17.6208706 16.8852734,20.6885137 13.1179741,20.6885137 C9.35067482,20.6885137 6.29651737,17.6208706 6.29651737,13.8363676 C6.29651737,10.052326 9.35067482,6.98422156 13.1179741,6.98422156 C16.8852734,6.98422156 19.9389717,10.052326 19.9389717,13.8363676 Z" id="Stroke-3"></path>
                                <path d="M22.6519402,13.8363676 C22.6519402,8.84027689 18.5053465,4.7816926 13.3800994,4.7816926 C8.25485235,4.7816926 4.10825869,8.84027689 4.10825869,13.8363676 C4.10825869,18.8327458 8.25468725,22.8910427 13.3800994,22.8910427 C18.5055116,22.8910427 22.6519402,18.8327458 22.6519402,13.8363676 Z M23.6119402,13.8363676 C23.6119402,19.3677655 19.030985,23.8510427 13.3800994,23.8510427 C7.72921386,23.8510427 3.14825869,19.3677655 3.14825869,13.8363676 C3.14825869,8.3054193 7.72921386,3.8216926 13.3800994,3.8216926 C19.030985,3.8216926 23.6119402,8.3054193 23.6119402,13.8363676 Z" id="Stroke-5"></path>
                                <path d="M25.8001988,13.5725974 C25.8001988,6.67904279 20.2384773,1.09207547 13.3800994,1.09207547 C6.52172155,1.09207547 0.96,6.67904279 0.96,13.5725974 C0.96,20.4665394 6.52165693,26.0535717 13.3800994,26.0535717 C20.2385419,26.0535717 25.8001988,20.4665394 25.8001988,13.5725974 Z M26.7601988,13.5725974 C26.7601988,20.9956706 20.7698019,27.0135717 13.3800994,27.0135717 C5.99039693,27.0135717 -6.92779167e-14,20.9956706 -6.92779167e-14,13.5725974 C-6.92779167e-14,6.14997652 5.99039693,0.132075472 13.3800994,0.132075472 C20.7698019,0.132075472 26.7601988,6.14997652 26.7601988,13.5725974 Z" id="Stroke-7"></path>
                            </g>
                            <path d="" id="Path-2" stroke="#979797" stroke-width="0.8"></path>
                            <polygon id="Triangle" fill="#E75213" points="380.920937 100.235849 382.919473 134.716981 374.125915 117.647073"></polygon>
                            <polygon id="Path-26" fill="#E75213" opacity="0.67485119" points="380.920937 100.278769 388.115666 100.278769 390.913616 134.716981 382.919473 134.716981"></polygon>
                            <g id="分组-3" transform="translate(527.000000, 134.000000)" fill="#002F8E">
                                <path d="M18.1675579,3.44497608 C17.2133795,3.44497608 16.7126266,2.83329574 16.3462221,2.38783288 C16.0393583,2.01360609 15.9027199,1.86163582 15.5721925,1.86163582 C15.2416651,1.86163582 15.1042634,2.01360609 14.7981629,2.38783288 C14.4317584,2.83329574 13.9310056,3.44497608 12.9768271,3.44497608 C12.0218853,3.44497608 11.5211324,2.83329574 11.1547279,2.38783288 C10.8486275,2.01360609 10.7112258,1.86163582 10.3814617,1.86163582 C10.0509343,1.86163582 9.91353256,2.01360609 9.60743211,2.38783288 C9.24179092,2.83329574 8.74027472,3.44497608 7.78609626,3.44497608 C6.83115445,3.44497608 6.33040159,2.83329574 5.96476041,2.38783288 C5.65789661,2.01360609 5.52049491,1.86163582 5.19073084,1.86163582 C4.86020342,1.86163582 4.72280172,2.01360609 4.41670127,2.38783288 C4.05106008,2.83329574 3.54954388,3.44497608 2.59536542,3.44497608 C1.64118696,3.44497608 1.13967076,2.83329574 0.774029569,2.38783288 C0.467929118,2.01360609 0.329764077,1.86163582 -1.02673425e-12,1.86163582 L-1.02673425e-12,-1.48525636e-12 C0.954178463,-1.48525636e-12 1.45569466,0.61168034 1.82133585,1.05809301 C2.1274363,1.43136999 2.264838,1.58334026 2.59536542,1.58334026 C2.9251295,1.58334026 3.06253119,1.43136999 3.36939499,1.0571432 C3.73503617,0.61168034 4.23655237,-1.48525636e-12 5.19073084,-1.48525636e-12 C6.1449093,-1.48525636e-12 6.6464255,0.61168034 7.01206669,1.05809301 C7.31816714,1.43136999 7.45556884,1.58334026 7.78609626,1.58334026 C8.11662368,1.58334026 8.25326203,1.43136999 8.56012583,1.05809301 C8.92576701,0.61168034 9.42651987,-1.48525636e-12 10.3814617,-1.48525636e-12 C11.3356401,-1.48525636e-12 11.8371563,0.61168034 12.2027975,1.05809301 C12.508898,1.43136999 12.647063,1.58334026 12.9768271,1.58334026 C13.3065912,1.58334026 13.4447562,1.43136999 13.7508567,1.0571432 C14.1164979,0.61168034 14.6180141,-1.48525636e-12 15.5721925,-1.48525636e-12 C16.526371,-1.48525636e-12 17.0278872,0.61168034 17.3935284,1.0571432 C17.7003922,1.43136999 17.8377939,1.58334026 18.1675579,1.58334026 C18.4980854,1.58334026 18.6354871,1.43136999 18.9415875,1.0571432 C19.307992,0.61168034 19.8087449,-1.48525636e-12 20.7629234,-1.48525636e-12 L20.7629234,1.86163582 C20.4331593,1.86163582 20.2957576,2.01360609 19.9896571,2.38783288 C19.6232526,2.83329574 19.1217364,3.44497608 18.1675579,3.44497608" id="Fill-51"></path>
                                <path d="M22.8948307,8.35406699 C21.9406522,8.35406699 21.4398993,7.74221795 21.0734948,7.29663224 C20.766631,6.92325232 20.6299927,6.77124014 20.2994652,6.77124014 C19.9689378,6.77124014 19.8315361,6.92325232 19.5254357,7.29663224 C19.1590311,7.74221795 18.6582783,8.35406699 17.7040998,8.35406699 C16.749158,8.35406699 16.2484052,7.74221795 15.8820006,7.29663224 C15.5759002,6.92325232 15.4384985,6.77124014 15.1087344,6.77124014 C14.778207,6.77124014 14.6408053,6.92325232 14.3347048,7.29663224 C13.9690636,7.74221795 13.4675474,8.35406699 12.513369,8.35406699 C11.5584272,8.35406699 11.0576743,7.74221795 10.6920331,7.29663224 C10.3851693,6.92325232 10.2477676,6.77124014 9.91800357,6.77124014 C9.58747615,6.77124014 9.45007445,6.92325232 9.143974,7.29663224 C8.77833281,7.74221795 8.27681661,8.35406699 7.32263815,8.35406699 C6.36845968,8.35406699 5.86694348,7.74221795 5.5013023,7.29663224 C5.19520185,6.92325232 5.0570368,6.77124014 4.72727273,6.77124014 L4.72727273,4.90909091 C5.68145119,4.90909091 6.18296739,5.51998987 6.54860858,5.96652565 C6.85470903,6.33990557 6.99211073,6.49191776 7.32263815,6.49191776 C7.65240222,6.49191776 7.78980392,6.33990557 8.09666772,5.96652565 C8.4623089,5.51998987 8.9638251,4.90909091 9.91800357,4.90909091 C10.872182,4.90909091 11.3736982,5.51998987 11.7393394,5.96652565 C12.0454399,6.33990557 12.1828416,6.49191776 12.513369,6.49191776 C12.8438964,6.49191776 12.9805348,6.33990557 13.2873986,5.96652565 C13.6530397,5.51998987 14.1537926,4.90909091 15.1087344,4.90909091 C16.0629129,4.90909091 16.5644291,5.51998987 16.9300703,5.96652565 C17.2361707,6.33990557 17.3743357,6.49191776 17.7040998,6.49191776 C18.0338639,6.49191776 18.1720289,6.33990557 18.4781294,5.96652565 C18.8437706,5.51998987 19.3452868,4.90909091 20.2994652,4.90909091 C21.2536437,4.90909091 21.7551599,5.51998987 22.1208011,5.96652565 C22.4276649,6.33990557 22.5650666,6.49191776 22.8948307,6.49191776 C23.2253581,6.49191776 23.3627598,6.33990557 23.6688602,5.96652565 C24.0352648,5.51998987 24.5360176,4.90909091 25.4901961,4.90909091 L25.4901961,6.77124014 C25.160432,6.77124014 25.0230303,6.92325232 24.7169299,7.29663224 C24.3505253,7.74221795 23.8490091,8.35406699 22.8948307,8.35406699" id="Fill-53"></path>
                            </g>
                        </g>
                    </g>
                </g>
            </g>
        </g>
    </g>
</svg>