<?xml version="1.0" encoding="UTF-8"?>
<svg width="560px" height="200px" viewBox="0 0 560 200" version="1.1" xmlns="http://www.w3.org/2000/svg" xmlns:xlink="http://www.w3.org/1999/xlink">
    <!-- Generator: Sketch 52.5 (67469) - http://www.bohemiancoding.com/sketch -->
    <title>404</title>
    <desc>Created with Sketch.</desc>
    <defs>
        <linearGradient x1="50%" y1="-20.942345%" x2="50%" y2="100%" id="linearGradient-1">
            <stop stop-color="#EEEEEE" offset="0%"></stop>
            <stop stop-color="#D8D8D8" offset="100%"></stop>
        </linearGradient>
        <linearGradient x1="74.2370035%" y1="50%" x2="19.4527599%" y2="50%" id="linearGradient-2">
            <stop stop-color="#E7E7E7" stop-opacity="0" offset="0%"></stop>
            <stop stop-color="#002F8E" offset="100%"></stop>
        </linearGradient>
        <filter x="-5.6%" y="-46.7%" width="111.2%" height="193.5%" filterUnits="objectBoundingBox" id="filter-3">
            <feGaussianBlur stdDeviation="1.6" in="SourceGraphic"></feGaussianBlur>
        </filter>
    </defs>
    <g id="Page-1" stroke="none" stroke-width="1" fill="none" fill-rule="evenodd">
        <g id="异常页-404" transform="translate(-551.000000, -286.000000)">
            <g id="Group-4" transform="translate(548.000000, 193.000000)">
                <g id="Group-2" transform="translate(0.000000, 93.000000)">
                    <g id="Group-6" transform="translate(0.000000, 2.000000)">
                        <polygon id="Rectangle-Copy-14" fill="#002F8E" fill-rule="nonzero" points="144.1652 27.3170015 178.191285 27.3170015 178.191285 195.193753 144.1652 195.193753"></polygon>
                        <polygon id="Rectangle-Copy-15" fill="#002F8E" fill-rule="nonzero" points="431.56465 27.4096045 465.440381 27.3601695 465.479656 191.295651 431.45357 191.295651"></polygon>
                        <polygon id="Rectangle-Copy-16" fill="#002F8E" fill-rule="nonzero" points="257.435637 27.3170015 291.461722 27.3170015 291.461722 192.01599 257.435637 192.01599"></polygon>
                        <polygon id="Rectangle-Copy-17" fill="#316DE6" fill-rule="nonzero" points="144.1652 27.3170015 178.025304 27.3170015 195.121338 37.15006 161.095252 37.15006"></polygon>
                        <polygon id="Rectangle-Copy-18" fill="#316DE6" fill-rule="nonzero" points="431.56465 27.4096045 465.313675 27.3170015 482 37 448.142136 37.15006"></polygon>
                        <polygon id="Rectangle-Copy-19" fill="#316DE6" fill-rule="nonzero" points="257.487013 27 291.347118 27 335.319651 43.2507952 301.8043 43.2507952"></polygon>
                        <path d="M376.263453,144.075472 L384.96918,161.716981 L382.737825,161.716981 L82.2100649,161.716981 C74.2571645,161.716981 67.8100649,168.164081 67.8100649,176.116981 L67.8100649,176.986792 C67.8100649,184.939693 74.2571645,191.386792 82.2100649,191.386792 L515.997727,191.386792 C523.950628,191.386792 530.397727,184.939693 530.397727,176.986792 L530.397727,176.116981 C530.397727,168.164081 523.950628,161.716981 515.997727,161.716981 L403.546266,161.716981 L403.546266,144.075472 C466.573323,144.075472 499.386633,144.075472 501.986201,144.075472 C510.38961,144.075472 513.991071,146.481132 519.193182,151.292453 C524.395292,156.103774 536,163.939789 536,177.754717 C536,186.964669 530.931277,192.97882 520.793831,195.79717 C237.821744,195.79717 90.2952284,195.79717 78.2142857,195.79717 C60.0928717,195.79717 48.2021104,179.460293 48.2021104,165.325472 C48.2021104,155.902258 53.5376082,148.818924 64.2086039,144.075472 C220.939919,144.075472 324.95821,144.075472 376.263477,144.075472 Z" id="Combined-Shape" fill="url(#linearGradient-1)" fill-rule="nonzero"></path>
                        <polygon id="Rectangle-Copy-25" fill="url(#linearGradient-2)" fill-rule="nonzero" opacity="0.485802653" filter="url(#filter-3)" points="146.642045 145.679245 161.448052 155.949083 92.909345 155.495666 75.8133117 145.679245"></polygon>
                        <polygon id="Rectangle-Copy-24" fill="#FFCD00" fill-rule="nonzero" opacity="0.598693269" points="119.831169 120.018868 155.156091 120.018868 169.635575 128.515347 132.28227 128.515347"></polygon>
                        <polygon id="Rectangle-Copy-26" fill="#FFF664" fill-rule="nonzero" points="132.28227 128.515347 169.635575 128.515347 169.635575 159.411637 132.28227 159.411637"></polygon>
                        <ellipse id="Oval" fill="#E75213" fill-rule="nonzero" cx="136.048274" cy="132.882064" rx="1.94605263" ry="1.92947942"></ellipse>
                        <ellipse id="Oval" fill="#E75213" fill-rule="nonzero" cx="142.535116" cy="132.882064" rx="1.94605263" ry="1.92947942"></ellipse>
                        <ellipse id="Oval" fill="#E75213" fill-rule="nonzero" cx="149.021958" cy="132.882064" rx="1.94605263" ry="1.92947942"></ellipse>
                        <polygon id="Path-10" fill="#FFC30F" fill-rule="nonzero" points="119.864334 120.05036 119.864334 150.14275 132.28227 159.411637 132.28227 128.515347"></polygon>
                        <polygon id="Rectangle-Copy-24" fill="#FFCD00" fill-rule="nonzero" opacity="0.598693269" points="221.472403 120.018868 256.564964 120.018868 270.949203 128.561889 233.841603 128.561889"></polygon>
                        <polygon id="Rectangle-Copy-26" fill="#FFF664" fill-rule="nonzero" points="233.841603 128.561889 270.949203 128.561889 270.949203 159.627422 233.841603 159.627422"></polygon>
                        <ellipse id="Oval" fill="#E75213" fill-rule="nonzero" cx="237.582834" cy="132.952526" rx="1.93325181" ry="1.94004869"></ellipse>
                        <ellipse id="Oval" fill="#E75213" fill-rule="nonzero" cx="244.027007" cy="132.952526" rx="1.93325181" ry="1.94004869"></ellipse>
                        <ellipse id="Oval" fill="#E75213" fill-rule="nonzero" cx="250.47118" cy="132.952526" rx="1.93325181" ry="1.94004869"></ellipse>
                        <polygon id="Path-10" fill="#FFC30F" fill-rule="nonzero" points="221.50535 120.050533 221.50535 150.307762 233.841603 159.627422 233.841603 128.561889"></polygon>
                        <polygon id="Rectangle-Copy-24" fill="#FFCD00" fill-rule="nonzero" opacity="0.598693269" points="311.108766 120.018868 346.433689 120.018868 360.913172 128.515347 323.559868 128.515347"></polygon>
                        <polygon id="Rectangle-Copy-26" fill="#FFF664" fill-rule="nonzero" points="323.559868 128.515347 360.913172 128.515347 360.913172 159.411637 323.559868 159.411637"></polygon>
                        <ellipse id="Oval" fill="#E75213" fill-rule="nonzero" cx="327.325871" cy="132.882064" rx="1.94605263" ry="1.92947942"></ellipse>
                        <ellipse id="Oval" fill="#E75213" fill-rule="nonzero" cx="333.812714" cy="132.882064" rx="1.94605263" ry="1.92947942"></ellipse>
                        <ellipse id="Oval" fill="#E75213" fill-rule="nonzero" cx="340.299556" cy="132.882064" rx="1.94605263" ry="1.92947942"></ellipse>
                        <polygon id="Path-10" fill="#FFC30F" fill-rule="nonzero" points="311.141931 120.05036 311.141931 150.14275 323.559868 159.411637 323.559868 128.515347"></polygon>
                        <polygon id="Rectangle-Copy-24" fill="#FFCD00" fill-rule="nonzero" opacity="0.598693269" transform="translate(411.922114, 126.560541) rotate(-30.000000) translate(-411.922114, -126.560541) " points="387.183713 122.28903 422.276274 122.28903 436.660514 130.832052 399.552913 130.832052"></polygon>
                        <polygon id="Rectangle-Copy-26" fill="#FFF664" fill-rule="nonzero" transform="translate(427.180273, 140.619248) rotate(-30.000000) translate(-427.180273, -140.619248) " points="408.626473 125.086481 445.734073 125.086481 445.734073 156.152014 408.626473 156.152014"></polygon>
                        <ellipse id="Oval" fill="#E75213" fill-rule="nonzero" transform="translate(408.781147, 138.376165) rotate(-30.000000) translate(-408.781147, -138.376165) " cx="408.781147" cy="138.376165" rx="1.93325181" ry="1.94004869"></ellipse>
                        <ellipse id="Oval" fill="#E75213" fill-rule="nonzero" transform="translate(414.361964, 135.154078) rotate(-30.000000) translate(-414.361964, -135.154078) " cx="414.361964" cy="135.154078" rx="1.93325181" ry="1.94004869"></ellipse>
                        <ellipse id="Oval" fill="#E75213" fill-rule="nonzero" transform="translate(419.942782, 131.931992) rotate(-30.000000) translate(-419.942782, -131.931992) " cx="419.942782" cy="131.931992" rx="1.93325181" ry="1.94004869"></ellipse>
                        <polygon id="Path-10" fill="#FFC30F" fill-rule="nonzero" transform="translate(403.642617, 149.294686) rotate(-30.000000) translate(-403.642617, -149.294686) " points="397.47449 129.506241 397.47449 159.76347 409.810744 169.08313 409.810744 138.017598"></polygon>
                        <polygon id="Rectangle-Copy-28" fill="#205FDE" fill-rule="nonzero" points="144.1652 27.3170015 161 37 92.9214047 115.98119 75.8570734 105.98147"></polygon>
                        <polygon id="Rectangle-Copy-25" fill="#002F8E" fill-rule="nonzero" points="75.8133117 105.584906 92.909345 115.796534 92.909345 155.128769 75.8133117 145.312348"></polygon>
                        <ellipse id="Oval" stroke="#D8D8D8" stroke-width="3.2" fill-rule="nonzero" cx="86.8634085" cy="176.776143" rx="8.64912281" ry="8.6440678"></ellipse>
                        <ellipse id="Oval-Copy" stroke="#D8D8D8" stroke-width="3.2" fill-rule="nonzero" cx="510.225747" cy="176.776143" rx="8.63970853" ry="8.6440678"></ellipse>
                        <path d="" id="Path-13" stroke="#979797" stroke-width="0.864000011" fill-rule="nonzero"></path>
                        <polygon id="Rectangle-Copy-27" fill="#2642C3" fill-rule="nonzero" points="301.752924 43.2507952 335.474657 43.2507952 335.474657 196.551942 301.752924 196.551942"></polygon>
                        <rect id="Rectangle-Copy-30" fill="#2642C3" fill-rule="nonzero" x="160.593736" y="36.8330585" width="34.0260856" height="159.718884"></rect>
                        <polygon id="Rectangle-Copy-31" fill="#2642C3" fill-rule="nonzero" points="448.142136 37.0847458 482 37 481.908192 196.279661 448.142136 196.279661"></polygon>
                        <polygon id="Rectangle-Copy-29" fill="#205FDE" fill-rule="nonzero" points="431.56465 27.4096045 448.142136 37.0847458 380.497574 116.125947 363.433243 106.126227"></polygon>
                        <g id="分组-3" transform="translate(537.000000, 148.000000)" fill="#002F8E" fill-rule="nonzero">
                            <path d="M18.1675579,3.44497608 C17.2133795,3.44497608 16.7126266,2.83329574 16.3462221,2.38783288 C16.0393583,2.01360609 15.9027199,1.86163582 15.5721925,1.86163582 C15.2416651,1.86163582 15.1042634,2.01360609 14.7981629,2.38783288 C14.4317584,2.83329574 13.9310056,3.44497608 12.9768271,3.44497608 C12.0218853,3.44497608 11.5211324,2.83329574 11.1547279,2.38783288 C10.8486275,2.01360609 10.7112258,1.86163582 10.3814617,1.86163582 C10.0509343,1.86163582 9.91353256,2.01360609 9.60743211,2.38783288 C9.24179092,2.83329574 8.74027472,3.44497608 7.78609626,3.44497608 C6.83115445,3.44497608 6.33040159,2.83329574 5.96476041,2.38783288 C5.65789661,2.01360609 5.52049491,1.86163582 5.19073084,1.86163582 C4.86020342,1.86163582 4.72280172,2.01360609 4.41670127,2.38783288 C4.05106008,2.83329574 3.54954388,3.44497608 2.59536542,3.44497608 C1.64118696,3.44497608 1.13967076,2.83329574 0.774029569,2.38783288 C0.467929118,2.01360609 0.329764077,1.86163582 -1.02673425e-12,1.86163582 L-1.02673425e-12,-1.48525636e-12 C0.954178463,-1.48525636e-12 1.45569466,0.61168034 1.82133585,1.05809301 C2.1274363,1.43136999 2.264838,1.58334026 2.59536542,1.58334026 C2.9251295,1.58334026 3.06253119,1.43136999 3.36939499,1.0571432 C3.73503617,0.61168034 4.23655237,-1.48525636e-12 5.19073084,-1.48525636e-12 C6.1449093,-1.48525636e-12 6.6464255,0.61168034 7.01206669,1.05809301 C7.31816714,1.43136999 7.45556884,1.58334026 7.78609626,1.58334026 C8.11662368,1.58334026 8.25326203,1.43136999 8.56012583,1.05809301 C8.92576701,0.61168034 9.42651987,-1.48525636e-12 10.3814617,-1.48525636e-12 C11.3356401,-1.48525636e-12 11.8371563,0.61168034 12.2027975,1.05809301 C12.508898,1.43136999 12.647063,1.58334026 12.9768271,1.58334026 C13.3065912,1.58334026 13.4447562,1.43136999 13.7508567,1.0571432 C14.1164979,0.61168034 14.6180141,-1.48525636e-12 15.5721925,-1.48525636e-12 C16.526371,-1.48525636e-12 17.0278872,0.61168034 17.3935284,1.0571432 C17.7003922,1.43136999 17.8377939,1.58334026 18.1675579,1.58334026 C18.4980854,1.58334026 18.6354871,1.43136999 18.9415875,1.0571432 C19.307992,0.61168034 19.8087449,-1.48525636e-12 20.7629234,-1.48525636e-12 L20.7629234,1.86163582 C20.4331593,1.86163582 20.2957576,2.01360609 19.9896571,2.38783288 C19.6232526,2.83329574 19.1217364,3.44497608 18.1675579,3.44497608" id="Fill-51"></path>
                            <path d="M22.8948307,8.35406699 C21.9406522,8.35406699 21.4398993,7.74221795 21.0734948,7.29663224 C20.766631,6.92325232 20.6299927,6.77124014 20.2994652,6.77124014 C19.9689378,6.77124014 19.8315361,6.92325232 19.5254357,7.29663224 C19.1590311,7.74221795 18.6582783,8.35406699 17.7040998,8.35406699 C16.749158,8.35406699 16.2484052,7.74221795 15.8820006,7.29663224 C15.5759002,6.92325232 15.4384985,6.77124014 15.1087344,6.77124014 C14.778207,6.77124014 14.6408053,6.92325232 14.3347048,7.29663224 C13.9690636,7.74221795 13.4675474,8.35406699 12.513369,8.35406699 C11.5584272,8.35406699 11.0576743,7.74221795 10.6920331,7.29663224 C10.3851693,6.92325232 10.2477676,6.77124014 9.91800357,6.77124014 C9.58747615,6.77124014 9.45007445,6.92325232 9.143974,7.29663224 C8.77833281,7.74221795 8.27681661,8.35406699 7.32263815,8.35406699 C6.36845968,8.35406699 5.86694348,7.74221795 5.5013023,7.29663224 C5.19520185,6.92325232 5.0570368,6.77124014 4.72727273,6.77124014 L4.72727273,4.90909091 C5.68145119,4.90909091 6.18296739,5.51998987 6.54860858,5.96652565 C6.85470903,6.33990557 6.99211073,6.49191776 7.32263815,6.49191776 C7.65240222,6.49191776 7.78980392,6.33990557 8.09666772,5.96652565 C8.4623089,5.51998987 8.9638251,4.90909091 9.91800357,4.90909091 C10.872182,4.90909091 11.3736982,5.51998987 11.7393394,5.96652565 C12.0454399,6.33990557 12.1828416,6.49191776 12.513369,6.49191776 C12.8438964,6.49191776 12.9805348,6.33990557 13.2873986,5.96652565 C13.6530397,5.51998987 14.1537926,4.90909091 15.1087344,4.90909091 C16.0629129,4.90909091 16.5644291,5.51998987 16.9300703,5.96652565 C17.2361707,6.33990557 17.3743357,6.49191776 17.7040998,6.49191776 C18.0338639,6.49191776 18.1720289,6.33990557 18.4781294,5.96652565 C18.8437706,5.51998987 19.3452868,4.90909091 20.2994652,4.90909091 C21.2536437,4.90909091 21.7551599,5.51998987 22.1208011,5.96652565 C22.4276649,6.33990557 22.5650666,6.49191776 22.8948307,6.49191776 C23.2253581,6.49191776 23.3627598,6.33990557 23.6688602,5.96652565 C24.0352648,5.51998987 24.5360176,4.90909091 25.4901961,4.90909091 L25.4901961,6.77124014 C25.160432,6.77124014 25.0230303,6.92325232 24.7169299,7.29663224 C24.3505253,7.74221795 23.8490091,8.35406699 22.8948307,8.35406699" id="Fill-53"></path>
                        </g>
                        <g id="分组-4" transform="translate(0.000000, 153.000000)" fill="#E53E00">
                            <path d="M25.3225807,11.2201003 L4.86830421,4.55444513 L11.6863964,24.5514106 L25.3225807,11.2201003 Z M11.2857059,26.2319942 L3.40109542,3.10700843 L27.054927,10.815337 L11.2857059,26.2319942 Z" id="Fill-1-Copy" fill-rule="nonzero" transform="translate(15.228011, 14.669501) rotate(-285.000000) translate(-15.228011, -14.669501) "></path>
                            <polygon id="Fill-1" transform="translate(20.058572, 15.321125) rotate(-285.000000) translate(-20.058572, -15.321125) " points="31.0855994 11.7276293 16.3828967 26.101613 9.03154534 4.54063739"></polygon>
                        </g>
                        <path d="M501.866593,13 C501.866593,11.415631 500.582897,10.1317821 499.000269,10.1317821 C497.417492,10.1317821 496.133407,11.4157807 496.133407,13 C496.133407,14.5845483 497.417282,15.8682179 499.000269,15.8682179 C500.583106,15.8682179 501.866593,14.584698 501.866593,13 Z M503,13 C503,15.2094777 501.209357,17 499.000269,17 C496.791181,17 495,15.2094777 495,13 C495,10.7910609 496.791181,9 499.000269,9 C501.209357,9 503,10.7910609 503,13 Z" id="Stroke-1" fill="#C2C2C2" fill-rule="nonzero"></path>
                        <path d="M505.008269,13 C505.008269,9.68074175 502.318052,6.99030933 499.000236,6.99030933 C495.682308,6.99030933 492.991731,9.68085222 492.991731,13 C492.991731,16.319446 495.682135,19.0096907 499.000236,19.0096907 C502.318225,19.0096907 505.008269,16.3195565 505.008269,13 Z M506,13 C506,16.866164 502.866269,20 499.000236,20 C495.134202,20 492,16.866164 492,13 C492,9.13430726 495.134202,6 499.000236,6 C502.866269,6 506,9.13430726 506,13 Z" id="Stroke-3" fill="#C2C2C2" fill-rule="nonzero"></path>
                        <path d="M508.055494,13 C508.055494,8.01714111 504.006325,3.96797153 499,3.96797153 C493.993675,3.96797153 489.944506,8.01714111 489.944506,13 C489.944506,17.9831458 493.993514,22.0320285 499,22.0320285 C504.006486,22.0320285 508.055494,17.9831458 508.055494,13 Z M509,13 C509,18.5232923 504.522844,23 499,23 C493.477156,23 489,18.5232923 489,13 C489,7.47715645 493.477156,3 499,3 C504.522844,3 509,7.47715645 509,13 Z" id="Stroke-5" fill="#C2C2C2" fill-rule="nonzero"></path>
                        <path d="M511.06105,12.9997812 C511.06105,6.33793341 505.660755,0.937603796 499,0.937603796 C492.339245,0.937603796 486.93895,6.33793341 486.93895,12.9997812 C486.93895,19.6620038 492.339182,25.0623962 499,25.0623962 C505.660818,25.0623962 511.06105,19.6620038 511.06105,12.9997812 Z M512,12.9997812 C512,20.1794376 506.179777,26 499,26 C491.820223,26 486,20.1794376 486,12.9997812 C486,5.82056245 491.820223,0 499,0 C506.179777,0 512,5.82056245 512,12.9997812 Z" id="Stroke-7" fill="#C2C2C2" fill-rule="nonzero"></path>
                        <polygon id="Path-12-Copy" fill="#A8A7A7" fill-rule="nonzero" points="391 154.707547 398 169 384.726853 161.6 376 144"></polygon>
                    </g>
                </g>
            </g>
        </g>
    </g>
</svg>