<?xml version="1.0" encoding="UTF-8"?>
<svg width="560px" height="200px" viewBox="0 0 560 200" version="1.1" xmlns="http://www.w3.org/2000/svg" xmlns:xlink="http://www.w3.org/1999/xlink">
    <!-- Generator: Sketch 52.5 (67469) - http://www.bohemiancoding.com/sketch -->
    <title>500</title>
    <desc>Created with Sketch.</desc>
    <defs>
        <polygon id="path-1" points="-1.42108547e-14 0.67419351 139.831803 0.67419351 156.897248 81.488189 17.0973952 81.488189"></polygon>
    </defs>
    <g id="Page-1" stroke="none" stroke-width="1" fill="none" fill-rule="evenodd">
        <g id="异常页-500" transform="translate(-550.000000, -286.000000)">
            <g id="分组-3" transform="translate(550.000000, 286.000000)">
                <g id="Group-4" transform="translate(8.000000, 0.000000)">
                    <g id="Group-5" transform="translate(522.961102, 80.423737) scale(1, -1) rotate(-110.000000) translate(-522.961102, -80.423737) translate(510.461102, 66.923737)" fill="#E53E00">
                        <path d="M22.1878809,11.8283979 L1.73360439,5.16274274 L8.55169657,25.1597082 L22.1878809,11.8283979 Z M8.15100613,26.8402918 L0.266395606,3.71530604 L23.9202272,11.4236346 L8.15100613,26.8402918 Z" id="Fill-1-Copy" fill-rule="nonzero"></path>
                        <polygon id="Fill-1" points="25 7.18699187 10.2972973 21.5609756 2.94594595 0"></polygon>
                    </g>
                    <polygon id="Path-4-Copy-22" fill="#002F8E" fill-rule="nonzero" points="237.455907 6.83427182e-14 211 6.83427182e-14 211 153.89412 237.455907 153.89412"></polygon>
                    <polygon id="Path-4-Copy-23" fill="#002F8E" fill-rule="nonzero" points="395.455907 6.83427182e-14 369 6.83427182e-14 369 153.89412 395.455907 153.89412"></polygon>
                    <polygon id="Path-4-Copy-24" fill="#002F8E" fill-rule="nonzero" points="305.455907 6.83427182e-14 279 6.83427182e-14 279 153.89412 305.455907 153.89412"></polygon>
                    <polygon id="Path-4-Copy-25" fill="#002F8E" fill-rule="nonzero" points="463.455907 6.83427182e-14 437 6.83427182e-14 437 153.89412 463.455907 153.89412"></polygon>
                    <g id="分组-4" transform="translate(34.000000, 143.000000)" fill-rule="nonzero">
                        <path d="M470.258511,15.5057234 C474.422599,19.6505236 477,25.3880215 477,31.7275036 L477,31.9179027 C477,44.5584079 466.752846,54.805562 454.112341,54.805562 L28.1788406,54.805562 C18.3658868,54.805562 9.99530431,48.6300366 6.74148912,39.9533819 C2.57740085,35.8085817 7.76362648e-16,30.0710838 0,23.7316017 L0,23.5412025 C-1.54801542e-15,10.9006974 10.2471541,0.653543307 22.8876592,0.653543307 L448.821159,0.653543307 C458.634113,0.653543307 467.004696,6.82906869 470.258511,15.5057234 Z M29.5512866,21.8590361 C22.7278377,21.8590361 17.1963394,27.3905343 17.1963394,34.2139833 C17.1963394,41.0374322 22.7278377,46.5689305 29.5512866,46.5689305 L452.739895,46.5689305 C459.563344,46.5689305 465.094842,41.0374322 465.094842,34.2139833 C465.094842,27.3905343 459.563344,21.8590361 452.739895,21.8590361 L29.5512866,21.8590361 Z" id="Combined-Shape-Copy-3" fill="#D8D8D8"></path>
                        <ellipse id="Oval" stroke="#D8D8D8" stroke-width="3.12831988" cx="33.4487787" cy="34.0823315" rx="7.03770492" ry="7.05477243"></ellipse>
                        <ellipse id="Oval" stroke="#D8D8D8" stroke-width="3.12831988" cx="448.82294" cy="34.0823315" rx="7.03770492" ry="7.05477243"></ellipse>
                    </g>
                    <polygon id="Path-2" fill="#9C9C9C" fill-rule="nonzero" points="211.674497 143.653543 351.5063 143.653543 368.5 165 228.700147 165"></polygon>
                    <g id="Group-2" transform="translate(211.674497, 83.511811)">
                        <mask id="mask-2" fill="white">
                            <use xlink:href="#path-1"></use>
                        </mask>
                        <g id="Path-2" fill-rule="nonzero"></g>
                        <g id="Group-2-Copy-7" mask="url(#mask-2)" fill-rule="nonzero">
                            <g transform="translate(34.130890, 62.415571)">
                                <polygon id="Rectangle-Copy-24" fill="#FFCD00" opacity="0.598693269" points="0.128426691 -9.09494702e-13 33.2342331 -9.09494702e-13 36.4421278 7.17465348 3.33632143 7.17465348"></polygon>
                                <polygon id="Rectangle-Copy-26" fill="#FFF664" points="3.33632143 7.17465348 36.4421278 7.17465348 36.4421278 33.2643025 3.33632143 33.2643025"></polygon>
                                <ellipse id="Oval" fill="#E75213" cx="6.67408749" cy="10.8620252" rx="1.72476418" ry="1.62930378"></ellipse>
                                <ellipse id="Oval" fill="#E75213" cx="12.4233014" cy="10.8620252" rx="1.72476418" ry="1.62930378"></ellipse>
                                <ellipse id="Oval" fill="#E75213" cx="18.1725154" cy="10.8620252" rx="1.72476418" ry="1.62930378"></ellipse>
                                <polygon id="Path-10" fill="#FFC30F" points="0.0293939432 0.0265928429 0.0293939432 25.4374078 3.33632143 33.2643025 3.33632143 7.17465348"></polygon>
                            </g>
                        </g>
                        <g id="Group-2-Copy-8" mask="url(#mask-2)" fill-rule="nonzero">
                            <g transform="translate(46.617801, 34.120512)">
                                <polygon id="Rectangle-Copy-24" fill="#FFCD00" opacity="0.598693269" points="0.128426691 -9.09494702e-13 33.2342331 -9.09494702e-13 36.4421278 7.17465348 3.33632143 7.17465348"></polygon>
                                <polygon id="Rectangle-Copy-26" fill="#FFF664" points="3.33632143 7.17465348 36.4421278 7.17465348 36.4421278 33.2643025 3.33632143 33.2643025"></polygon>
                                <ellipse id="Oval" fill="#E75213" cx="6.67408749" cy="10.8620252" rx="1.72476418" ry="1.62930378"></ellipse>
                                <ellipse id="Oval" fill="#E75213" cx="12.4233014" cy="10.8620252" rx="1.72476418" ry="1.62930378"></ellipse>
                                <ellipse id="Oval" fill="#E75213" cx="18.1725154" cy="10.8620252" rx="1.72476418" ry="1.62930378"></ellipse>
                                <polygon id="Path-10" fill="#FFC30F" points="0.0293939432 0.0265928429 0.0293939432 25.4374078 3.33632143 33.2643025 3.33632143 7.17465348"></polygon>
                            </g>
                        </g>
                        <g id="Group-2-Copy-7" mask="url(#mask-2)" fill-rule="nonzero">
                            <g transform="translate(113.987798, 71.510550) rotate(-315.000000) translate(-113.987798, -71.510550) translate(95.611568, 54.657483)">
                                <polygon id="Rectangle-Copy-24" fill="#FFCD00" opacity="0.598693269" points="0.128426691 -9.09494702e-13 33.2342331 -9.09494702e-13 36.4421278 7.17465348 3.33632143 7.17465348"></polygon>
                                <polygon id="Rectangle-Copy-26" fill="#FFF664" points="3.33632143 7.17465348 36.4421278 7.17465348 36.4421278 33.2643025 3.33632143 33.2643025"></polygon>
                                <ellipse id="Oval" fill="#E75213" cx="6.67408749" cy="10.8620252" rx="1.72476418" ry="1.62930378"></ellipse>
                                <ellipse id="Oval" fill="#E75213" cx="12.4233014" cy="10.8620252" rx="1.72476418" ry="1.62930378"></ellipse>
                                <ellipse id="Oval" fill="#E75213" cx="18.1725154" cy="10.8620252" rx="1.72476418" ry="1.62930378"></ellipse>
                                <polygon id="Path-10" fill="#FFC30F" points="0.0293939432 0.0265928429 0.0293939432 25.4374078 3.33632143 33.2643025 3.33632143 7.17465348"></polygon>
                            </g>
                        </g>
                    </g>
                    <g id="Group" transform="translate(245.000000, 10.000000)" fill-rule="nonzero">
                        <polyline id="Path" stroke="#E1E1E1" stroke-width="1.59022927" points="17.49 64.6133051 35.3775 76.5697057 35.3775 92.9101197"></polyline>
                        <path d="M17.0925,0 L17.0925,64.6111859" id="Path-11" stroke="#E1E1E1" stroke-width="1.59022927"></path>
                        <g id="Group-2-Copy-8" transform="translate(0.805387, 80.337264)">
                            <polygon id="Rectangle-Copy-24" fill="#FFCD00" opacity="0.598693269" points="0.128426691 -9.09494702e-13 33.2342331 -9.09494702e-13 36.4421278 7.17465348 3.33632143 7.17465348"></polygon>
                            <polygon id="Rectangle-Copy-26" fill="#FFF664" points="3.33632143 7.17465348 36.4421278 7.17465348 36.4421278 33.2643025 3.33632143 33.2643025"></polygon>
                            <ellipse id="Oval" fill="#E75213" cx="6.67408749" cy="10.8620252" rx="1.72476418" ry="1.62930378"></ellipse>
                            <ellipse id="Oval" fill="#E75213" cx="12.4233014" cy="10.8620252" rx="1.72476418" ry="1.62930378"></ellipse>
                            <ellipse id="Oval" fill="#E75213" cx="18.1725154" cy="10.8620252" rx="1.72476418" ry="1.62930378"></ellipse>
                            <polygon id="Path-10" fill="#FFC30F" points="0.0293939432 0.0265928429 0.0293939432 25.4374078 3.33632143 33.2643025 3.33632143 7.17465348"></polygon>
                        </g>
                        <polyline id="Path" stroke="#E1E1E1" stroke-width="1.59022927" points="0.795 90.9173863 0.795 75.7726123 17.0398778 64.6133051 33.7656739 75.7726123"></polyline>
                    </g>
                    <g id="Group-Copy" transform="translate(403.000000, 10.000000)" fill-rule="nonzero" stroke="#E1E1E1" stroke-width="1.59022927">
                        <polyline id="Path" points="17.49 44.6133051 35.3775 56.5697057 35.3775 72.9101197"></polyline>
                        <path d="M17.0925,0 L17.0925,44.6111859" id="Path-11"></path>
                        <polyline id="Path" points="0.795 70.9173863 0.795 55.7726123 17.0398778 44.6133051 33.7656739 55.7726123"></polyline>
                    </g>
                    <polygon id="Path-4-Copy-26" fill="#2642C3" fill-rule="nonzero" points="243.455907 17 217 17 217 164.923186 243.455907 164.923186"></polygon>
                    <polygon id="Path-4-Copy-27" fill="#2642C3" fill-rule="nonzero" points="401.455907 17 375 17 375 164.923186 401.455907 164.923186"></polygon>
                    <polygon id="Path-4-Copy-28" fill="#2642C3" fill-rule="nonzero" points="311.455907 17 285 17 285 164.923186 311.455907 164.923186"></polygon>
                    <polygon id="Path-4-Copy-29" fill="#2642C3" fill-rule="nonzero" points="469.455907 17 443 17 443 164.923186 469.455907 164.923186"></polygon>
                    <polygon id="Path-17-Copy-16" fill="#2642C3" fill-rule="nonzero" points="63.2178481 0.950694106 69.3027067 17.1582593 150.7869 17.1582593 144.437482 0.950694106"></polygon>
                    <polygon id="Path-17-Copy-17" fill="#6A95EA" fill-rule="nonzero" opacity="0.641973586" points="211 1.40648278e-13 217.293327 17.5 310.922927 17.5 304.823757 0"></polygon>
                    <polygon id="Path-17-Copy-18" fill="#6A95EA" fill-rule="nonzero" opacity="0.641973586" points="369 1.40648278e-13 375.293327 17.5 468.922927 17.5 462.823757 0"></polygon>
                    <polygon id="Path-17-Copy-19" fill="#FFF664" fill-rule="nonzero" points="211 5.75808385e-14 217.293327 17.5 243.749234 17.5 237.455907 1.66134878e-13"></polygon>
                    <polygon id="Path-17-Copy-20" fill="#FFF664" fill-rule="nonzero" points="369 5.75808385e-14 375.293327 17.5 401.749234 17.5 395.455907 1.66134878e-13"></polygon>
                    <polygon id="Path-17-Copy-21" fill="#FFF664" fill-rule="nonzero" points="279 5.75808385e-14 285.293327 17.5 311.749234 17.5 305.455907 1.66134878e-13"></polygon>
                    <polygon id="Path-17-Copy-22" fill="#FFF664" fill-rule="nonzero" points="437 5.75808385e-14 443.293327 17.5 469.749234 17.5 463.455907 1.66134878e-13"></polygon>
                    <polygon id="Path-21-Copy-2" fill="#002F8E" fill-rule="nonzero" points="145.132544 146.314837 151.446563 162.522402 69.3027067 162.41932 63.2178481 146.344604"></polygon>
                    <polygon id="Path-20-Copy-2" fill="#9ABCFF" fill-rule="nonzero" points="144.937006 74.1220472 151.286424 89.8721895 202.07047 162.417012 195.814732 146.347808"></polygon>
                    <polygon id="Path-20-Copy-2" fill="#1C53C1" fill-rule="nonzero" opacity="0.237932478" points="144.408858 74.199956 150.611843 89.877228 151.446563 162.522402 145.251334 146.453199"></polygon>
                    <polygon id="Path-19-Copy-2" fill="#002F8E" fill-rule="nonzero" points="62.8120805 74.1220472 68.8969391 89.8721895 151.286424 89.8721895 144.937006 74.1220472"></polygon>
                    <g id="Group-2-Copy-7" transform="translate(98.272792, 44.528439)" fill-rule="nonzero">
                        <polygon id="Rectangle-Copy-24" fill="#FFCD00" opacity="0.598693269" points="0.151036379 -9.09494702e-13 39.0851636 -9.09494702e-13 42.8578125 8.39949058 3.92368521 8.39949058"></polygon>
                        <polygon id="Rectangle-Copy-26" fill="#FFF664" points="3.92368521 8.39949058 42.8578125 8.39949058 42.8578125 38.9430927 3.92368521 38.9430927"></polygon>
                        <ellipse id="Oval" fill="#E75213" cx="7.84906939" cy="12.7163602" rx="2.02841119" ry="1.90745404"></ellipse>
                        <ellipse id="Oval" fill="#E75213" cx="14.61044" cy="12.7163602" rx="2.02841119" ry="1.90745404"></ellipse>
                        <ellipse id="Oval" fill="#E75213" cx="21.3718107" cy="12.7163602" rx="2.02841119" ry="1.90745404"></ellipse>
                        <polygon id="Path-10" fill="#FFC30F" points="0.0345687857 0.0311326999 0.0345687857 29.7800121 3.92368521 38.9430927 3.92368521 8.39949058"></polygon>
                    </g>
                    <polygon id="Path-18-Copy-2" fill="#1C53C1" fill-rule="nonzero" points="63.2178481 0.950694106 62.8120805 74.1220472 68.8969391 89.8721895 69.3027067 17.1582593"></polygon>
                    <path d="M144.446309,89.8721895 L151.286424,89.8721895 L202.07047,162.417012 L195.737969,162.417012 L149.699155,97.3016003 L69.0144668,97.3016003 L62.8120805,82.3816115 L62.8120805,74.1220472 L69.0144668,89.8721895 L144.446309,89.8721895 Z" id="Combined-Shape" fill="#316DE6" fill-rule="nonzero" opacity="0.70328776"></path>
                    <g id="Group-3" transform="translate(0.000000, 150.000000)" fill="#002F8E" fill-rule="nonzero">
                        <path d="M22.7977941,3.44497608 C21.8137976,3.44497608 21.2973962,2.83329574 20.9195415,2.38783288 C20.6030882,2.01360609 20.4621799,1.86163582 20.1213235,1.86163582 C19.7804671,1.86163582 19.6387716,2.01360609 19.3231055,2.38783288 C18.9452509,2.83329574 18.4288495,3.44497608 17.4448529,3.44497608 C16.4600692,3.44497608 15.9436678,2.83329574 15.5658131,2.38783288 C15.2501471,2.01360609 15.1084516,1.86163582 14.7683824,1.86163582 C14.427526,1.86163582 14.2858304,2.01360609 13.9701644,2.38783288 C13.5930969,2.83329574 13.0759083,3.44497608 12.0919118,3.44497608 C11.107128,3.44497608 10.5907266,2.83329574 10.2136592,2.38783288 C9.89720588,2.01360609 9.75551038,1.86163582 9.41544118,1.86163582 C9.07458478,1.86163582 8.93288927,2.01360609 8.61722318,2.38783288 C8.24015571,2.83329574 7.72296713,3.44497608 6.73897059,3.44497608 C5.75497405,3.44497608 5.23778547,2.83329574 4.86071799,2.38783288 C4.5450519,2.01360609 4.4025692,1.86163582 4.0625,1.86163582 L4.0625,-1.59161573e-12 C5.04649654,-1.59161573e-12 5.56368512,0.61168034 5.9407526,1.05809301 C6.25641869,1.43136999 6.39811419,1.58334026 6.73897059,1.58334026 C7.07903979,1.58334026 7.22073529,1.43136999 7.53718858,1.0571432 C7.91425606,0.61168034 8.43144464,-1.59161573e-12 9.41544118,-1.59161573e-12 C10.3994377,-1.59161573e-12 10.9166263,0.61168034 11.2936938,1.05809301 C11.6093599,1.43136999 11.7510554,1.58334026 12.0919118,1.58334026 C12.4327682,1.58334026 12.5736765,1.43136999 12.8901298,1.05809301 C13.2671972,0.61168034 13.7835986,-1.59161573e-12 14.7683824,-1.59161573e-12 C15.7523789,-1.59161573e-12 16.2695675,0.61168034 16.6466349,1.05809301 C16.962301,1.43136999 17.1047837,1.58334026 17.4448529,1.58334026 C17.7849221,1.58334026 17.9274048,1.43136999 18.2430709,1.0571432 C18.6201384,0.61168034 19.137327,-1.59161573e-12 20.1213235,-1.59161573e-12 C21.1053201,-1.59161573e-12 21.6225087,0.61168034 21.9995761,1.0571432 C22.3160294,1.43136999 22.4577249,1.58334026 22.7977941,1.58334026 C23.1386505,1.58334026 23.280346,1.43136999 23.5960121,1.0571432 C23.9738668,0.61168034 24.4902682,-1.59161573e-12 25.4742647,-1.59161573e-12 L25.4742647,1.86163582 C25.1341955,1.86163582 24.9925,2.01360609 24.6768339,2.38783288 C24.2989792,2.83329574 23.7817907,3.44497608 22.7977941,3.44497608" id="Fill-51"></path>
                        <path d="M18.7352941,8.35406699 C17.7512976,8.35406699 17.2348962,7.74221795 16.8570415,7.29663224 C16.5405882,6.92325232 16.3996799,6.77124014 16.0588235,6.77124014 C15.7179671,6.77124014 15.5762716,6.92325232 15.2606055,7.29663224 C14.8827509,7.74221795 14.3663495,8.35406699 13.3823529,8.35406699 C12.3975692,8.35406699 11.8811678,7.74221795 11.5033131,7.29663224 C11.1876471,6.92325232 11.0459516,6.77124014 10.7058824,6.77124014 C10.365026,6.77124014 10.2233304,6.92325232 9.90766436,7.29663224 C9.53059689,7.74221795 9.0134083,8.35406699 8.02941176,8.35406699 C7.04462803,8.35406699 6.52822664,7.74221795 6.15115917,7.29663224 C5.83470588,6.92325232 5.69301038,6.77124014 5.35294118,6.77124014 C5.01208478,6.77124014 4.87038927,6.92325232 4.55472318,7.29663224 C4.17765571,7.74221795 3.66046713,8.35406699 2.67647059,8.35406699 C1.69247405,8.35406699 1.17528547,7.74221795 0.798217993,7.29663224 C0.482551903,6.92325232 0.340069204,6.77124014 0,6.77124014 L0,4.90909091 C0.98399654,4.90909091 1.50118512,5.51998987 1.8782526,5.96652565 C2.19391869,6.33990557 2.33561419,6.49191776 2.67647059,6.49191776 C3.01653979,6.49191776 3.15823529,6.33990557 3.47468858,5.96652565 C3.85175606,5.51998987 4.36894464,4.90909091 5.35294118,4.90909091 C6.33693772,4.90909091 6.8541263,5.51998987 7.23119377,5.96652565 C7.54685986,6.33990557 7.68855536,6.49191776 8.02941176,6.49191776 C8.37026817,6.49191776 8.51117647,6.33990557 8.82762976,5.96652565 C9.20469723,5.51998987 9.72109862,4.90909091 10.7058824,4.90909091 C11.6898789,4.90909091 12.2070675,5.51998987 12.5841349,5.96652565 C12.899801,6.33990557 13.0422837,6.49191776 13.3823529,6.49191776 C13.7224221,6.49191776 13.8649048,6.33990557 14.1805709,5.96652565 C14.5576384,5.51998987 15.074827,4.90909091 16.0588235,4.90909091 C17.0428201,4.90909091 17.5600087,5.51998987 17.9370761,5.96652565 C18.2535294,6.33990557 18.3952249,6.49191776 18.7352941,6.49191776 C19.0761505,6.49191776 19.217846,6.33990557 19.5335121,5.96652565 C19.9113668,5.51998987 20.4277682,4.90909091 21.4117647,4.90909091 L21.4117647,6.77124014 C21.0716955,6.77124014 20.93,6.92325232 20.6143339,7.29663224 C20.2364792,7.74221795 19.7192907,8.35406699 18.7352941,8.35406699" id="Fill-53"></path>
                    </g>
                </g>
            </g>
        </g>
    </g>
</svg>